<svg width="66" height="96" viewBox="0 0 66 96" fill="none" xmlns="http://www.w3.org/2000/svg">
<path d="M46.8105 0.183312C40.1555 1.06837 35.1928 6.34984 28.3044 6.01533C25.1852 5.86351 22.2123 5.36404 19.0488 5.65013C15.7898 5.94413 12.5613 6.78843 9.59328 8.14875C-0.353166 12.7086 -2.64902 23.281 3.09785 31.169C6.54331 35.8985 12.0354 38.9448 17.718 41.1219C24.5545 43.741 31.9225 45.4201 39.4227 45.9375C38.3685 47.0238 37.4708 48.4398 37.5879 49.761C37.7039 51.0643 39.1511 51.2316 40.4588 51.1696C38.6486 54.2341 38.4959 56.9199 41.7342 59.2225C43.8886 60.7539 46.4067 61.7182 48.152 63.7014C50.048 65.857 52.7801 70.1374 51.5115 72.9544C49.4726 77.4806 46.1238 81.495 46.2705 86.5494C46.3764 90.2013 48.2237 93.8277 52.079 95.1585C53.0025 95.4777 53.737 94.1004 52.8561 93.6869C47.7823 91.3098 47.3996 85.9586 49.1832 81.3296C50.11 78.9241 51.4906 76.6798 52.7537 74.4011C53.4385 73.1652 54.0737 72.0914 53.8987 70.7141C53.4616 67.2725 50.5348 62.9885 47.6614 60.8426C46.22 59.7661 44.5063 59.041 43.0246 58.0169C40.3402 56.1614 40.3643 53.8091 41.6254 51.069C41.6619 51.0649 41.7013 51.0607 41.7366 51.057C42.8974 50.9305 45.8801 50.6866 46.0546 49.177C46.1485 48.3677 45.2356 47.5981 44.7803 47.0215C44.1256 46.192 43.4667 45.3651 42.8089 44.5379C47.8647 39.9198 52.6546 35.0571 57.0614 29.9241C60.8207 25.5455 64.2963 20.726 65.0483 15.184C66.3825 5.35115 57.1849 -1.19653 46.8105 0.183312ZM43.4994 49.1071C42.8509 49.3359 42.0564 49.4322 41.3795 49.4948C41.0692 49.5234 39.6896 49.7232 39.4731 49.5227C39.1797 49.2507 39.5719 48.514 39.7263 48.1214C40.0061 47.4093 40.3402 46.673 40.6916 45.9627C41.0255 45.827 41.1943 45.43 41.1024 45.1334C41.1027 45.1318 41.1036 45.1305 41.1038 45.1288C41.1267 45.1721 41.1513 45.215 41.184 45.2571C41.9405 46.2232 42.6948 47.1903 43.4538 48.1543C43.8892 48.7088 44.3232 48.8166 43.4994 49.1071ZM63.1563 13.0019C63.239 19.0074 59.3442 24.3199 55.3471 28.97C50.9528 34.082 46.1557 38.9086 41.1069 43.4995C40.6577 43.9082 40.724 44.4178 41.0176 44.7558C41.0153 44.8107 41.019 44.8663 41.0299 44.9219C40.983 44.8852 40.9223 44.8612 40.8561 44.8518C40.802 44.8252 40.7425 44.8036 40.6714 44.7937C29.8988 43.275 17.9106 41.0141 9.38627 34.7211C1.352 28.7901 -1.89707 16.5851 8.8663 10.5434C14.3206 7.48186 20.2663 7.13188 26.2972 7.70493C31.7307 8.22123 35.52 6.65087 40.3174 4.26318C44.8366 2.01398 49.671 1.12182 54.5139 2.55319C59.6599 4.07532 63.0865 7.946 63.1563 13.0019Z" fill="#8396B4"/>
</svg>
