<svg width="134" height="55" viewBox="0 0 134 55" fill="none" xmlns="http://www.w3.org/2000/svg">
<path fill-rule="evenodd" clip-rule="evenodd" d="M102.819 39.0619C100.415 33.4554 100.321 27.9008 100.239 22.3566C100.216 20.9296 100.326 19.4586 100.664 18.0787C101.275 15.5857 102.908 13.9061 105.476 13.4061C108.097 12.894 110.206 13.9766 111.534 16.1807C112.47 17.7345 113.082 19.5034 113.69 21.2278C114.095 22.3726 114.236 23.6096 114.629 25.4166C115.677 23.9022 116.443 22.7952 117.209 21.6891C120.01 17.6422 123.809 15.2975 128.779 14.9067C131.259 14.7119 132.675 15.6286 133.392 17.997C134.146 20.4876 133.648 22.9307 132.834 25.2596C132.024 27.5756 131.136 29.9349 129.838 31.9989C126.503 37.2963 122.987 42.4852 119.411 47.6262C117.901 49.7999 116.059 51.7466 114.114 54.1049C109.815 50.5482 107.002 45.7931 103.696 41.2699C102.677 41.7322 101.756 42.1386 100.845 42.5667C96.3737 44.6716 91.9423 46.8659 87.4219 48.8639C83.6983 50.5115 79.7812 51.3112 75.6618 50.6675C70.1155 49.8008 67.4813 45.5119 69.5137 40.3011C70.2851 38.3236 71.5452 36.5367 72.6457 34.5474C71.4892 34.1878 70.1955 33.9284 69.0362 33.3846C67.8378 32.8215 66.7691 31.9792 65.1145 30.9201C64.6966 31.4447 64.2545 32.3089 63.5547 32.8289C59.7622 35.6407 55.9891 38.4926 52.0303 41.0599C50.5371 42.0288 48.6054 42.5459 46.8094 42.7766C44.1065 43.1234 42.7096 41.511 43.1685 38.836C43.3732 37.642 43.7881 36.4274 44.3743 35.368C46.2497 31.9765 48.2494 28.6549 50.3297 25.0854C49.029 25.4199 47.7683 25.7444 46.2519 26.1335C46.1262 30.8551 42.7765 33.3223 39.2656 35.5465C36.7561 37.136 34.148 38.6687 31.3938 39.7433C29.5556 40.4614 27.3621 40.6405 25.364 40.5061C22.2413 40.2952 20.6876 37.8682 21.4681 34.8156C21.8134 33.4614 22.4754 32.1881 23.1718 30.4283C21.9862 30.9708 21.1298 31.3846 20.2548 31.7586C16.3829 33.4169 12.5595 35.2095 8.60471 36.6423C7.03628 37.211 5.13395 37.2567 3.44863 37.0378C0.525441 36.6577 -0.608069 34.6737 0.31222 31.9141C0.760899 30.5697 1.49521 29.3219 2.11025 28.0096C1.6124 27.6783 1.14176 27.3649 0.588297 26.996C0.848818 26.652 0.989052 26.2617 1.19759 26.2218C4.18427 25.637 5.83881 23.4571 7.51816 21.2126C12.4363 14.6386 18.3913 9.15456 25.325 4.73701C29.0085 2.39032 32.9295 0.568606 37.3149 0.0659351C38.7029 -0.092395 40.2238 0.0341066 41.5523 0.448755C43.4978 1.05636 44.0868 2.5357 43.1795 4.34026C42.4487 5.79304 41.5147 7.18649 40.4573 8.42521C37.2791 12.147 33.5007 15.2348 29.0095 17.1698C22.1119 20.14 15.1503 23.0066 8.05635 25.4646C4.31892 26.7597 2.78799 29.4786 1.56044 32.6625C0.973751 34.1858 1.67546 35.3707 3.29726 35.6159C4.69076 35.8261 6.22546 35.8648 7.56394 35.4984C10.0347 34.8221 12.5387 34.0394 14.7945 32.8567C19.8945 30.1837 24.8472 27.2333 29.8727 24.4184C30.3442 24.1541 30.9079 24.0556 31.4265 23.8797C31.5677 24.0529 31.708 24.2267 31.8495 24.3985C31.3815 24.9261 30.9362 25.4753 30.4428 25.9755C28.3576 28.0893 26.1262 30.0776 24.2102 32.3326C22.9457 33.8195 21.9535 35.7961 23.194 37.7245C24.524 39.7924 26.7558 39.5376 28.8062 39.0339C34.3787 37.6648 38.8862 34.4663 42.9104 30.5413C43.847 29.6282 44.5124 28.436 44.1368 26.8197C41.8912 27.1456 39.7854 27.4858 37.6683 27.7427C36.5503 27.8792 35.1437 28.0895 34.672 26.8222C34.12 25.3368 35.5503 24.6608 36.5582 24.0402C38.816 22.6474 41.3496 22.2932 43.613 23.6812C45.3377 24.7403 46.7949 24.6531 48.5164 24.0769C50.121 23.5399 51.7819 23.169 53.5289 22.6946C53.9376 24.4544 52.8537 25.1158 52.1428 25.8706C49.2817 28.902 47.1528 32.3958 45.4416 36.1598C45.0599 36.9979 44.6853 37.8638 44.4828 38.7553C44.0299 40.7662 44.9273 41.7904 46.9523 41.462C48.154 41.2679 49.3741 40.87 50.4582 40.3158C55.1691 37.9108 59.425 34.8621 63.1024 31.0489C63.9488 30.1708 64.8668 29.3424 64.4182 27.8455C64.268 27.3434 64.563 26.633 64.8245 26.1009C65.4193 24.8904 66.7728 24.318 67.5983 24.9068C68.5694 25.5998 68.2493 26.5509 67.8798 27.4057C67.5589 28.1493 67.1004 28.8328 66.6362 29.6595C68.0492 31.653 69.9781 32.6084 72.3892 32.656C72.8973 32.6657 73.6136 32.741 73.8844 32.4574C75.8008 30.4409 78.677 30.4418 80.9089 29.0116C83.3575 27.4428 86.211 26.7532 89.2009 27.737C90.727 28.238 92.1407 28.9112 92.5363 30.6095C92.9636 32.4425 91.967 33.7531 90.6303 34.8616C86.8786 37.9703 80.6415 38.5165 76.3673 36.0959C75.9442 35.8558 75.5571 35.5524 75.1081 35.2498C73.1858 36.8453 72.0245 38.7506 71.2861 40.9134C69.9188 44.9129 71.6222 47.9779 75.8359 48.5561C77.9274 48.8419 80.1742 48.6339 82.2531 48.1954C84.4463 47.7316 86.5934 46.8751 88.6385 45.9308C93.3065 43.7724 97.897 41.4585 102.819 39.0619ZM41.6738 3.09661C40.1043 1.64841 38.7765 1.81932 37.4381 1.97382C33.3581 2.44446 29.7164 4.07752 26.2775 6.20031C19.4691 10.404 13.6328 15.6895 8.75126 22.0144C8.4404 22.4167 8.26714 22.9248 7.91619 23.6037C8.61166 23.5393 8.93671 23.5829 9.1982 23.4745C15.6477 20.7904 22.1446 18.2091 28.5149 15.3502C32.2999 13.6508 35.4562 10.9378 38.2123 7.85074C39.4831 6.42873 40.4773 4.76156 41.6738 3.09661ZM129.21 18.9955C129.413 19.2576 129.617 19.5206 129.82 19.7825C128.669 20.5364 127.518 21.2909 126.367 22.0447C122.222 24.7577 119.247 28.5093 116.838 32.7534C116.284 33.7292 115.751 34.774 117.394 35.6131C120.847 31.0146 124.853 27.037 129.677 24.0394C131.527 22.89 131.825 21.4945 131.674 19.6862C131.47 17.2411 130.707 16.6417 128.293 16.955C124.748 17.4137 121.809 18.9836 119.747 21.905C118.271 23.9939 116.99 26.222 115.644 28.4009C115.153 29.1968 114.758 30.0887 113.216 29.5003C112.873 27.6 112.5 25.5315 112.017 22.8568C110.881 24.4054 110.084 25.4929 109.266 26.607C111.353 28.7757 113.22 30.7167 115.197 32.772C118.765 26.7482 122.821 21.6332 129.21 18.9955ZM108.078 27.8232C107.619 30.6995 110.066 31.1918 110.729 32.7363C111.454 34.4296 112.321 36.0618 113.01 37.7683C113.7 39.4811 114.295 41.238 114.848 43.0007C115.379 44.6972 115.883 46.4313 114.766 48.7151C113.461 46.1265 113.948 43.4885 112.342 41.3168C111.12 42.6111 110.095 43.6949 108.968 44.8895C110.753 47.069 112.351 49.0168 114.224 51.3051C115.484 49.4209 117.226 47.9829 117.372 46.3984C118.077 38.7096 114.321 32.9734 108.078 27.8232ZM119.232 44.5842C123.683 38.2896 127.802 32.6555 130.182 25.9588C129.317 26.2428 128.585 26.6127 128.014 27.1517C124.534 30.4339 121.091 33.7548 117.853 36.853C118.332 39.5361 118.724 41.7302 119.232 44.5842ZM76.3747 34.067C80.4711 37.0161 86.8486 36.5017 89.9558 33.1882C91.391 31.6589 91.2574 30.2859 89.318 29.6407C87.9256 29.1794 86.2539 29.0025 84.8319 29.2965C81.6637 29.9527 78.9742 31.6672 76.3747 34.067ZM106.667 30.7761C105.927 32.4892 105.216 33.9371 104.695 35.4488C104.483 36.0644 104.461 36.926 104.732 37.4966C105.731 39.5925 106.887 41.614 108.138 43.9491C109.432 42.6665 110.518 41.7428 111.395 40.6517C111.767 40.1885 111.951 39.3052 111.79 38.7326C110.953 35.7712 109.866 32.9159 106.667 30.7761ZM102.828 25.9844C105.155 22.7387 107.327 19.7077 109.493 16.6876C106.861 14.2457 103.818 14.824 102.795 18.0606C102.004 20.5682 101.98 23.1925 102.828 25.9844ZM110.965 18.0178C107.193 21.5365 105.119 25.3684 103.281 29.3201C102.873 30.1967 103.121 31.3766 103.039 32.965C106.047 28.5773 108.71 24.7966 111.216 20.9149C111.554 20.3915 111.107 19.3634 110.965 18.0178ZM36.2147 26.3066C38.816 26.3603 40.7358 26.2191 42.9158 25.0422C40.3665 24.3109 38.3931 24.2083 36.2147 26.3066Z" fill="#8396B4"/>
</svg>
