<svg width="126" height="68" viewBox="0 0 126 68" fill="none" xmlns="http://www.w3.org/2000/svg">
<path d="M20.1664 7.47485C20.2313 7.13544 20.0338 6.91326 19.7835 6.82789C19.7634 6.752 19.7307 6.67659 19.6751 6.60464C18.5158 5.10607 17.1954 3.61829 15.854 2.24607C15.8537 2.11481 15.8577 1.98295 15.8561 1.85144C15.8519 1.56674 15.4483 1.46234 15.2791 1.6584C15.2708 1.65063 15.2634 1.64163 15.2558 1.63398C15.1642 1.54293 15.0679 1.51907 14.9785 1.53326C13.3087 0.942364 10.9629 0.103512 9.25279 0.791641C9.21832 0.805467 9.20308 0.831828 9.17594 0.851159C9.17321 0.782624 9.17623 0.713061 9.17282 0.644404C9.15856 0.354381 8.6954 0.248798 8.58977 0.537707C7.50545 3.51539 7.2868 6.80423 6.77109 9.92207C6.21885 13.2623 5.64365 16.5991 5.0503 19.9325C3.8236 26.8218 2.49828 33.6924 1.0918 40.5474C1.02522 40.8733 1.17534 41.1076 1.39717 41.2309C1.36684 41.3169 1.36715 41.4177 1.42176 41.5214C2.20763 43.0009 2.96052 44.5848 3.94797 45.9415C4.08501 46.1297 4.25956 46.1964 4.42906 46.192C4.46186 46.2403 4.50836 46.2822 4.582 46.3047C7.06323 47.0593 9.64821 47.8427 12.2413 48.077C12.8041 48.1279 13.059 47.6074 12.893 47.2209C17.8267 34.6535 17.6533 20.6157 20.1664 7.47485ZM17.9658 12.4893C17.9673 12.4923 17.97 12.4928 17.9723 12.4953C17.7662 13.6864 17.5697 14.8778 17.384 16.0705C17.28 16.0015 17.152 15.9691 17.0271 15.9726L16.9468 15.9752C16.8741 15.9779 16.812 15.9943 16.7563 16.0181C16.4538 15.7746 16.1482 15.3542 15.9952 15.1812C15.7939 14.9534 15.5984 14.7205 15.3996 14.4904L14.5422 13.4963C14.8266 11.9918 15.091 10.4824 15.3094 8.9742C15.7289 9.39045 16.1358 9.81827 16.511 10.2757C17.0821 10.9717 17.4761 11.7436 17.9658 12.4893ZM16.5339 21.8541C16.2223 21.5007 15.8683 21.1707 15.5712 20.8324C15.0497 20.2378 14.5711 19.6018 14.0768 18.9837C13.9078 18.773 13.6462 18.8098 13.4917 18.9488C13.7762 17.4243 14.0832 15.883 14.3816 14.3361C14.6851 14.7186 14.9895 15.0999 15.2905 15.4847C15.7237 16.0388 16.1137 17.003 16.774 17.287C16.9214 17.3507 17.0633 17.3489 17.1949 17.305C16.9661 18.821 16.7456 20.3371 16.5339 21.8541ZM13.4449 19.4207C13.9307 20.0664 14.4422 20.7008 14.896 21.3697C15.3203 21.9951 15.664 22.7307 16.2235 23.2434C16.2592 23.2756 16.2954 23.2906 16.3317 23.3118C16.1522 24.6119 15.9735 25.9107 15.7906 27.2095C14.8001 25.9799 13.7291 24.8023 12.7067 23.6023C12.8246 22.8672 12.938 22.1298 13.0591 21.396C13.1701 20.7214 13.2902 20.0422 13.4158 19.3598C13.426 19.3797 13.4293 19.3998 13.4449 19.4207ZM15.6115 28.4694C15.404 29.9177 15.1926 31.3654 14.9635 32.8105C14.4878 32.2806 13.9955 31.7649 13.5541 31.203C13.0101 30.5106 12.549 29.582 11.838 29.0479C12.0758 27.5433 12.3181 26.0409 12.5579 24.5373C13.5537 25.8636 14.532 27.2173 15.6115 28.4694ZM18.6486 7.52894C18.7229 7.60434 18.8056 7.65 18.89 7.67795C18.6684 8.72595 18.4663 9.77683 18.2718 10.8284C17.4405 9.85152 16.4273 8.95799 15.4132 8.20177C15.6008 6.79349 15.7492 5.38705 15.8144 3.99109C16.6506 5.26391 17.6165 6.48825 18.6486 7.52894ZM9.1834 1.43638C9.19658 1.44781 9.20273 1.46352 9.21762 1.47319C9.97024 1.9622 10.8874 2.07173 11.7493 2.26346C12.7145 2.47828 13.6584 2.75652 14.603 3.04669C14.6668 3.066 14.7236 3.05905 14.7831 3.06022C13.0086 8.81906 12.5738 15.2278 11.5981 21.1286C10.4787 27.9022 9.20648 34.6721 8.26794 41.4739C8.25865 41.4715 8.25357 41.465 8.24362 41.4625C7.0236 41.149 5.75279 40.988 4.51208 40.7686C3.77634 40.6388 3.07544 40.3793 2.45859 40.7038C3.83939 33.8753 5.1397 27.0314 6.34193 20.1695C6.92587 16.8344 7.48551 13.4955 8.02309 10.1519C8.48464 7.2921 9.18857 4.34824 9.1834 1.43638ZM4.96979 45.8244C5.04597 45.6585 5.05957 45.459 4.94302 45.2537C4.20435 43.9488 3.22574 42.7408 2.29649 41.5516C2.7563 42.0815 3.50215 42.084 4.24692 42.2251C4.55823 42.2842 4.86962 42.3467 5.18142 42.4107C5.43318 43.2808 6.17536 44.0734 6.73222 44.771C7.05347 45.1741 7.39902 45.6302 7.77186 46.0511C6.83513 45.9575 5.89624 45.887 4.96979 45.8244ZM9.11313 46.2105C8.61489 45.4772 7.90677 44.8359 7.33271 44.1679C6.90803 43.6736 6.50445 43.0603 6.02296 42.5807C6.67429 42.7089 7.32704 42.8256 7.98161 42.8982C8.29735 42.933 8.52624 42.8013 8.66535 42.6102C8.6725 42.6129 8.68002 42.6136 8.68717 42.6163C9.02279 43.2178 9.40772 43.7964 9.7665 44.3814C10.2177 45.1179 10.6635 45.8722 11.1953 46.5547C10.5101 46.4106 9.81318 46.3039 9.11313 46.2105ZM12.2963 45.8343C11.8125 45.1015 11.2292 44.431 10.6659 43.7608C10.2816 43.3038 9.90883 42.826 9.51269 42.373C9.56036 42.2984 9.59954 42.2133 9.62018 42.1081C9.79431 41.2096 9.9484 40.3069 10.1111 39.4064C10.4757 39.9785 10.8371 40.5528 11.2105 41.1189C11.7212 41.8941 12.1841 42.798 12.8514 43.4457C12.8661 43.4602 12.8839 43.4655 12.8999 43.4767C12.7093 44.2638 12.5086 45.0498 12.2963 45.8343ZM10.9925 34.9122C11.5382 35.6597 12.0932 36.4014 12.622 37.1611C13.0624 37.7936 13.4231 38.4817 13.8463 39.1242C13.6339 40.1864 13.4128 41.247 13.1692 42.3049C12.778 41.73 12.2906 41.1992 11.8693 40.6639C11.337 39.9876 10.7911 39.3212 10.2484 38.6526C10.77 35.7184 11.247 32.774 11.7139 29.8284C11.974 30.5008 12.4645 31.148 12.835 31.699C13.4056 32.5456 14.0153 33.4284 14.7552 34.1387C14.5441 35.4135 14.3208 36.6868 14.0786 37.9574C13.7369 37.5943 13.3897 37.2343 13.0749 36.849C12.4885 36.1308 11.9258 35.3926 11.3557 34.6614C11.1819 34.4386 10.8232 34.6805 10.9925 34.9122Z" fill="#8396B4"/>
<path d="M74.667 33.8412C76.3273 30.0643 76.8045 25.8862 75.3254 21.5064C75.2871 21.3932 75.2278 21.3074 75.1583 21.2398C73.3331 16.1566 67.9839 12.8832 62.6627 13.1445C59.0488 13.3211 53.8797 15.5173 51.8576 19.044C50.9235 14.414 48.2335 10.0125 43.4258 8.68564C38.4998 7.32601 33.6526 10.3538 31.4543 14.741C25.9682 25.691 34.5539 42.3638 43.9698 48.498C44.4617 48.8185 44.8298 48.0625 44.4912 47.7013C37.8629 40.6173 31.8046 32.6337 31.6149 22.4333C31.5122 16.887 34.5904 9.97485 41.0725 10.0885C47.457 10.2002 49.9895 16.7104 50.5551 22.0567C50.6688 23.1279 52.2724 22.984 52.2205 21.9095C52.2167 21.8318 52.2073 21.7537 52.2028 21.6758C54.2878 17.1339 60.1354 14.2579 64.9697 15.0371C72.1428 16.1928 76.4252 23.7855 71.6166 29.8763C68.4462 33.8934 64.4294 37.9444 60.0632 40.6124C55.2631 43.546 49.7697 45.1621 44.9035 47.9594C44.1789 48.3759 44.648 49.4087 45.3562 49.439C49.7091 57.1397 61.3218 48.2001 65.7598 44.7074C69.2392 41.9687 72.3652 38.5517 74.274 34.6835C74.6398 34.8095 74.9849 34.3804 74.7776 34.003C74.7455 33.9471 74.7029 33.8956 74.667 33.8412ZM74.8062 28.1642C74.6613 29.7219 74.2691 31.2469 73.6926 32.7166C73.6315 32.652 73.5685 32.587 73.5117 32.5217C73.2423 32.2107 72.9736 31.8998 72.7041 31.5895C73.5468 30.501 74.2786 29.3589 74.8062 28.1642ZM46.3161 49.1593C47.1792 48.8514 48.0522 48.5266 48.9297 48.1852C49.3818 48.6928 49.9036 49.1458 50.3939 49.6111C50.7868 49.9836 51.178 50.3836 51.586 50.7603C49.7635 51.0724 47.9753 50.7375 46.3161 49.1593ZM53.0174 50.3967C52.4206 49.8223 51.7142 49.3314 51.0687 48.8259C50.6503 48.4987 50.2342 48.1546 49.8004 47.8392C50.8013 47.4385 51.8044 47.0139 52.8039 46.5671C53.2801 47.0451 53.7589 47.5208 54.2292 48.0047C54.643 48.4296 54.9946 48.932 55.4045 49.359C54.6127 49.7674 53.8145 50.1302 53.0174 50.3967ZM58.0537 47.868C57.4917 48.2004 56.9209 48.5347 56.3465 48.8552C55.8651 48.3443 55.2102 47.9551 54.6814 47.48C54.2492 47.0912 53.8225 46.6952 53.3948 46.3011C54.5698 45.7642 55.7362 45.1946 56.8811 44.5905C56.8678 44.7088 56.8984 44.8338 57.004 44.9399C57.7312 45.67 58.5348 46.385 59.2346 47.1628C58.841 47.3977 58.4469 47.6352 58.0537 47.868ZM60.0802 46.658C59.1935 45.9307 58.3826 45.077 57.5544 44.2992C57.5332 44.2786 57.51 44.2723 57.4884 44.258C59.0852 43.3922 60.6358 42.4569 62.1049 41.4476C62.6531 42.238 63.2303 43.0483 63.5813 43.9144C63.6507 44.0853 63.7595 44.1775 63.88 44.2169C62.6415 45.0705 61.3683 45.8788 60.0802 46.658ZM66.2965 42.4424C65.7348 42.8901 65.156 43.3181 64.5705 43.7365C64.5747 43.6116 64.5261 43.4784 64.392 43.3539C63.7046 42.7172 63.1503 41.8882 62.6036 41.0932C63.5448 40.4268 64.4496 39.7274 65.309 38.9953C65.836 39.879 66.5676 40.7599 67.3706 41.2921C67.4301 41.3315 67.4914 41.349 67.5517 41.3683C67.1414 41.7403 66.7247 42.1014 66.2965 42.4424ZM68.3956 40.5696C68.3572 40.4834 68.2997 40.3993 68.2032 40.3233C67.7441 39.9644 67.2573 39.6844 66.8326 39.2776C66.5372 38.9951 66.2769 38.6837 66.0233 38.3659C66.1232 38.2751 66.2267 38.1879 66.3255 38.0956C67.3034 37.1866 68.3901 36.2025 69.4671 35.1507C69.7699 35.5671 70.0851 35.9733 70.4297 36.3585C70.6723 36.6299 70.9184 36.9846 71.2024 37.2767C70.3638 38.4527 69.4179 39.5584 68.3956 40.5696ZM71.1868 35.7493C70.7928 35.3683 70.4376 34.9534 70.0958 34.5264C70.8256 33.7894 71.5393 33.0189 72.2007 32.2194C72.4316 32.5094 72.6619 32.7987 72.8922 33.088C73.0316 33.2635 73.1661 33.454 73.3021 33.6441C72.8905 34.5505 72.4136 35.4344 71.8723 36.283C71.6348 36.109 71.3868 35.9428 71.1868 35.7493Z" fill="#8396B4"/>
<path d="M123.285 29.0291C123.319 28.575 123.004 28.2798 122.655 28.1883C121.845 27.1092 120.987 26.0759 120.236 24.9465C119.672 24.0969 119.053 22.6661 118.137 22.0812C118.067 21.654 117.725 21.4455 117.35 21.4546C117.223 21.305 117.04 21.191 116.792 21.1449C115.526 20.9112 114.261 20.6755 112.99 20.47C111.851 20.2859 110.646 19.9703 109.507 20.2193C109.212 20.284 109.033 20.4783 108.984 20.6998C108.694 20.7418 108.447 20.9417 108.414 21.3341C107.971 26.7106 107.415 32.0758 106.72 37.4254C106.156 41.7632 105.78 48.888 100.212 49.4777C99.6807 49.5339 99.1983 49.5372 98.7581 49.4956C98.7632 49.4715 98.7758 49.4558 98.7786 49.4292C99.2431 44.8385 99.7459 40.2549 100.337 35.6784C100.841 31.7726 101.785 27.7507 101.73 23.796C102.036 23.6119 102.226 23.1996 101.98 22.8449C101.309 21.8815 100.519 21.0058 99.8565 20.0334C99.1977 19.0659 98.5879 18.0733 97.9658 17.0834C97.8372 16.8793 97.6168 16.8848 97.4596 16.9928C97.4428 16.9897 97.4297 16.9818 97.412 16.9799C95.1654 16.707 92.8323 16.6299 90.5698 16.4859C90.0757 16.4545 89.7212 17.1359 90.1863 17.4016C89.075 22.3855 88.3318 27.4445 87.5026 32.4807C86.7301 37.1726 85.5966 41.9477 85.3307 46.701C85.1743 49.4944 85.7698 51.7715 86.9459 53.573C89.3855 62.5787 100.258 66.2184 108.549 61.9707C120.689 55.7492 122.384 41.1792 123.285 29.0291ZM121.176 35.7048C120.676 35.2162 120.136 34.7563 119.668 34.2521C118.944 33.4741 118.284 32.6459 117.654 31.7919C117.76 30.7727 117.839 29.7555 117.91 28.7403C118.992 30.2755 120.198 31.7568 121.339 33.2347C121.363 33.2662 121.39 33.2905 121.416 33.3161C121.342 34.1106 121.267 34.9058 121.176 35.7048ZM118.929 25.8493C119.741 27.1427 120.657 28.4619 121.734 29.5532C121.689 30.1559 121.636 30.7703 121.587 31.3806C120.424 30.0168 119.252 28.6332 117.994 27.3798C118.047 26.4342 118.097 25.4888 118.123 24.5549C118.396 25.0339 118.699 25.4823 118.929 25.8493ZM97.7436 46.1886C97.6397 47.1853 97.5316 48.1819 97.4373 49.1789C95.1682 48.2631 94.5948 45.6034 94.6704 42.6445C95.0866 43.1699 95.5084 43.6914 95.937 44.2058C96.4886 44.8677 97.044 45.6566 97.7436 46.1886ZM97.9141 44.5211C97.5117 44.1781 97.0856 43.855 96.7124 43.5083C96.0119 42.856 95.3648 42.1579 94.7346 41.44C94.8771 39.584 95.2095 37.6878 95.4967 36.0881C95.7863 36.4708 96.0839 36.8474 96.3977 37.2117C96.997 37.9087 97.6108 38.6937 98.418 39.1497C98.4545 39.1702 98.4912 39.1748 98.5279 39.1864C98.3132 40.9632 98.1085 42.7419 97.9141 44.5211ZM98.7066 37.7245C98.2468 37.2744 97.7178 36.8798 97.2586 36.4376C96.7174 35.9164 96.2138 35.3599 95.7267 34.7896C95.7768 34.4933 95.8222 34.2149 95.8596 33.9572C96.052 32.6325 96.2582 31.3046 96.4624 29.9764C97.0926 31.2254 98.0709 32.4576 99.2091 32.9984C99.234 33.0099 99.2556 33.0097 99.2797 33.0183C99.1855 33.8293 99.0906 34.636 98.9868 35.4306C98.8866 36.1947 98.8027 36.9603 98.7066 37.7245ZM96.6948 28.4146C96.892 27.1129 97.0899 25.8113 97.2641 24.5068C97.5181 24.9053 97.7984 25.2898 98.0618 25.6747C98.5401 26.3731 99.0171 27.0825 99.558 27.7341C99.6764 27.8765 99.8226 27.9463 99.9679 27.9604C99.752 29.1893 99.5874 30.4338 99.4383 31.6735C98.9515 31.2192 98.4164 30.8165 97.9775 30.3051C97.4768 29.7212 97.0862 29.0715 96.6948 28.4146ZM101.003 23.7234C101.004 23.7243 101.005 23.7246 101.007 23.7261C100.685 24.6803 100.431 25.6618 100.219 26.6582C99.8186 26.1093 99.3911 25.5771 98.9622 25.0529C98.4749 24.4569 98.0036 23.7966 97.4184 23.2917C97.598 21.8472 97.7538 20.4005 97.864 18.9524C98.6124 20.7124 99.6859 22.441 101.003 23.7234ZM87.3483 50.4372C86.5673 47.239 87.4419 43.7606 87.9437 40.5749C89.1342 33.0146 90.5648 25.4434 91.3355 17.825C93.0593 18.3827 94.9636 18.7277 96.75 18.6929C95.1144 25.992 94.3283 33.5694 93.2566 40.962C92.5955 45.5229 93.5777 50.8163 99.2003 51.2031C103.596 51.5056 106.196 47.8937 107.243 44.0636C109.182 36.9673 109.401 29.0417 109.992 21.7327C110.826 22.0721 111.772 22.1973 112.641 22.3751C113.885 22.6297 115.132 22.8545 116.381 23.0803C116.296 31.1996 115.068 39.3404 112.374 47.0173C111.104 50.6385 109.305 54.1088 105.693 55.8311C102.774 57.2234 99.3232 57.398 96.1737 56.8654C92.3066 56.2105 88.3623 54.5889 87.3483 50.4372ZM89.4112 56.1221C90.7384 57.0863 92.3426 57.793 94.1484 58.263C94.7117 58.8721 95.2836 59.4725 95.8599 60.0674C96.4048 60.6294 96.9415 61.2629 97.5122 61.8464C94.3191 61.0253 91.4496 59.0763 89.4112 56.1221ZM99.5026 62.2071C98.7654 61.2503 97.7371 60.481 96.8463 59.6737C96.4502 59.3152 96.0536 58.9559 95.6554 58.5977C96.0246 58.6632 96.3992 58.7213 96.782 58.7692C97.9927 58.9213 99.1835 58.958 100.344 58.8906C100.356 58.906 100.362 58.9224 100.377 58.937C101.105 59.6173 101.836 60.2932 102.56 60.9776C102.91 61.3082 103.233 61.6873 103.567 62.0519C102.198 62.2936 100.832 62.3498 99.5026 62.2071ZM110.993 58.6573C110.544 59.0098 110.087 59.3324 109.626 59.6305C108.646 59.0173 107.736 58.2155 106.84 57.5177C106.5 57.2527 106.068 57.7478 106.402 58.0275C107.2 58.697 108.096 59.354 108.862 60.0975C107.555 60.851 106.21 61.4019 104.858 61.7626C104.337 61.3221 103.75 60.9461 103.231 60.5033C102.574 59.9429 101.924 59.3748 101.272 58.8091C104.818 58.4153 108.008 56.9524 110.393 54.3732C110.651 54.8167 110.928 55.2472 111.263 55.6425C111.714 56.1749 112.266 56.6126 112.726 57.1342C112.182 57.6635 111.607 58.1735 110.993 58.6573ZM113.548 56.2849C113.531 56.279 113.518 56.271 113.5 56.2663C112.407 55.9615 111.505 54.7877 110.893 53.8065C111.684 52.8515 112.373 51.7608 112.94 50.5302C113.001 50.3963 113.057 50.2586 113.118 50.1246C114.041 51.1676 115.077 52.148 115.856 53.2923C115.174 54.3407 114.413 55.3449 113.548 56.2849ZM116.502 52.2406C115.388 51.4564 114.42 50.4095 113.379 49.5275C114.073 47.9127 114.669 46.2404 115.189 44.5325C115.659 45.0302 116.129 45.5273 116.595 46.0277C117.206 46.6852 117.755 47.4937 118.476 48.0422C117.924 49.497 117.277 50.9045 116.502 52.2406ZM118.96 46.6764C118.437 46.1573 117.796 45.7136 117.274 45.237C116.673 44.6868 116.073 44.1361 115.472 43.5861C115.852 42.2518 116.175 40.894 116.463 39.5257C116.833 39.9932 117.214 40.4517 117.599 40.8991C118.24 41.6454 118.901 42.5225 119.708 43.0825C119.778 43.1307 119.852 43.1609 119.928 43.1824C119.65 44.3658 119.338 45.5361 118.96 46.6764ZM118.558 40.0367C117.936 39.4522 117.334 38.8464 116.718 38.2567C117.036 36.5856 117.292 34.899 117.497 33.2105C117.91 33.8318 118.34 34.4417 118.803 35.0297C119.445 35.8427 120.121 36.7558 120.967 37.3758C120.777 38.7955 120.551 40.2127 120.27 41.6121C119.736 41.0548 119.112 40.5575 118.558 40.0367Z" fill="#8396B4"/>
</svg>
