<svg width="128" height="95" viewBox="0 0 128 95" fill="none" xmlns="http://www.w3.org/2000/svg">
<path d="M98.5048 75.559L98.3718 75.8172C98.2685 75.7811 98.2284 75.722 98.5048 75.559Z" fill="#8396B4"/>
<path d="M97.9173 73.315L98.2529 72.7471C98.3324 73.2069 98.1594 73.3141 97.9173 73.315Z" fill="#8396B4"/>
<path d="M98.0223 71.6882L98.0017 71.6844C97.9569 71.4672 97.9258 71.3195 97.9106 71.2528C97.9263 71.3094 97.9581 71.44 98.0223 71.6882Z" fill="#8396B4"/>
<path d="M98.0477 71.9361L98.0383 71.8854C98.1012 71.8982 98.1216 71.9049 98.0477 71.9361Z" fill="#8396B4"/>
<path d="M98.4879 72.7288L98.8453 72.0787L99.0535 72.613C98.8913 72.6231 98.647 72.555 98.4879 72.7288Z" fill="#8396B4"/>
<path d="M98.7684 71.8831L99.006 71.7802L98.8453 72.0787L98.7684 71.8831Z" fill="#8396B4"/>
<path d="M97.4804 69.347C97.7156 69.0632 97.7052 68.7988 97.7106 68.4991C97.8688 68.7873 97.9767 69.1005 98.0124 69.4077C97.8263 69.4885 97.4992 69.6851 97.4804 69.347Z" fill="#8396B4"/>
<path d="M97.7959 70.4744L97.8244 70.4154C97.8816 70.4394 97.9 70.4632 97.7959 70.4744Z" fill="#8396B4"/>
<path d="M97.2979 65.6916L97.1966 65.7288L97.1809 65.6736C97.2169 65.6795 97.2606 65.6857 97.2979 65.6916Z" fill="#8396B4"/>
<path d="M98.1327 69.4403C98.2812 69.6549 98.1495 69.8241 97.9791 69.9903C98.017 69.804 98.032 69.6095 98.0111 69.4077C98.0981 69.3728 98.1544 69.358 98.1327 69.4403Z" fill="#8396B4"/>
<path d="M96.924 67.6955C97.0739 67.7882 97.2076 67.9002 97.3317 68.0219C97.1175 67.945 96.7742 67.7735 96.924 67.6955Z" fill="#8396B4"/>
<path d="M97.9969 64.9332C98.3341 65.0384 98.9345 65.9587 99.3551 65.3717C99.5082 64.5692 99.0452 64.8229 98.6857 64.5488C99.4404 64.6681 99.5218 63.3473 100.559 63.2207C100.557 63.2206 100.335 63.9713 100.335 63.9713C100.495 63.941 100.704 63.6345 100.884 63.7788C100.336 63.9756 99.938 64.7459 100.64 65.1498C100.323 65.8002 98.4124 65.8784 97.2982 65.6902C97.5385 65.6133 97.7649 65.5586 97.9969 64.9332Z" fill="#8396B4"/>
<path d="M97.1966 65.7288L97.4751 66.7871L97.5427 66.6925L97.5155 66.928C97.3701 66.7021 97.1129 66.5746 96.6137 66.3561C96.8227 65.929 97.0136 65.7997 97.1966 65.7288Z" fill="#8396B4"/>
<path d="M97.3748 68.0381L97.3746 68.0439L97.3812 68.0413C97.468 68.0695 97.5169 68.0745 97.4631 68.0334C97.4684 68.0293 97.469 68.015 97.4707 68.0079C97.5533 67.9843 97.6247 67.9501 97.6923 67.9129C97.5089 67.6394 97.5259 67.8999 97.4707 68.0079L97.3799 68.0412L97.3748 68.0381L97.5155 66.928C97.6413 67.1287 97.6756 67.41 97.6975 67.9131C98.2777 67.6144 98.4384 67.0202 99.1632 67.2027C99.2438 67.872 98.7367 67.7737 98.5438 68.2172C98.4994 67.1362 98.2595 68.5878 97.769 67.9062C97.7034 68.1329 97.7081 68.3197 97.7105 68.5006C97.6068 68.3281 97.4752 68.1688 97.3315 68.0233L97.3748 68.0381Z" fill="#8396B4"/>
<path d="M100.007 69.4882C100.199 69.9816 99.7888 69.9392 99.5511 70.045L99.7369 69.0875L100.328 69.4535L100.007 69.4882Z" fill="#8396B4"/>
<path d="M96.2377 65.9277L97.053 65.2002L96.8597 65.6508L96.2377 65.9277Z" fill="#8396B4"/>
<path d="M96.7284 64.513L96.1812 64.7085L96.4479 64.3271L96.7284 64.513Z" fill="#8396B4"/>
<path d="M64.7145 10.3452L64.6235 10.6482C64.6208 10.4458 64.6405 10.3204 64.7145 10.3452Z" fill="#8396B4"/>
<path d="M85.4461 39.7639C84.8053 39.8519 83.9204 40.1302 84.4428 39.704L84.9946 39.3437C85.0651 39.6237 85.2392 39.7275 85.4461 39.7639Z" fill="#8396B4"/>
<path d="M75.2483 22.8221C75.3129 22.7948 75.3841 22.765 75.4527 22.7364C75.3786 22.9799 75.3117 23.2051 75.2493 23.4162C75.2483 23.2325 75.2481 23.0316 75.2483 22.8221Z" fill="#8396B4"/>
<path d="M53.5931 4.64361L53.4858 3.87411C53.9518 4.0223 53.6496 4.3003 53.5931 4.64361Z" fill="#8396B4"/>
<path d="M93.498 53.4403C93.1669 53.2565 92.9516 53.0878 92.8369 52.9005C93.3215 53.0681 93.9404 53.0953 93.498 53.4403Z" fill="#8396B4"/>
<path d="M60.6566 16.4558C60.579 16.2773 60.5795 16.1195 60.645 15.9832C60.7332 16.1578 60.7547 16.3166 60.6566 16.4558Z" fill="#8396B4"/>
<path d="M92.4566 52.0716C92.5373 52.091 92.5889 52.1262 92.6603 52.1495C92.663 52.4122 92.683 52.6641 92.8383 52.9005C92.4775 52.7742 92.1965 52.571 92.4566 52.0716Z" fill="#8396B4"/>
<path d="M16.9144 2.21803C16.8896 2.25137 16.8603 2.26875 16.8379 2.30794C16.8252 2.21411 16.8605 2.20705 16.9144 2.21803Z" fill="#8396B4"/>
<path d="M6.66672 9.56464C6.77073 9.61369 6.94639 9.62284 7.11005 9.64008C7.03044 9.68393 6.89497 9.67367 6.66672 9.56464Z" fill="#8396B4"/>
<path d="M95.3392 60.2105C95.2822 60.2712 95.3714 60.4516 95.3392 60.2105V60.2105Z" fill="#8396B4"/>
<path d="M98.2956 60.3118C98.1553 60.3816 98.0721 60.4469 98.0267 60.5094C98.0804 60.4358 98.1573 60.3645 98.2956 60.3118Z" fill="#8396B4"/>
<path d="M94.8997 47.8242L94.8876 47.8065C95.0287 47.807 95.0014 47.8086 94.8997 47.8242Z" fill="#8396B4"/>
<path d="M95.7184 60.4539C95.62 60.395 95.5262 60.3192 95.4499 60.2283C95.5108 60.2582 95.5958 60.3251 95.7184 60.4539Z" fill="#8396B4"/>
<path d="M95.4206 60.5083C95.468 60.5792 95.5044 60.6339 95.541 60.6857C95.4515 60.7492 95.3791 60.7461 95.4206 60.5083Z" fill="#8396B4"/>
<path d="M95.2707 59.8847C95.3024 60.0181 95.3688 60.1272 95.4498 60.2283C95.3942 60.1986 95.3555 60.194 95.3393 60.2105C95.3241 60.1424 95.3051 60.0455 95.2707 59.8847Z" fill="#8396B4"/>
<path d="M36.3742 3.50376C36.3565 3.52307 36.3365 3.53653 36.3172 3.56437C36.0991 3.2549 36.2014 3.31107 36.3742 3.50376Z" fill="#8396B4"/>
<path d="M86.3258 29.9968C86.3278 30.0098 86.3206 30.0281 86.3226 30.0411L86.2816 30.0307L86.3258 29.9968Z" fill="#8396B4"/>
<path d="M86.0651 28.9465C85.7589 29.8456 85.9698 29.9353 86.2828 30.0308L84.7777 31.1972L86.0651 28.9465Z" fill="#8396B4"/>
<path d="M98.3721 50.1779C97.8858 50.4894 98.0144 51.3933 97.8598 52.0236C96.9975 52.2913 97.3076 51.038 97.4008 50.4194C96.3118 51.0129 95.5065 52.3994 95.3727 53.705C95.4157 54.6725 96.2359 53.7128 96.1342 53.935C96.9263 55.442 94.715 56.1526 95.9483 57.105C96.8424 57.3237 97.4046 56.5191 97.9672 56.4146C98.0274 55.575 97.1506 55.5236 96.9955 55.0476L97.5594 55.4727C97.7174 55.1467 97.717 54.5957 97.412 54.4374C98.2735 54.57 98.492 57.1408 99.4995 58.1938C99.3261 58.5176 99.1921 59.0039 98.8368 58.9265L98.8122 58.4849C98.0999 58.3432 98.2232 59.5438 97.7865 59.1415C97.5506 59.8256 97.038 60.6482 97.5576 61.2866L98.4453 61.1477C98.19 61.2125 97.815 60.8201 98.0199 60.5178C97.7184 60.9551 99.4646 61.3145 98.4341 62.0225L97.7099 61.6793C97.4159 62.3594 96.6685 63.2836 97.1016 63.855C96.1781 63.8058 97.1614 63.674 96.0528 63.5062C97.3849 63.536 95.5876 61.8658 97.0402 62.1018C95.7774 61.9947 96.3486 61.43 95.2255 61.1497C95.5086 61.0703 95.8172 61.1785 95.5409 60.6886C95.6145 60.6359 95.7002 60.5421 95.7493 60.4854C95.7355 60.4733 95.7306 60.4688 95.7169 60.4567L95.7588 60.4743C95.7928 60.4371 95.8021 60.4318 95.7741 60.4808C95.9401 60.5627 96.1124 60.6176 96.2787 60.6048C96.8507 60.1077 96.5465 59.2535 96.785 58.8335C96.5511 58.5606 96.5084 59.0897 96.159 59.0284L96.5128 58.4011C95.8841 58.5945 95.2284 57.9616 95.104 58.8486L94.8661 58.1924C94.3982 57.9394 94.1032 57.4644 94.2442 57.0244C93.9961 56.7796 94.6137 55.9516 94.2444 56.4318L94.2205 55.237L94.0676 55.2991C93.6061 54.3419 94.2589 52.6846 92.6587 52.1552C92.6535 51.7446 92.6731 51.2977 92.2568 50.8418L91.7113 51.0288C91.6972 50.4973 90.6385 50.0777 91.0404 49.5931C89.491 49.9985 89.7055 47.8284 89.0932 47.2678L89.6988 46.8022C89.3943 46.3383 89.273 45.7676 89.1545 44.9876L89.7157 44.6206C89.8322 43.7662 88.52 43.578 88.0652 42.7315C87.9057 42.9455 88.0823 43.1096 88.2951 43.1577C86.5023 43.1808 87.7765 40.4632 86.339 40.3283C86.3788 39.9527 86.207 39.8548 85.9768 39.8202C85.9888 39.8423 85.9915 39.8682 85.9863 39.8981C85.965 39.8814 85.9418 39.8503 85.9187 39.8162C85.7666 39.8024 85.6016 39.7851 85.4456 39.7696C85.6359 39.7407 85.7901 39.7374 85.8885 39.7676C85.7914 39.5911 85.6616 39.3027 85.6059 38.9516L84.9928 39.3494C84.9849 39.3232 84.9713 39.3097 84.9647 39.2822C84.5911 39.2399 85.0763 38.8638 85.5743 38.6102C85.5701 38.4105 85.5909 38.202 85.6529 37.9995C84.6493 38.6241 85.4578 37.1071 84.3496 37.7256C84.6678 37.1412 83.7667 36.2307 84.5805 35.1803C84.4551 35.2938 84.3457 35.2804 84.4368 35.4164C84.1281 35.2536 83.7975 35.1171 83.8592 34.6263L83.1159 35.1905L83.5114 33.7329C82.8258 33.8075 82.4819 33.9158 82.2722 34.7675C82.3441 33.1621 82.0006 33.8186 82.1556 32.326L81.7759 32.8057C81.5814 32.5475 81.7911 31.5452 81.3172 31.7826C80.0367 32.1381 78.8003 29.2815 76.7605 28.8289C78.1543 27.6906 75.6345 28.8497 76.461 27.7195C76.1158 27.9741 75.7802 27.9794 75.7623 28.4751C75.3473 27.4912 74.3249 28.013 74.5898 26.6386C74.247 26.8976 74.3486 27.2665 74.1202 27.3971C74.1244 27.2724 74.137 26.8971 73.9073 27.029C73.6814 27.1597 73.7846 27.4039 73.775 27.6531C73.1356 26.942 73.8744 25.861 74.581 24.8375C73.8645 24.9681 73.7436 24.7433 73.9753 23.8596C73.6051 24.0657 73.1468 24.212 73.4931 24.7294C73.2111 24.5477 71.6567 23.8294 72.2134 23.0044C71.9887 23.138 71.8285 22.7479 71.8301 22.5944C71.2401 22.1438 71.1613 22.1403 70.6488 21.607L70.8991 21.5965C71.3514 20.4355 70.5703 21.0052 70.1887 20.5278L70.1333 20.6402C68.5981 20.5455 69.895 19.9338 68.3183 19.9607L68.7728 19.3694C69.5199 17.9243 67.341 19.4557 67.0597 18.4619L67.497 18.263C67.4462 17.5032 65.45 19.4759 65.0148 19.451C64.8716 19.5265 65.0236 19.7212 65.075 19.877C63.7207 20.146 65.4409 18.946 64.8769 18.3172C64.4999 18.7052 64.388 19.6028 63.8943 19.4075C63.4821 19.6549 63.3908 17.048 62.3091 17.563C62.6271 17.2799 62.9475 16.9999 62.7665 16.5227C62.3511 16.0482 60.7858 17.1416 60.8668 15.7404C60.7562 15.8102 60.6877 15.8961 60.6422 15.9888C60.3964 15.4844 59.6145 14.8345 59.6511 14.0613C58.3056 16.308 57.6941 11.6049 56.8088 13.9264L55.6204 13.3059L55.572 13.5535C54.7352 13.3876 54.6454 12.7221 54.5452 12.0548C54.3098 12.1378 54.3743 12.4089 54.3507 12.5341C53.0371 12.5525 52.9984 12.3427 52.3274 10.8798L52.0041 11.6074C51.8474 11.0782 49.9681 12.2741 49.043 11.0239C49.0326 11.1152 49.0219 11.2697 49.0857 11.4074C47.9873 10.0362 45.4933 12.7288 45.5811 9.78839L44.8244 8.88993C46.0253 8.93123 44.8828 7.62122 45.4503 7.25731C45.0156 6.98568 44.1026 7.84665 44.6395 8.11991L44.7536 7.99721C44.6892 9.5225 43.2197 8.19811 43.0818 9.21509C40.8145 8.75243 38.4262 9.21711 36.3297 9.05179L36.6894 7.90824L35.9399 7.90687C35.719 8.16118 35.6017 8.7974 36.1274 8.79611C35.7939 9.43144 35.2995 8.16139 35.2991 7.90597C34.2337 8.2853 35.5936 9.30498 35.2726 9.30379L34.8574 9.17791L34.9627 9.0491C34.6549 8.54055 34.6566 8.03126 34.017 8.03185C33.6032 8.22888 33.7739 8.73284 33.6146 8.76458C33.6109 8.84907 33.5563 8.88255 33.3732 8.77694C33.3768 8.75414 32.4388 8.85926 32.4388 8.85926L32.847 7.93738C32.4464 7.47784 31.9557 7.97856 32.4288 6.93613C31.736 8.56006 28.8937 7.45515 28.48 8.03099C27.8739 7.38594 27.2818 7.42735 26.5581 7.54477C26.7301 7.34285 26.8057 6.29873 26.176 6.45758C26.486 8.59478 25.0652 7.43036 24.6234 9.02802C25.0286 7.96969 22.8144 8.91983 23.453 7.41117C22.9346 7.62801 23.4655 8.21523 23.0911 8.75119C21.7938 8.01836 20.3572 9.51059 18.758 9.37C18.7159 9.08979 18.9532 8.63963 18.5923 8.24928L17.844 9.72299C17.5251 9.61427 17.4649 8.12657 16.9539 9.15011C17.0189 8.90761 17.1191 8.54182 16.9049 8.46784C15.3866 9.25628 13.7717 9.09059 12.1659 9.04298C10.532 8.92669 8.94586 9.04926 7.27373 10.2743C7.7318 9.7492 7.43578 9.68024 7.1007 9.64542C7.32345 9.52607 7.11443 8.95012 7.16871 8.56941L5.77075 9.56545C5.57699 8.49515 4.31281 9.42244 4.24102 8.40485L4.65419 8.60668C4.17962 7.38629 5.60929 5.99275 5.59788 4.45553C6.14804 5.84138 7.23501 2.52443 8.15371 4.50903C8.37603 4.19309 7.97594 4.01765 8.09782 3.65999C8.33574 4.3147 8.63951 4.44285 9.20056 4.13749L9.13777 3.97545C10.7125 4.0834 11.3643 3.48072 13.1153 2.93495L13.0117 3.70236C13.3901 3.5755 13.4603 3.33322 13.6323 3.13129C14.1164 4.25166 12.5622 3.26505 13.0061 4.50704C13.4559 2.9327 15.7128 4.30747 15.9655 2.53506C16.5502 2.48758 15.8398 3.42202 16.4258 3.37317L16.5572 2.88679L16.7421 3.48318C17.126 3.34939 17.2886 2.741 17.2791 2.33882C17.1873 2.39505 17.0047 2.24929 16.9009 2.22464C17.3727 1.62265 18.3362 2.29346 18.4989 2.09686L17.9454 2.43698C19.5828 2.73995 21.5464 1.95243 23.2042 2.7915L23.1027 3.15722C24.354 3.72876 24.0483 2.67364 25.4119 2.90144L25.3585 2.82017C25.6464 3.1614 26.0121 3.32527 26.3785 3.26533C26.022 2.86369 26.9943 2.42001 26.5295 1.97917C27.8942 2.62456 27.2146 2.5043 28.1251 3.7912L28.3149 3.18542C28.6258 3.71132 28.6526 3.98512 29.3251 4.11799C28.7647 3.61412 29.7458 3.20669 29.116 2.54338C30.5609 1.24521 31.2368 3.86481 31.9285 1.97108C32.5461 3.6196 30.6667 2.87268 31.0291 3.22867C30.7195 3.76317 31.5498 4.46112 31.9931 4.29981C32.4406 4.28217 32.821 2.16528 33.9952 2.28289C33.8775 2.28059 33.8766 2.1557 33.7601 2.15345C34.2209 1.77338 34.5811 2.79648 35.1618 2.16341C35.3888 3.18352 35.8618 2.17121 35.8461 3.44179L34.8106 3.0548C35.3982 3.44077 35.8231 4.96746 36.8553 4.33988C36.8059 4.07944 36.546 3.71793 36.3608 3.51322C36.6841 3.16728 36.8903 3.8091 37.2282 3.4552C37.2684 2.18569 35.9689 3.06409 35.395 2.04021C35.7538 1.53513 36.5526 3.06679 36.3409 1.66856C36.6494 3.45702 37.5377 1.53749 38.1673 2.97274L38.2034 2.20955C38.3126 2.34636 38.5232 2.74016 38.7478 2.75434L38.4582 1.71569C38.9806 2.64118 39.7536 1.16567 40.3006 1.71056C39.0451 1.49898 39.9027 2.57551 39.3033 3.04706C40.7054 4.28382 40.4457 1.209 42.1389 1.83153C41.9198 1.69133 41.1927 2.15011 41.509 2.55428C41.8606 2.44921 42.339 2.22631 42.6011 1.86047C43.7297 2.1913 42.3081 2.60661 42.7285 3.1445C43.2565 2.29532 43.2336 3.58137 43.6807 3.98413L43.8085 3.22499C45.1935 3.02615 43.8857 4.88705 45.1469 4.55651L44.8407 3.39374L45.4027 3.80297L45.4316 2.91033C45.9846 3.70084 46.219 3.58201 46.9197 3.48654C46.6635 3.98465 46.7342 4.87881 47.2985 5.02988C47.7804 4.66939 47.2286 4.26346 48.0186 4.55358C47.9362 4.04203 47.8542 3.40421 47.3547 4.01647C47.3684 3.7631 47.2685 3.50331 47.2796 3.24983C47.812 2.83129 48.3784 3.3756 48.6742 3.4503C48.5537 3.45218 48.407 3.46152 48.315 3.55217C48.315 3.55217 48.5569 3.87991 48.7963 4.20753C49.0373 4.52662 49.2662 4.88678 49.2662 4.88678C49.5143 4.66093 49.4201 4.3899 49.3257 4.12174C49.5453 4.27919 49.6302 4.67462 49.962 4.84416C50.0171 4.20808 50.1882 3.58571 49.7531 3.14474L50.7218 4.16876C50.8593 3.92658 51.4799 3.62096 51.3894 3.35297C52.1162 3.19408 52.6219 5.00413 53.5724 4.79193C53.5835 4.92156 53.637 5.06022 53.7888 5.20033C54.6035 5.27918 55.5051 4.8539 56.1513 6.02875L57.0109 5.17548C57.6389 5.70384 55.8796 6.23204 56.9157 7.10548C57.6228 7.77794 57.5311 6.33045 57.9271 6.15702C58.1641 6.86047 58.4772 8.22156 59.5509 7.68046C59.3724 7.38134 59.1168 7.45476 58.9121 7.28076L59.7091 6.93842C59.3597 5.6977 58.7099 5.81263 59.5682 5.22475C59.2377 6.26341 59.8015 6.5149 60.3359 6.84544C60.8702 7.17885 61.4043 7.51512 61.0374 8.52778L61.5795 8.30193C61.4645 8.26531 61.4959 8.14043 61.3836 8.10535C62.5041 7.52901 61.3278 9.81469 62.3565 10.0048C62.7417 10.0189 63.0909 9.85057 62.9766 9.50405L63.4751 10.3567C63.6999 10.4254 63.804 10.0613 63.5804 9.9926L64.5959 10.7173L64.6168 10.6551C64.6214 11.0514 64.7326 11.732 64.797 12.0333C65.1941 11.9245 64.7656 11.7464 64.9478 11.5492L65.292 12.3765C65.7747 12.029 65.5372 11.2466 65.1012 11.0638C66.5852 9.49475 65.3386 11.8477 67.0727 11.4805L66.6442 10.8906C67.5515 10.0409 67.7889 10.7084 68.7803 10.4493C68.433 10.6937 66.6303 11.3247 67.0191 12.1999C67.2702 12.1707 67.5424 12.253 67.6755 12.8457C68.0388 12.1816 68.2837 12.5582 68.6756 12.861L69.137 11.9672C69.4522 12.512 69.1619 12.9311 69.202 13.491C69.7456 13.7316 70.2197 13.1656 70.6681 12.6831C71.5168 13.1394 69.51 13.3467 70.3152 14.2028C71.1407 14.3597 71.3794 15.0575 71.8007 16.1349C72.4251 16.1839 72.055 15.5621 72.367 15.4438L72.3232 16.4118C72.4281 16.4695 72.5313 16.2416 72.583 16.1262C72.7392 16.6367 72.0639 16.9801 72.4213 17.5956C71.9383 18.6003 74.3797 17.0747 74.2374 18.6626C74.5445 18.567 74.5196 18.1039 74.7854 17.83C75.1209 19.2395 75.1361 18.9532 75.1431 20.4428L76.0897 20.4385C75.2322 20.6534 75.233 21.8429 75.2402 22.829C74.8801 22.981 74.5684 23.1208 74.3969 23.1635L74.782 24.2394C74.9667 24.1901 75.1044 23.8575 75.2413 23.423C75.2391 23.532 75.2356 23.6394 75.2264 23.7309C75.7039 23.6787 75.9244 23.1087 76.0767 22.4998C75.8713 22.5783 75.6579 22.6622 75.4459 22.7433C75.6346 22.103 75.868 21.4174 76.257 20.9911C76.2354 21.1279 76.2671 21.29 76.3337 21.4264C76.3866 21.2522 76.4446 21.1099 76.5275 21.0518C76.6142 20.9925 76.5595 21.2369 76.5238 21.5481L77.3644 20.8317L77.1378 21.2149L78.5217 21.5713C78.4953 23.0839 78.0474 24.9109 78.7992 26.274C79.05 25.3983 79.5752 25.2019 80.1663 24.4487C79.2404 24.9533 79.6227 23.3243 78.9491 22.9503C79.2993 23.1437 79.5233 22.7288 79.5486 22.5362L79.943 24.1979C80.4145 23.5715 80.5185 23.9448 80.9769 23.9434C79.8047 24.958 81.0581 25.4249 81.1324 26.2087C81.4851 25.8425 81.7397 25.3214 81.1763 24.9437C82.4508 24.5778 80.6922 27.0345 81.8323 26.8077C81.7254 26.6781 81.6143 26.6733 81.7379 26.4233C81.7076 27.0547 82.597 27.4669 82.7356 26.965L82.6285 26.8369C83.5175 27.4959 84.9572 29.291 84.1617 30.3953C84.2833 30.2787 85.1288 29.1263 85.2613 28.8811C85.2613 28.8811 84.8418 30.0607 84.4223 31.2404C83.9892 32.4037 83.5563 33.5655 83.5563 33.5655C84.2113 32.6229 86.4872 31.212 86.3143 30.0494C86.5992 30.1351 86.9448 30.255 87.0392 30.9651C86.8085 30.9406 85.6256 31.7854 85.7152 32.0462C87.0214 31.6645 86.4833 31.9193 87.7725 31.8052C87.4313 31.7629 86.3993 33.2399 86.6957 33.5371C86.8394 33.3009 87.9378 32.3462 87.967 32.0935L87.4121 34.1453C87.4696 33.7203 88.419 33.0905 88.9174 32.946C88.6081 33.0902 89.5188 33.6654 89.5748 34.0123L89.0052 33.9227C89.9412 34.7185 88.0064 36.4988 88.7635 37.3901C88.9433 37.0393 90.1623 35.6379 90.6795 36.005C90.1991 36.8319 88.2481 39.8081 88.3072 41.0562L88.7997 40.8956L88.8101 41.8976C89.5534 40.6848 90.854 37.7503 91.1953 36.3764C91.7571 36.4958 91.7126 36.0935 92.0772 36.6949C92.5723 36.5947 92.3935 35.9197 92.2944 35.7302L93.4659 36.8822C92.6474 37.4776 93.3974 38.558 92.7056 39.0398L92.5073 36.9233C91.6932 37.5375 90.897 39.5988 91.6367 40.4148C92.1031 40.4066 92.9308 39.1014 93.2034 38.9067C93.0133 39.2557 93.2582 40.2522 93.5083 40.1886L93.6772 39.4384C94.3182 39.7593 93.1669 41.1507 94.3368 41.2193C94.5268 41.4041 95.8025 41.1288 95.3463 41.522C94.1859 41.8254 91.2871 43.8918 90.7327 44.6337C90.8432 44.6529 92.31 45.0962 92.8999 45.0475C93.8419 44.9109 94.3526 43.2474 95.1581 43.1236C94.942 43.2977 94.7778 43.7052 94.7337 43.8553C95.0602 43.9658 95.3797 43.2668 95.5678 43.8748C94.7735 44.5401 96.2213 44.9136 94.9917 44.6128C95.0278 45.2931 95.462 45.0467 95.7524 45.6851C95.1002 45.8544 94.1657 47.4405 94.1838 48.0884C94.3879 47.9223 94.7339 47.8572 94.8942 47.8312C95.4693 48.8566 96.1323 49.2071 96.6058 50.2165C96.8632 50.1905 97.3501 50.5434 97.6364 50.1255C97.5472 50.3583 97.3076 50.6563 97.4305 50.9817C98.4845 51.183 97.2316 50.2038 98.3721 50.1779ZM95.089 57.5106L95.1149 57.4802C94.7446 57.2157 94.8857 57.3037 95.089 57.5106ZM33.5525 8.4677L33.7084 8.27943C33.392 8.02591 33.4747 8.23614 33.5525 8.4677ZM67.0038 12.1949C66.9236 11.9575 66.8388 11.3224 66.5203 11.6485C66.2989 12.5327 66.6234 12.2485 67.0038 12.1949ZM76.6064 22.3481C76.6938 22.5112 76.8495 22.6199 77.1256 22.6134C77.1781 22.3316 76.951 22.2843 76.6064 22.3481Z" fill="#8396B4"/>
<path d="M76.5658 20.7148C76.4529 20.7802 76.3579 20.8793 76.264 20.9828C76.2886 20.8361 76.374 20.7179 76.5658 20.7148Z" fill="#8396B4"/>
<path d="M53.613 4.78508C53.6013 4.78743 53.5937 4.7828 53.5819 4.78516C53.5802 4.7363 53.5849 4.68914 53.5934 4.64217L53.613 4.78508Z" fill="#8396B4"/>
<path d="M95.6344 43.2119C95.4628 43.1097 95.3068 43.0957 95.1622 43.1151C95.3017 43.005 95.4628 42.992 95.6344 43.2119Z" fill="#8396B4"/>
<path d="M96.0459 62.5144C95.8862 62.5533 95.6361 62.5294 95.6615 62.6883L95.7131 62.1339C95.7408 62.3876 95.9074 62.4251 96.0459 62.5144Z" fill="#8396B4"/>
<path d="M100.464 66.409C100.422 66.0657 100.634 65.7679 100.833 66.088C100.764 66.1869 100.857 66.2598 100.786 66.3572L100.464 66.409Z" fill="#8396B4"/>
<path d="M98.0147 62.4632C98.5915 62.3307 98.4811 62.7204 98.4676 63.1158C98.4648 63.0928 98.4644 63.0712 98.4511 63.0506C97.6852 63.3914 97.8505 62.9295 98.0147 62.4632Z" fill="#8396B4"/>
<path d="M98.5403 63.5495C98.2315 63.6823 98.4394 63.4303 98.4699 63.2078C98.4724 63.327 98.4866 63.4453 98.5403 63.5495Z" fill="#8396B4"/>
<path d="M95.5596 59.2947C95.7541 59.4037 94.8803 59.6681 95.1363 59.675C94.4872 60.13 95.648 58.2555 95.5596 59.2947Z" fill="#8396B4"/>
<path d="M99.958 62.197L99.2245 62.2739L99.737 61.8932L99.958 62.197Z" fill="#8396B4"/>
<path d="M98.6993 59.4083L99.0517 59.9332C98.9338 59.9639 98.8841 60.0636 98.856 60.1743C98.7449 59.815 98.4974 59.4655 98.6993 59.4083Z" fill="#8396B4"/>
<path d="M98.8589 60.6924C98.8389 60.5867 98.8088 60.3573 98.8557 60.1742C98.9161 60.362 98.9454 60.5498 98.8589 60.6924Z" fill="#8396B4"/>
<path d="M99.9632 61.3062L99.7722 61.1759L99.6167 60.7673L99.9632 61.3062Z" fill="#8396B4"/>
<path d="M96.4409 53.2655L96.3894 52.5501C96.5915 52.371 96.7968 52.4719 96.7963 52.7488C96.6942 52.9796 96.6965 53.2523 96.4409 53.2655Z" fill="#8396B4"/>
<path d="M98.3859 54.2535L99.2087 53.8535L99.0039 54.3022C98.7976 54.1941 98.6436 54.2505 98.3859 54.2535Z" fill="#8396B4"/>
<path d="M98.4762 52.3405C98.6794 52.1658 98.7662 51.0734 99.0318 51.923C98.8323 52.1036 98.8918 52.8395 98.4762 52.3405Z" fill="#8396B4"/>
<path d="M93.0387 43.7708L93.1162 43.9206L91.8636 44.791L93.0387 43.7708Z" fill="#8396B4"/>
<path d="M90.8808 33.9592C91.6481 34.353 90.3037 34.7488 91.0773 35.0267C90.9214 35.4216 90.4465 34.7981 90.3266 35.1702C90.3146 34.5297 89.996 34.4741 90.8808 33.9592Z" fill="#8396B4"/>
<path d="M90.3266 35.1717C90.3298 35.2751 90.3275 35.3855 90.3032 35.5265C90.2917 35.3466 90.3038 35.2481 90.3266 35.1717Z" fill="#8396B4"/>
<path d="M4.81321 10.3541L4.2932 10.6685L4.65049 10.1389L4.81321 10.3541Z" fill="#8396B4"/>
<path d="M3.95179 9.09949L3.75627 10.1312L3.53403 9.17871C3.64307 9.23085 3.84972 9.33032 3.95179 9.09949Z" fill="#8396B4"/>
<path d="M69.1778 11.1569L69.0923 11.3928C68.8976 11.5822 68.7871 11.5329 68.5621 11.4398L69.1778 11.1569Z" fill="#8396B4"/>
<path d="M62.9305 8.31968L62.368 9.06977L62.8168 8.28456L62.9305 8.31968Z" fill="#8396B4"/>
<path d="M57.9498 4.7246C58.1832 4.77646 58.3744 5.08043 58.6103 5.13241C58.1819 4.77496 57.5142 5.79881 57.9498 4.7246Z" fill="#8396B4"/>
<path d="M112.986 65.612C113.015 65.6506 113.031 65.6743 113.053 65.7039C113.03 65.7273 113.009 65.7666 112.992 65.8491C112.684 65.5615 112.615 65.7865 112.986 65.612Z" fill="#8396B4"/>
<path d="M113.052 65.7039C113.159 65.5838 113.277 65.9965 113.052 65.7039V65.7039Z" fill="#8396B4"/>
<path d="M111.857 67.0489C111.94 67.209 111.976 67.4243 112.24 67.6311C112.051 67.508 111.791 67.2125 111.567 67.0262L111.857 67.0489Z" fill="#8396B4"/>
<path d="M111.567 67.0261L111.135 66.9914C111.206 66.7893 111.376 66.8671 111.567 67.0261Z" fill="#8396B4"/>
<path d="M111.8 68.4052L112.287 68.606L111.53 68.3331L111.8 68.4052Z" fill="#8396B4"/>
<path d="M111.422 68.8507C111.819 69.0303 111.943 69.4001 112.209 69.475C112.067 69.5605 111.7 69.4511 111.369 69.3519C111.585 69.3543 111.615 69.2121 111.422 68.8507Z" fill="#8396B4"/>
<path d="M111.369 69.352C111.255 69.3498 111.104 69.3202 110.874 69.2312C110.989 69.2391 111.173 69.2946 111.369 69.352Z" fill="#8396B4"/>
<path d="M111.02 67.3952C111.12 67.4929 111.389 67.7358 111.441 67.9375L110.979 67.4795L111.02 67.3952Z" fill="#8396B4"/>
<path d="M110.967 67.4646L110.98 67.4796C110.944 67.5741 110.919 67.6405 110.907 67.6701C110.912 67.643 110.932 67.5822 110.967 67.4646Z" fill="#8396B4"/>
<path d="M111.03 67.3741L111.02 67.3953C110.974 67.3502 110.959 67.3337 111.03 67.3741Z" fill="#8396B4"/>
<path d="M110.215 68.1448C110.386 68.2484 110.705 68.4116 110.608 68.5236C110.332 68.4469 110.255 68.5296 110.152 68.6126C110.123 68.4219 110.143 68.2592 110.215 68.1448Z" fill="#8396B4"/>
<path d="M110.734 67.9795L110.694 67.9778C110.657 67.9331 110.652 67.9128 110.734 67.9795Z" fill="#8396B4"/>
<path d="M110.131 68.055C110.087 67.8923 110.244 67.9337 110.432 67.9993C110.341 68.0283 110.264 68.0737 110.216 68.1448C110.137 68.0983 110.088 68.0631 110.131 68.055Z" fill="#8396B4"/>
<path d="M110.815 68.1137L110.846 68.1165C110.937 68.2281 110.888 68.1844 110.815 68.1137Z" fill="#8396B4"/>
<path d="M110.815 68.1137C110.713 68.1035 110.565 68.0468 110.43 67.9992C110.505 67.9753 110.59 67.9646 110.693 67.9777C110.726 68.0122 110.773 68.0659 110.815 68.1137Z" fill="#8396B4"/>
<path d="M97.2357 73.0927C97.3185 72.8869 97.3844 72.7434 97.3962 72.7411L97.2357 73.0927Z" fill="#8396B4"/>
<path d="M102.537 87.3141C102.72 88.8746 103.008 91.3509 102.709 89.7795L102.434 88.1862C102.55 88.1698 102.566 87.7903 102.537 87.3141Z" fill="#8396B4"/>
<path d="M96.8593 69.9597L97.3685 69.5086C97.4606 69.7106 97.1324 69.7852 96.8593 69.9597Z" fill="#8396B4"/>
<path d="M93.3666 79.6205C93.3428 79.8376 93.2929 80.0306 93.1889 80.1867C93.217 79.9598 93.2782 79.7759 93.3666 79.6205Z" fill="#8396B4"/>
<path d="M106.879 75.0361C107.041 75.3244 107.169 75.4276 106.666 75.4572C106.632 75.3811 106.623 75.3261 106.596 75.2575C106.749 75.1868 106.854 75.1741 106.879 75.0361Z" fill="#8396B4"/>
<path d="M87.5289 55.3188C87.5 55.3276 87.4806 55.3267 87.4489 55.3426C87.5114 55.275 87.5238 55.287 87.5289 55.3188Z" fill="#8396B4"/>
<path d="M79.883 56.8452C79.8854 56.9099 79.9336 56.9608 79.974 57.0142C79.9229 57.0278 79.8885 56.9861 79.883 56.8452Z" fill="#8396B4"/>
<path d="M108.702 72.07C108.698 72.0224 108.696 71.9879 108.695 71.9549C108.789 72.0063 108.838 72.0559 108.702 72.07Z" fill="#8396B4"/>
<path d="M98.4472 90.9711C98.4079 91.8662 98.4974 92.51 98.4645 93.0223C98.4424 92.7602 98.3805 91.9884 98.3427 92.4946C98.3078 92.9953 98.3761 93.3857 98.4229 93.9115C98.1045 93.0538 98.1464 90.1285 98.1961 87.4059C98.0663 88.2683 97.9947 88.1303 97.9682 86.9052L97.8862 86.916C97.8387 87.4075 97.8144 87.8727 97.913 88.3104C97.8296 88.2637 97.2821 88.2898 97.4191 86.3215C97.3656 86.685 97.3098 86.3626 97.292 86.0892L96.9338 86.316L97.2903 86.0705C97.2873 86.0215 97.2867 85.9756 97.2859 85.934C97.2325 85.8541 97.1919 85.8064 97.1574 85.7647C97.1135 85.7915 97.0752 85.8099 97.0285 85.8409C97.0672 85.8139 97.11 85.7842 97.1501 85.7558C97.097 85.6961 97.0568 85.6398 97.0094 85.5402C96.8655 85.6027 96.6929 85.6697 96.57 85.7562L96.9287 85.4605L96.9799 85.4743C96.9765 85.4627 96.9696 85.4423 96.965 85.4292L96.9287 85.4605L96.8673 85.4435L96.9562 85.3958C96.9331 85.3316 96.9123 85.2747 96.8843 85.1759L96.97 84.9917C96.9855 84.7872 96.9953 84.6227 97.0045 84.4724C96.931 84.5237 96.8641 84.5739 96.81 84.626C96.8664 84.3444 96.5192 84.85 96.1378 84.8676C96.0575 84.9588 96.0436 85.0098 96.0337 85.0568C95.951 85.0546 95.8509 85.0645 95.7334 85.0866L95.7702 85.0724L95.7689 85.0738L95.7768 85.0699C95.8519 85.0402 95.8954 85.022 95.8523 85.0316C95.8576 85.0289 95.8591 85.0247 95.8618 85.022C95.9375 84.9779 96.0053 84.9379 96.0715 84.9035C95.9304 84.9044 95.921 84.97 95.8618 85.022L95.7768 85.0699L95.7702 85.0724L95.9935 84.7049C96.0944 84.7079 96.1007 84.7699 96.0743 84.9007C96.4732 84.66 96.6887 84.4714 97.0179 84.2865C97.0259 84.1333 97.0296 84.0187 97.0298 83.9268C96.6224 84.1227 96.2193 84.3102 95.8974 84.4481C96.0925 84.3391 96.2829 84.2197 96.498 84.0082C96.3941 83.8673 96.575 83.0818 96.1231 83.7593L96.166 83.5502C95.9067 83.7943 95.711 84.0052 95.8912 84.0002C95.0808 84.3807 95.9661 83.916 95.0113 84.3418C96.1883 83.7794 94.8011 84.0283 96.0579 83.4752C95.1275 83.9078 95.3798 83.6764 94.9107 83.8323C94.813 84.0245 94.7351 84.146 94.6916 84.1354C94.6066 84.2709 94.6462 84.5495 94.6448 84.7877C94.2384 85.1084 94.394 84.6016 94.5844 83.9528C94.5765 83.9553 94.5739 83.9566 94.5673 83.9592C94.5726 83.9566 94.5791 83.954 94.5858 83.95C94.6297 83.8056 94.6671 83.6609 94.7087 83.5092C94.4607 83.6748 94.5599 83.5658 94.7336 83.4141C94.757 83.3248 94.7748 83.2423 94.7942 83.1556L94.7501 83.0977C94.7043 83.1101 94.6704 83.1158 94.6298 83.1255C94.4491 83.7316 94.2838 84.3715 94.1273 84.1896C93.9909 84.3773 94.0458 83.5102 94.0716 82.748C94.0807 82.4528 94.085 82.1775 94.0697 81.9659C93.8504 82.0352 93.7301 82.0342 94.0386 81.7608C93.9925 81.5722 93.902 81.5108 93.7276 81.6782C93.7524 81.6434 93.7698 81.6026 93.7947 81.565L93.6991 81.621C93.8181 81.4153 93.0646 81.652 93.5483 81.2801C92.1857 82.0309 93.0154 81.0041 92.6938 80.9871L93.3222 80.5627C93.244 80.4861 93.3231 80.3074 93.439 80.0843C93.4233 79.9416 93.4536 79.7234 93.5842 79.3446C93.4994 79.4184 93.4306 79.5115 93.3703 79.615C93.3782 79.5551 93.3761 79.4832 93.3803 79.4174C92.2616 79.8633 94.0817 78.276 93.0869 78.6699C93.2585 78.478 93.1688 78.487 93.0096 78.5431C93.0107 78.5489 93.0024 78.5614 92.9875 78.5765C92.9772 78.5747 92.971 78.5687 92.9662 78.5598C92.8583 78.5996 92.7331 78.6486 92.6317 78.6886C92.7785 78.6176 92.9013 78.5642 92.9629 78.5468C92.9508 78.4975 92.9828 78.3884 93.0881 78.2309L92.4809 78.6146C92.4853 78.6033 92.4827 78.6017 92.4884 78.5905C92.2372 78.6799 92.7425 78.3462 93.2065 78.0696C93.2872 77.9713 93.3891 77.8624 93.5188 77.7404C93.1873 77.9483 93.1127 77.9651 93.1104 77.9305C93.0251 77.9569 92.9666 77.9314 92.9295 77.8623C92.8659 77.8968 92.7982 77.934 92.6945 77.9969C92.7872 77.9192 92.8484 77.853 92.8992 77.7864C92.8573 77.621 92.8702 77.3561 92.8969 77.1019C92.8973 77.0933 92.8989 77.0861 92.8992 77.079L92.8939 77.0831L92.8993 77.0761C92.9126 76.9519 92.9242 76.8347 92.9315 76.7275C92.8003 76.8264 92.6605 76.9422 92.4957 77.0986C92.7747 76.7894 92.8778 76.6534 92.9387 76.5642C92.9429 76.2315 92.8267 76.1374 92.2473 76.7706L91.9758 75.8504L91.8069 76.0395C91.6523 75.8462 91.6463 75.6292 91.7027 75.4065C91.6507 75.4113 91.607 75.4051 91.5441 75.421C91.6147 75.3753 91.6681 75.3404 91.7214 75.304C91.7435 75.2447 91.7798 75.1846 91.8096 75.1242C91.5937 75.2051 91.3928 75.2709 91.8974 74.8942C91.5485 75.1142 91.3287 75.1978 91.0746 75.4693C91.2891 75.0382 90.3738 75.5676 91.2196 74.7625C90.8719 74.9854 90.7555 75.1611 90.5441 75.2867C90.608 75.2163 90.7995 75.0124 90.5869 75.1379C90.3769 75.2621 90.3243 75.3688 90.1965 75.5067C90.1536 75.3355 90.6757 74.885 91.3273 74.3755C91.263 74.2464 91.2633 74.0929 91.3214 73.919C91.1518 73.8599 90.9818 73.7233 91.536 73.3071C91.3792 73.3992 91.3916 73.3237 91.4404 73.2441L91.1639 73.3783C91.4777 73.0434 89.8023 73.1951 90.3059 72.253C90.2364 72.3016 90.1176 72.3839 90.0462 72.4769C90.1163 72.325 90.1056 72.214 90.0564 72.1258C89.6565 72.3579 89.2926 72.5672 89.2157 72.5781C89.0965 72.6403 89.0611 72.7378 88.9965 72.8225C88.1254 73.1429 89.7347 72.2279 89.8063 71.9254C89.3812 72.1994 88.7942 72.7433 88.6492 72.6852C88.286 72.8759 89.7703 71.3599 88.8931 71.7891C88.9755 71.7397 89.0463 71.6897 89.1261 71.6415C89.0018 71.5543 88.9565 71.4375 89.0853 71.2452C88.9331 71.2629 88.9051 71.1927 89.2857 70.8379C89.1903 70.8882 89.1037 70.9446 89.0273 71.003C89.225 70.7175 89.2644 70.3806 89.765 69.9191C87.7296 71.3391 90.3742 68.6057 88.547 70.0019L88.4683 69.6412L88.2857 69.791C88.0528 69.7004 88.4496 69.3017 88.8478 68.9017C88.6992 68.954 88.5458 69.1165 88.4531 69.1928C87.9877 69.2068 88.0076 69.1087 88.5246 68.48C88.4997 68.4573 88.4786 68.4349 88.4537 68.4123L88.1462 68.6341C88.4519 68.3075 86.9795 68.9645 87.5049 68.1726C87.4391 68.2271 87.3289 68.3198 87.2591 68.4057C87.7668 67.5757 85.1873 68.9732 87.2628 67.2006L87.6713 66.5972C87.7707 66.6332 87.895 66.5726 88.0316 66.4696L87.9911 66.419C87.7396 66.4855 87.2311 66.8046 87.3833 66.9935C86.9849 67.1625 87.2582 66.7756 87.5225 66.4773C87.4173 66.4555 87.3704 66.3731 87.1621 66.4888C86.9504 66.7406 86.8115 67.0416 86.7613 66.9777L86.7335 66.7555L86.8592 66.7223C86.8787 66.693 86.9016 66.671 86.9223 66.6432C86.6619 66.1167 85.7504 66.1182 85.414 65.7003L86.3142 65.0726L86.1617 64.9497C85.9326 65.0659 85.4481 65.4263 85.5556 65.5128C85.0273 65.8397 85.845 64.9975 86.0316 64.8464C85.5373 64.8993 85.0775 65.7285 85.0137 65.6769L85.0187 65.5337L85.1327 65.4741C85.4382 65.1202 85.8101 64.8195 85.6788 64.7132C85.45 64.7635 85.1172 65.0903 85.0632 65.0822C85.0001 65.1325 84.9647 65.1424 85.0037 65.0509L84.8028 64.9086L85.5364 64.4487C85.8066 64.1033 85.4134 64.2711 86.151 63.8085C86.1484 63.807 86.1472 63.8055 86.146 63.8026C84.956 64.515 85.2929 63.3604 84.8786 63.5661C85.2938 63.0448 85.2057 62.929 85.0485 62.8245C85.1159 62.7931 85.2854 62.6771 85.4503 62.5481C85.4042 62.5374 85.3581 62.5239 85.3095 62.5117C84.4287 63.1703 84.8147 62.5173 83.7705 63.2103C84.5558 62.7225 83.7924 62.6832 84.7808 62.0509C84.7799 62.0422 84.7803 62.0336 84.7794 62.0236C84.5629 62.1188 84.2273 62.4785 83.8607 62.6618C84.3027 61.9122 83.0926 62.4043 83.0894 61.9177C83.2843 61.7541 83.6088 61.5589 83.8676 61.2675C83.8625 61.2658 83.8574 61.2627 83.8523 61.2611L82.7631 61.8904C82.8225 61.7453 83.9186 60.8723 83.1255 61.3324C83.2202 61.2692 83.3402 61.1898 83.4394 61.1123C83.2895 61.0484 83.1679 60.9555 83.0883 60.8229C82.9746 60.7303 82.9174 60.5886 82.8749 60.4361L82.6 60.5933C82.6041 60.5304 82.7087 60.3872 82.8254 60.2359C82.7131 59.7876 82.5551 59.3761 81.2988 59.8589C81.7559 59.6222 81.7572 59.5318 81.7295 59.456C81.8331 59.4261 82.1234 59.1548 82.3827 58.938C82.3765 58.932 82.3664 58.9273 82.3615 58.9199C82.3541 58.9109 82.3481 58.9006 82.3394 58.8931L81.5705 59.185C82.2287 58.584 81.6153 58.7852 81.9753 58.3993C81.9087 58.2945 81.8435 58.1883 81.7742 58.0848C81.3927 57.5156 80.8948 57.0317 79.6626 57.5271C80.1151 57.2457 80.0675 57.1231 79.9844 57.0089C80.1244 56.9763 80.4048 56.4879 80.6485 56.216L79.625 56.6143C80.1853 55.7379 79.2577 56.1347 79.8115 55.3182L79.8295 55.5859C80.3629 54.4959 81.6311 53.7998 82.5222 52.6136C81.905 53.842 84.2693 51.6544 83.4253 53.4511C83.6911 53.2935 83.6643 53.0196 83.9214 52.7971C83.6048 53.3729 83.6204 53.5773 83.9916 53.5549L84.0716 53.4135C84.5033 54.0781 85.1339 53.8404 86.0232 54.1679L85.489 54.6566C85.683 54.7197 85.8639 54.5799 86.047 54.509C85.4481 55.4699 85.642 54.1798 84.9583 55.213C86.1489 54.281 85.8347 56.1583 87.0877 55.1014C87.276 55.3249 86.4507 55.6344 86.6365 55.855L87.0014 55.5941L86.6375 56.0659C86.8218 56.1458 87.2801 55.8215 87.5557 55.5582C87.4938 55.554 87.5482 55.377 87.5405 55.315C88.0715 55.1346 87.8483 56.0001 88.0229 55.9446L87.6513 55.9182C87.7653 56.4756 88.1872 56.8328 88.458 57.2981C88.4579 57.2996 88.458 57.2996 88.4592 57.301C88.6349 57.6029 88.7466 57.9479 88.6622 58.4263L88.4413 58.5615C88.4712 58.6762 88.4717 58.8125 88.4121 58.9907C88.5587 59.1908 88.981 58.8894 89.0745 59.443L89.1229 59.372C89.0275 59.54 88.9733 59.684 88.9563 59.8052C89.0326 59.7483 89.1052 59.6869 89.1697 59.6036C89.0959 59.7511 89.0384 59.8518 88.9868 59.9357C88.9978 59.9806 88.9886 60.0419 89.0184 60.0705C89.2362 59.6826 89.7719 59.8353 89.9953 59.3759C89.8538 60.1517 89.7819 60.0796 89.3673 60.6153C89.3144 60.7593 89.1967 60.9349 89.1945 61.0137L89.4958 60.8448C89.4504 60.9045 89.4174 60.9489 89.379 60.9989C89.473 60.9499 89.6073 60.8698 89.7926 60.7473C89.5208 61.0109 89.3357 61.1577 89.2026 61.2422C89.1128 61.3703 89.0532 61.4882 89.0334 61.615C89.238 61.4963 89.4354 61.3931 89.5883 61.3309C89.7844 61.2305 89.9864 61.1102 90.1472 60.8103C90.7945 60.721 90.7016 61.0986 90.6244 61.4109C90.6715 61.3699 90.7065 61.3413 90.7671 61.2866C90.7023 61.3469 90.6724 61.3786 90.6211 61.4266C90.5488 61.7175 90.5323 61.9162 91.1136 61.6505L91.1623 61.6039C91.1473 61.6204 91.147 61.6262 91.1347 61.6414C91.1902 61.6151 91.2203 61.6093 91.2865 61.5749C91.1913 61.6797 91.1171 61.7468 91.039 61.8165C91.0818 61.9332 91.8114 61.5033 91.6049 61.8127C91.4576 61.5422 90.8902 62.2864 90.4109 62.4992C90.348 62.604 90.3286 62.662 90.3282 62.7007C90.5102 62.6255 90.7 62.5492 90.8811 62.494C91.3641 62.1967 91.9788 61.7904 91.9536 62.0978C91.9984 61.9922 91.561 62.1638 91.3323 62.4192C91.3685 62.4193 91.4102 62.414 91.4409 62.4211C91.6007 62.3807 91.7978 62.3133 92.0437 62.1692C92.0544 62.3074 91.9402 62.4014 91.7925 62.4939C91.7885 62.6716 91.608 62.9808 92.0502 62.8754C91.7665 63.1442 91.7495 63.2353 91.7597 63.2988L92.0581 63.0494C91.6875 63.5281 91.7994 63.5144 92.0343 63.5018C91.9927 63.3579 91.989 63.1783 92.2115 62.8868C92.6898 62.7256 91.7768 63.8822 92.7588 63.0113C92.5943 63.1619 92.4857 63.2748 92.4105 63.3662C92.7465 63.2332 92.5802 63.5401 92.6112 63.6017C92.5739 63.5958 92.5249 63.5907 92.4348 63.6384L92.3742 63.7219C92.4956 63.7875 92.6697 63.8324 92.5242 64.1087C92.8064 63.8729 93.0531 63.6513 93.1554 63.4721L92.8335 64.0233L92.9017 63.9732C92.8863 63.9984 92.8627 64.036 92.8376 64.0766C92.9746 63.9936 93.1585 63.9027 93.3205 63.8108L93.3517 63.7777C93.3462 63.7861 93.3473 63.7905 93.3418 63.7988C93.4348 63.7441 93.5201 63.689 93.5703 63.6353C93.7613 63.5906 93.549 63.884 93.3794 64.1506C93.4808 64.1708 93.6196 64.164 93.7398 64.1693L93.9222 63.9937C93.95 64.0408 93.8941 64.1043 93.8054 64.1779C93.9484 64.1928 94.0488 64.236 93.977 64.3964C93.9129 64.2659 93.8333 64.2208 93.7437 64.2269C93.6538 64.2975 93.5417 64.3744 93.4356 64.4615L93.6559 64.2517C93.5283 64.2963 93.3836 64.409 93.2243 64.5269C93.2388 64.5519 93.2706 64.5634 93.3334 64.5489C93.2483 64.6284 93.1747 64.7127 93.1294 64.8011C93.2872 64.8625 93.7083 64.7074 93.6659 64.9366C93.8749 64.864 94.0644 64.8249 94.218 64.836L94.3868 64.7358C94.3748 64.7726 94.3473 64.8101 94.3106 64.8487C94.4115 64.8804 94.4916 64.9427 94.5099 65.087C94.5301 64.9803 94.2578 64.9611 94.0227 65.067C93.984 65.0926 93.9427 65.1195 93.9013 65.1478C93.8504 65.1872 93.7944 65.2234 93.7608 65.2808C93.8375 65.3028 93.947 65.3162 94.0567 65.3239C94.0739 65.3146 94.0939 65.3012 94.1059 65.2945C94.0977 65.3042 94.0868 65.3166 94.0773 65.3263C94.2452 65.3365 94.4333 65.3276 94.6446 65.2608C94.6478 65.2767 94.6449 65.2852 94.6468 65.2996C94.878 64.9884 94.8231 64.9702 95.3718 64.6815C94.861 65.0809 94.7021 65.2791 94.652 65.4175C94.648 65.4489 94.6365 65.4743 94.6212 65.4994C94.6055 65.7096 94.8237 65.7824 94.0488 66.4169C94.0768 66.4282 94.0774 66.444 94.0962 66.4563L94.2864 66.3714C94.2558 66.36 94.3472 66.2837 94.3192 66.2724C94.7348 66.0668 94.5037 66.2877 94.1881 66.5752C94.1993 66.7622 93.8137 66.9935 93.5758 67.1925C93.5328 67.258 93.5163 67.309 93.5731 67.3129C93.7294 67.2911 93.9638 67.1722 94.128 67.0001L94.3173 66.8161L94.221 67.2108L94.8908 66.7294C94.6403 67.1259 94.6424 67.2566 94.7586 67.3507C94.9949 67.2176 94.9412 67.2912 94.8388 67.4116C94.8895 67.4368 94.9453 67.4622 95.0125 67.4953C94.8951 67.5446 94.7677 67.6151 94.6438 67.6957C94.6357 67.7614 94.7154 67.7749 94.9961 67.6624L95.1237 67.3796C96.0983 66.7667 95.8253 67.1177 96.4916 66.8328C96.3042 66.9436 95.7882 67.195 95.3254 67.4746C95.6223 67.436 95.6701 67.5859 95.6722 67.7438L95.7806 67.6625C95.7553 67.7087 95.7132 67.7542 95.6748 67.8013C95.6725 67.8844 95.6678 67.9617 95.6841 68.004C95.649 67.9766 95.6007 67.9573 95.5386 67.9546C95.4886 68.004 95.4398 68.0535 95.3831 68.1056L95.1557 68.4787C95.4187 68.3568 95.8257 68.0805 96.1964 67.8343C96.4329 67.9322 95.1623 68.4173 95.1503 68.7482C95.1985 68.7417 95.2095 68.758 95.2378 68.7607C95.3104 68.6993 95.378 68.6334 95.4394 68.5629C95.4316 68.6228 95.3816 68.6995 95.3289 68.7804C95.3667 68.8323 95.3163 68.9477 95.2349 69.092C95.7059 68.7726 96.1989 68.4844 96.3291 68.1428L95.9996 68.9548C96.138 68.8992 96.3528 68.8714 96.5451 68.8267C96.6126 68.7335 96.6958 68.6382 96.7986 68.538C96.7638 68.6211 96.699 68.7115 96.625 68.8058C96.7299 68.776 96.8234 68.7399 96.875 68.6834C97.2337 68.7695 96.5158 69.5802 96.6218 69.9091C96.6541 69.9406 96.6785 69.9733 96.7171 70.008C96.7375 70.016 96.7419 70.0335 96.765 70.0388C96.6762 70.1138 96.5998 70.2023 96.5636 70.3198C96.6306 70.3858 96.7295 70.4332 96.831 70.4793C96.916 70.4902 96.9906 70.472 97.0472 70.4802C97.1554 70.4921 97.1581 70.5496 96.8657 70.8697C96.8657 70.8697 97.088 70.7302 97.3103 70.5922C97.4196 70.5195 97.5277 70.4468 97.6091 70.3915C97.5546 70.3648 97.5757 70.3571 97.6438 70.3687C97.6598 70.3579 97.6638 70.3538 97.6771 70.3458C97.7526 70.2199 97.8767 70.1049 97.9943 69.9924C97.9631 70.1431 97.9153 70.2888 97.8383 70.4188C97.7939 70.3982 97.7299 70.3825 97.6721 70.3728C97.6627 70.381 97.6505 70.3919 97.6397 70.4029L97.6368 70.4085C97.6343 70.407 97.6369 70.4071 97.6343 70.407C97.3532 70.6759 96.6036 71.0605 96.4176 71.4928C96.3842 71.5731 96.3978 71.5895 96.4316 71.5852L97.0315 71.0434L96.8106 71.2977C97.0304 71.0993 97.2789 70.8649 97.392 70.7938C96.9988 71.1998 96.2833 72.2201 96.9745 71.6938C97.0963 71.4839 96.9682 71.5715 97.0052 71.467L97.4732 71.0987C98.1241 70.2219 97.8773 70.4751 98.4991 69.8782C97.7462 70.6602 97.7423 70.7791 97.7384 70.8951C97.7344 70.9868 97.7194 71.0937 97.3961 71.5846L97.4476 71.5926C97.588 71.4309 97.5906 71.4611 97.5157 71.6042L97.6365 71.6239L97.7922 71.381L97.8105 71.3761L97.6454 71.6271L98.0168 71.6908C98.0221 71.7168 98.0272 71.7472 98.0312 71.7761C98.3576 70.9768 98.2686 71.2628 98.5554 70.4217C98.4849 70.7012 98.2708 71.2715 98.0477 71.8715C98.0487 71.8787 98.0497 71.8845 98.0506 71.8932C98.048 71.893 98.0429 71.8914 98.0403 71.8913C97.8714 72.3473 97.698 72.816 97.5765 73.1952L97.7295 73.0714C97.6554 73.1384 97.6202 73.1728 97.5662 73.2235C97.5604 73.2376 97.5545 73.2531 97.5513 73.2687C97.5988 73.2766 97.6428 73.2785 97.6902 73.2878C97.7013 73.271 97.7077 73.2742 97.7109 73.2901C97.725 73.2922 97.7405 73.2943 97.7546 73.2963L98.1216 71.9852C98.0324 72.3673 97.9253 72.8289 97.8138 73.3047C97.8344 73.307 97.8575 73.3123 97.8769 73.3132C97.9972 72.8737 98.1458 72.2603 98.2794 71.6951C98.3479 71.5805 98.0708 72.5828 97.9103 73.3175C97.9155 73.3177 97.9245 73.3196 97.9309 73.3199L97.8988 73.373C97.8421 73.6331 97.8026 73.8552 97.8013 73.9713C97.9184 73.6651 97.9133 73.8399 97.8727 74.3203C97.9072 74.3017 97.955 74.2737 97.9856 74.2564C98.0029 74.128 98.0192 73.9909 98.0411 73.8757L97.9706 74.4508C98.0171 74.483 98.0569 74.5192 98.0167 74.5791L97.9523 74.6021L97.8734 75.2486C97.8774 75.2459 97.8799 75.2475 97.8839 75.2448C97.9097 75.0996 97.9459 74.8357 97.967 74.6788C97.9562 74.8362 97.9335 75.0289 97.9049 75.2386C97.943 75.2244 97.9826 75.2075 98.0046 75.2085C97.9777 75.2317 97.9307 75.2684 97.8985 75.2942C97.8868 75.3855 97.8734 75.484 97.8601 75.5795C97.9762 75.4713 98.0747 75.3794 98.1653 75.2916C98.174 75.1829 98.1798 75.0813 98.1925 74.9685C98.1899 75.0861 98.1888 75.1707 98.1856 75.2724C98.2045 75.2546 98.2301 75.2327 98.2464 75.2148C98.6196 75.0892 98.7426 74.9124 98.7793 75.079C99.1886 74.8674 99.3153 74.6061 99.3152 74.5501L99.6463 74.6751C99.553 74.4113 99.5429 74.4367 99.4022 73.7777C99.2761 73.8195 99.1423 73.8897 98.9927 74.0524C99.1123 73.9242 99.2314 73.7472 99.3646 73.6024C99.3293 73.4344 99.2898 73.2418 99.2374 72.9913C99.1789 72.5841 99.3141 73.1898 99.4038 73.5654C99.462 73.5077 99.5209 73.4629 99.5834 73.4269C99.4173 72.817 99.2936 72.5662 99.2803 72.5455L99.2204 71.9646C99.4853 72.8013 99.6241 73.06 99.7814 73.3682C99.854 73.3656 99.9323 73.382 100.014 73.4301L99.9278 73.2785C99.8509 73.024 100.033 73.3233 100.191 73.5684C100.196 73.5729 100.198 73.5731 100.203 73.5776C100.202 73.579 100.201 73.5789 100.198 73.5788C100.265 73.6793 100.316 73.7504 100.354 73.7822C100.367 73.7813 100.376 73.7803 100.385 73.7778C100.39 73.7493 100.365 73.6607 100.315 73.5093C100.186 73.3286 100.029 73.1337 100.179 73.1217C100.006 72.7094 99.6639 72.0071 99.9316 72.4852C100.063 72.7349 100.258 73.1065 100.473 73.5191C100.621 73.6089 100.797 73.7027 100.962 73.8089C100.833 73.6225 100.709 73.4362 100.614 73.2455C100.786 73.5071 101.022 73.77 101.103 73.8424C101.022 73.648 100.807 73.3731 100.714 73.2054C100.636 73.1388 100.563 73.0725 100.502 73.0081C100.538 73.0872 100.57 73.1632 100.614 73.2455C100.546 73.1435 100.496 73.0509 100.461 72.9662C100.285 72.7805 100.199 72.6218 100.347 72.5365C100.264 72.5457 100.42 72.7735 100.631 72.9291L100.682 72.8712C100.448 72.4476 99.5997 71.9957 99.5246 72.0842C100.093 72.135 100.517 72.1909 101.087 72.4154C101.046 72.4639 100.964 72.5119 100.902 72.5824C101.009 72.6803 101.13 72.7688 101.257 72.8376C101.273 72.8311 101.289 72.8261 101.306 72.8225C101.101 72.6327 101.217 72.6565 101.435 72.7392C101.436 72.7393 101.436 72.7407 101.438 72.7408C101.652 72.8219 101.944 72.9438 102.082 72.9485L101.478 72.5689C101.274 71.9645 102.786 73.2635 102.483 72.6461L101.575 72.2561L101.877 72.222L101.172 71.8237C101.775 71.9592 101.675 71.82 101.574 71.5157C101.661 71.5826 101.765 71.6518 101.871 71.7181C101.827 71.6818 101.795 71.6574 101.743 71.6063C102.001 71.7611 102.22 71.7808 102.428 71.7656C102.317 71.699 102.268 71.6624 102.381 71.5698C101.98 71.3786 101.477 71.1326 101.977 71.5836C101.77 71.4784 101.579 71.3824 101.372 71.2787C101.025 70.9004 101.438 70.9257 101.49 70.8491C101.494 70.8952 101.506 70.9531 101.582 71.0267L102.59 71.2389C102.566 71.2164 102.545 71.2082 102.522 71.1886C102.287 71.1538 102.039 71.1387 102.136 70.9535C102.088 70.9328 102.039 70.9091 101.99 70.8897C102.091 70.8669 102.392 70.9992 102.496 70.9378C101.994 70.646 101.496 70.3127 101.191 70.3022L101.9 70.342C101.7 70.1839 101.406 69.8008 101.206 69.726C101.014 69.3632 102.377 69.9196 102.125 69.4436C102.225 69.4939 102.328 69.5285 102.423 69.5255C102.43 69.2403 101.941 68.6492 102.739 68.8407L101.957 68.1118C102.264 68.0478 102.934 69.0429 103.447 68.9364C103.854 68.8954 102.761 68.3495 102.567 68.1042C103.068 68.284 104.065 68.6937 103.487 67.9983C103.284 67.9564 103.379 68.0997 103.278 68.1225L102.893 67.6293C101.997 67.2857 102.185 67.6168 101.603 67.0015C103.277 68.1225 102.14 66.4784 103.807 67.6106L103.521 67.2608C103.519 67.3023 103.419 67.2391 103.418 67.2807C102.746 66.5179 104.7 67.9641 104.618 67.5357C104.543 67.3545 104.341 67.1204 104.109 67.0442L104.636 67.1262C104.638 67.0445 104.344 66.855 104.341 66.9382L104.654 66.7152L104.604 66.6842C104.886 66.8229 105.343 67.008 105.54 67.0813C105.351 66.8304 105.344 66.9951 105.152 66.8274L105.65 66.9426C105.268 66.5657 104.769 66.4088 104.763 66.575C103.219 65.2302 105.258 66.7288 104.514 65.6903L104.208 65.7026C103.345 64.9243 103.761 65.0402 103.297 64.4315C103.57 64.6975 104.525 65.8658 105.045 65.9733C104.956 65.8316 104.94 65.719 105.329 65.8595C104.748 65.4337 104.952 65.4383 105.06 65.3398L104.287 64.7821C104.592 64.8112 104.975 65.1107 105.367 65.2872C105.381 65.0827 104.809 64.6113 104.332 64.2044C104.357 63.8726 105.179 65.0753 105.496 64.9027C105.324 64.4862 105.723 64.5797 106.321 64.6893C106.143 64.3528 105.841 64.3611 105.654 64.1477L106.334 64.4861C106.337 64.4446 106.148 64.3129 106.05 64.2468C106.347 64.323 106.812 64.817 107.116 64.8117C107.974 65.4104 106.1 63.546 107.175 64.0811C106.993 63.8651 106.698 63.7445 106.415 63.5053C107.211 63.7168 107.017 63.6222 107.991 64.0552L107.62 63.4808C108.093 64.0612 108.874 64.4111 109.518 64.6963C109.756 64.9607 109.964 65.1937 110.063 65.3057L110.619 65.3889C110.515 65.2624 110.242 65.0811 109.906 64.8726C109.978 64.9073 110.049 64.9406 110.114 64.9721C109.892 64.6668 109.435 64.3669 108.976 64.0956C109.105 64.2419 109.243 64.3958 109.382 64.5497C108.887 64.2482 108.347 63.9059 107.918 63.5441C108.015 63.5971 108.108 63.6256 108.173 63.6242C108.039 63.5423 107.921 63.4639 107.853 63.3977C107.778 63.327 107.961 63.4327 108.178 63.544L107.381 62.8246L107.721 63.0748L107.41 62.3366C108.398 62.776 109.754 63.576 110.325 63.5007C109.663 63.0928 109.325 62.7092 108.606 62.1252C109.301 62.8458 108.099 62.143 108.13 62.46C108.113 62.2958 107.756 62.0376 107.622 61.9671L108.534 62.1923C107.942 61.72 108.141 61.7603 107.957 61.4724C109.068 62.4898 108.894 61.858 109.343 62.0198C108.961 61.6902 108.543 61.392 108.523 61.6351C107.782 60.7316 110.04 62.5282 109.426 61.7379C109.39 61.7693 109.432 61.8415 109.225 61.6917C109.635 61.8877 109.52 61.4321 109.148 61.2034L109.113 61.2349C109.162 60.8554 109.671 60.4185 110.663 61.2155C110.533 61.1122 109.469 60.2533 109.268 60.0924L112.832 62.4472C111.977 61.7668 110.128 59.8834 109.504 59.6952C109.431 59.5299 109.349 59.3312 109.735 59.4514C109.822 59.5987 110.85 60.6052 110.967 60.6147C110.163 59.6481 110.554 60.0729 109.915 59.1824C110.045 59.4034 111.381 60.4722 111.413 60.3387C111.21 60.1834 110.151 59.2014 109.991 59.1169L111.436 59.9982C111.163 59.8557 110.364 59.0529 110.049 58.6746C110.277 58.9228 110.191 58.4398 110.365 58.4833L110.577 58.8528C110.601 58.399 112.542 60.1803 112.68 59.852C112.399 59.6474 111.036 58.4755 110.988 58.1893C111.673 58.7101 114.256 60.7463 114.911 60.9803L114.585 60.5958L115.127 60.8076C114.103 60.0121 111.861 58.4472 110.939 57.903C110.732 57.5309 110.534 57.4749 110.689 57.3468C110.39 56.9735 110.108 56.9525 110.052 56.9831L110.116 56.4019C110.841 57.1139 111.07 56.8169 111.669 57.4143L110.604 57.092C111.33 57.7983 112.868 58.8344 112.93 58.4612C112.686 58.1176 111.589 57.263 111.347 57.0242C111.626 57.2301 112.015 57.2387 111.855 57.0437L111.382 56.7789C111.217 56.3671 112.526 57.4778 111.973 56.637C111.974 56.5337 111.185 55.5463 111.622 55.9573C112.367 56.8653 114.914 59.3863 115.582 59.938C115.541 59.8659 115.028 58.8777 114.675 58.4087C114.109 57.6736 113.025 57.019 112.538 56.3892C112.738 56.5817 113.022 56.7707 113.119 56.828C113.001 56.6004 112.49 56.2451 112.687 56.2021C113.433 56.9093 112.848 55.8734 113.353 56.7565C113.666 56.8392 113.315 56.4707 113.473 56.3528C113.902 56.8739 115.17 57.8379 115.475 57.9288C115.286 57.7483 115.072 57.4763 114.974 57.35C115.118 57.0307 114.909 56.5537 115.1 56.3081C114.944 56.1033 114.84 55.7701 114.491 55.4951C114.647 55.5938 114.915 55.8193 114.997 55.7669C114.514 54.9738 114.756 55.8252 114.119 54.9349C114.538 55.3637 114.857 55.3547 115.203 55.5292C115.804 56.2429 115.113 55.8912 114.762 55.7208C115.639 56.6532 116.71 57.4579 117.317 57.6697C117.695 57.725 116.831 56.9797 116.982 57.0824C117.147 56.5703 118.741 58.4583 118.377 57.491C117.938 56.7672 117.309 56.266 116.941 55.7979C116.598 55.7182 117.074 56.4193 116.958 56.4946L116.815 56.0807C116.591 55.9246 116.362 55.8757 116.468 56.1057C116.066 55.4624 116.915 55.4093 116.721 54.6217C116.943 54.7807 117.204 54.9127 117.381 55.2031L117.23 55.2008C117.59 55.7791 117.969 55.7355 118.072 56.0772C118.477 56.3159 119.057 56.7475 118.967 56.3217L118.396 55.5777C118.567 55.7905 118.655 56.0999 118.43 55.9236C118.757 56.1819 117.853 54.7245 118.701 55.5983L119.01 56.2002C119.417 56.4577 120.173 57.1036 120.114 56.7509C120.638 57.5243 120.015 56.6992 120.61 57.6236C119.836 56.5062 120.325 57.9798 119.55 56.7691C120.257 57.8247 119.727 57.3336 120.298 58.2699C120.103 58.0303 119.957 57.7742 119.956 58.0023C119.89 57.942 119.806 57.8651 119.757 57.82L119.764 57.8446L119.746 57.8123C119.711 57.7806 119.705 57.7746 119.74 57.8006C119.676 57.6715 119.592 57.5257 119.488 57.3863C118.979 56.9034 118.827 57.1033 118.532 56.8866C118.567 57.066 118.79 57.1275 118.97 57.4123L118.528 57.0916C118.965 57.6173 119.111 58.1244 119.516 58.2714L119.408 58.4345C119.586 58.8053 119.585 59.0292 119.332 58.8846C119.371 59.0599 118.677 58.487 119.086 58.8279L118.604 58.7335L118.715 58.8603C118.579 59.1399 117.533 58.4784 118.154 59.6349C117.972 59.5881 117.759 59.5171 117.785 59.7865L118.173 60.2355C117.947 60.1882 118.337 60.9544 117.874 60.5581C118.894 61.7939 117.725 61.2791 117.778 61.6515L117.229 61.1181C117.16 61.2686 116.911 61.2289 116.565 61.1664L116.089 60.6834C115.58 60.4257 116.162 61.3624 115.95 61.5296C116.149 61.6933 116.14 61.5925 116.056 61.4453C116.971 62.7525 114.838 61.2282 115.47 62.2231C115.246 62.1142 115.275 62.2131 115.368 62.3678C115.375 62.3638 115.387 62.3672 115.406 62.3781C115.406 62.3881 115.402 62.3994 115.393 62.4077C115.46 62.5139 115.535 62.632 115.598 62.7323C115.495 62.5972 115.413 62.4832 115.383 62.4187C115.338 62.454 115.225 62.4648 115.051 62.4184L115.563 62.9345C115.553 62.9327 115.55 62.9397 115.536 62.9362C115.683 63.1794 115.243 62.7569 114.866 62.3544C114.754 62.3078 114.624 62.2433 114.477 62.1493C115.302 62.9891 114.052 62.0617 114.919 62.9708C114.436 62.6081 114.323 62.9991 113.341 62.1883C113.465 62.3014 113.51 62.3751 113.545 62.3436C113.598 62.5196 113.653 62.6927 113.334 62.5252L113.999 63.1671L112.951 62.5227C113.299 62.9957 113.514 63.2505 114.117 63.6157C113.125 63.1459 113.669 63.5458 112.707 63.0529L113.162 63.4302C113.092 63.4903 112.404 63.0941 112.744 63.4592C113.485 64.3627 112.267 64.3982 112.779 65.5068C111.581 64.3996 112.981 65.9232 112.352 65.4837C112.352 65.4981 112.348 65.5108 112.347 65.5252C112.544 65.7261 112.701 65.8966 112.957 66.0197C112.775 66.0089 112.782 66.1225 112.795 66.2307L112.886 66.239C113.059 66.4202 113.005 66.6115 113.184 66.6596C112.966 66.7088 112.81 66.6001 112.627 66.3826C112.544 66.3545 112.437 66.3097 112.259 66.2086C112.566 66.4947 112.761 66.5391 112.937 66.7162C112.855 66.6781 112.61 66.5626 112.787 66.7411C112.963 66.9168 113.077 66.9246 113.241 67.0021C113.038 67.1841 112.031 66.4167 111.088 65.6908C111.452 66.1602 111.352 66.1701 110.683 65.7691C110.962 66.0526 111.237 66.3731 111.441 66.3161C111.432 66.4334 111.566 67.1638 110.809 66.5853C110.984 66.7595 110.79 66.7423 110.688 66.6962C110.687 66.7005 110.686 66.7019 110.686 66.7034C110.769 66.7687 110.857 66.8285 110.945 66.851L110.655 66.8268C110.629 66.949 110.629 67.0122 110.485 67.1091L110.393 66.9645C109.436 66.3356 110.095 66.9615 109.893 67.0272L109.99 67.0946C110.442 67.9395 109.582 67.0035 110.131 67.9115L109.572 67.4622C108.324 66.568 110.112 68.3067 109.523 68.1473L109.239 67.8335C109.085 67.7679 109.19 67.9088 109.393 68.1258C109.399 68.1261 109.407 68.1307 109.413 68.131C109.409 68.1337 109.409 68.1366 109.406 68.1393C109.558 68.3024 109.759 68.5021 109.973 68.7123C110.05 68.6899 110.11 68.6581 110.153 68.6227C110.172 68.7383 110.21 68.8634 110.264 68.9978C110.551 69.2801 110.794 69.5261 110.826 69.5964C110.919 69.6995 111.02 69.6881 111.119 69.714C111.681 70.5264 110.345 69.1936 110.043 69.2721C110.427 69.609 111.107 69.9832 111.098 70.1751C111.343 70.4356 110.061 69.8598 110.064 70.134L110.309 70.2882L110.076 70.189C110.097 70.2359 110.125 70.2887 110.195 70.3693C110.099 70.2804 110.002 70.2001 109.907 70.1171L109.42 69.9105L109.636 69.9243C109.532 69.8566 109.429 69.7846 109.322 69.7599C109.2 69.8033 109.576 70.256 109.652 70.4774L109.893 70.643L109.65 70.5778C109.614 70.6222 109.494 70.5996 109.205 70.4449C109.282 70.5272 109.359 70.5923 109.44 70.6503C109.35 70.6306 109.257 70.628 109.162 70.6267C109.204 70.6873 109.293 70.7974 109.48 70.9993C108.919 70.4581 108.891 70.774 108.778 70.9254C108.922 71.1197 108.802 71.1633 108.617 71.1623C108.779 71.4492 108.614 71.4922 109.115 72.0896C108.876 71.9069 108.695 71.6693 108.696 71.9664C108.64 71.9367 108.579 71.9125 108.523 71.8885L108.38 72.0228L108.551 72.1279C108.552 72.1208 108.556 72.1181 108.555 72.1094C108.58 72.1536 108.606 72.1806 108.626 72.1886C108.602 72.2091 108.57 72.2392 108.526 72.2933C108.544 72.2697 108.535 72.2334 108.539 72.202C108.496 72.2877 108.393 72.3061 108.233 72.2646C108.41 72.3742 108.633 72.5304 108.527 72.4253C109.044 72.7106 108.169 72.4942 107.986 72.3241C108.019 72.4274 108.04 72.5101 108.049 72.5736C108.093 72.5784 108.127 72.6014 108.174 72.5949L108.045 72.8762C108.263 73.2445 108.263 73.5415 107.956 73.5151C107.977 73.6007 107.84 73.5961 107.71 73.5746C107.777 73.8014 107.752 73.9897 107.383 73.9304C107.454 73.9723 107.576 74.0437 107.679 74.0726C106.793 73.9834 108.716 75.8672 106.863 74.9005C106.874 74.954 106.885 75.0077 106.88 75.0461C106.83 74.9708 106.773 74.8951 106.718 74.8224C106.672 74.7988 106.637 74.7815 106.589 74.7535L106.371 74.7196C106.387 74.8595 106.444 75.0284 106.597 75.2661C106.443 75.3627 106.286 75.4534 106.17 75.6104C106.105 75.7654 106.059 75.9341 106.044 76.12L106.424 76.5327C106.134 76.7036 106.339 77.806 105.936 77.6893C105.935 77.6906 105.935 77.6935 105.935 77.695L105.919 77.6828C105.897 77.6761 105.882 77.6812 105.857 77.6671C106.818 79.2734 105.259 79.5879 105.297 80.782L104.793 80.0137C104.702 80.4487 104.516 80.7103 104.269 80.9075C104.318 80.9441 104.35 80.9757 104.411 81.0171C104.349 80.9699 104.303 80.9463 104.254 80.9184C104.183 80.9726 104.111 81.0254 104.031 81.0721L103.922 80.8335C103.776 80.8701 103.672 80.986 103.379 80.8612C103.378 80.8813 103.378 80.8985 103.377 80.9186C103.555 81.0125 103.747 81.117 103.901 81.2601C103.076 81.2468 103.987 82.2568 103.581 82.5661C103.533 82.5425 103.465 82.5007 103.41 82.4668C103.428 82.568 103.438 82.6546 103.451 82.7455L103.699 82.9401C103.666 82.9458 103.577 82.9175 103.471 82.8784C103.636 84.1139 103.35 84.262 103.06 84.1861C102.729 84.1242 102.403 83.8158 102.576 85.4318C102.467 85.2907 102.427 85.3707 102.419 85.5569C102.486 85.6388 102.554 85.7207 102.639 85.812C102.548 85.7362 102.478 85.6858 102.416 85.6486C102.418 85.7649 102.425 85.8972 102.435 86.0627C102.443 86.0458 102.454 86.0506 102.467 86.0742C102.464 86.1156 102.457 86.1598 102.448 86.1981C102.456 86.3018 102.464 86.4112 102.474 86.5178L102.555 86.5329L102.787 86.7927L102.478 86.5782C102.499 86.8346 102.518 87.0923 102.538 87.3227C102.503 87.0227 102.479 86.7778 102.459 86.5645L102.364 86.5001L102.456 86.5156C102.448 86.422 102.437 86.3168 102.434 86.2492C102.381 86.419 102.271 86.5419 102.126 86.4466L102.166 86.6751L102.305 86.7443L102.169 86.6981L102.435 88.1935C102.425 88.1973 102.421 88.223 102.408 88.2195C102.455 89.0624 102.242 87.9109 102.038 86.6536L101.827 86.5827C101.954 87.7777 101.433 85.8321 101.831 88.7079C101.552 87.4702 101.339 88.7365 100.898 86.1932C100.892 86.83 100.875 87.5079 100.69 86.6819L100.994 89.5018C100.994 89.5018 100.848 88.7292 100.702 87.958C100.56 87.1511 100.419 86.3414 100.419 86.3414C100.531 88.3637 100.61 89.5725 100.921 91.4113C100.644 90.158 100.588 89.9546 100.523 89.781C100.463 89.5918 100.403 89.417 100.182 87.928L100.363 89.8658C100.304 90.0426 100.014 87.6695 100.121 89.4735C100.143 89.9422 100.154 90.3488 100.156 90.7104C100.152 91.8496 99.9873 91.7792 99.821 91.8508C99.7368 91.8815 99.65 91.9408 99.5703 92.1353C99.5311 92.2326 99.4917 92.3615 99.4557 92.5321C99.4367 92.6116 99.4212 92.7286 99.3997 92.8065C99.3727 92.8599 99.3464 92.929 99.3233 93.0112C99.2931 88.8101 99.132 94.4491 99.0278 91.0167C99.0205 91.9792 98.9535 92.3837 99.0576 93.4601C98.7751 91.8751 98.6283 94.0683 98.4472 90.9711ZM85.2535 64.9055L85.4243 64.8197C85.5419 64.6168 85.4064 64.7558 85.2535 64.9055ZM119.024 58.2067C119.014 58.1991 119.007 58.193 118.997 58.1826C119.114 58.4747 119.064 58.3634 119.024 58.2067ZM108.644 63.4913C108.438 63.3747 108.497 63.5007 108.671 63.7264C108.745 63.7225 108.755 63.6598 108.644 63.4913ZM105.045 65.9776C104.896 65.9352 104.462 65.7525 104.786 66.0365C105.482 66.4674 105.19 66.1963 105.045 65.9776ZM97.9679 86.8837C97.9682 86.8464 97.9659 86.8104 97.9651 86.7702L97.8958 86.7858C97.8915 86.8244 97.8898 86.8645 97.8855 86.903L97.9679 86.8837ZM97.9633 86.5176C97.9585 86.5073 97.9432 86.5038 97.9266 86.4988C97.9221 86.5416 97.9177 86.583 97.9133 86.6244C97.9376 86.6011 97.9529 86.5774 97.9641 86.5578C97.9633 86.5463 97.9639 86.532 97.9633 86.5176ZM97.9616 86.4659C97.9614 86.4429 97.961 86.4228 97.9619 86.4013C97.9516 86.4009 97.9476 86.4036 97.9359 86.403C97.9336 86.4259 97.9313 86.4487 97.929 86.473C97.942 86.4707 97.9485 86.4696 97.9616 86.4659ZM97.9492 86.2788C97.9532 86.2761 97.9547 86.2704 97.9587 86.2677C97.9587 86.2376 97.9585 86.2132 97.9585 86.1831C97.9558 86.2159 97.9519 86.2459 97.9492 86.2788ZM98.1015 85.2868C98.1238 85.2806 98.141 85.2728 98.1631 85.2695C98.1419 85.28 98.1247 85.2893 98.1022 85.2998L98.1826 86.0336C98.2035 85.8538 98.21 85.4695 98.2117 84.9889C98.1658 85.0012 98.1202 85.0093 98.0743 85.0216L98.1015 85.2868ZM101.706 85.6992L101.733 85.7277C101.72 85.6912 101.707 85.6648 101.695 85.6255C101.7 85.653 101.702 85.6718 101.706 85.6992ZM100.359 75.4081C100.366 75.4199 100.37 75.4344 100.376 75.4447C100.378 75.4333 100.369 75.4157 100.374 75.4059C100.373 75.4101 100.365 75.4055 100.359 75.4081ZM100.134 76.0382C100.17 76.1588 100.202 76.2664 100.241 76.3973C100.422 76.3865 100.508 76.3416 100.134 76.0382ZM100.981 76.1816C100.81 76.0363 100.646 75.8885 100.53 75.7557C100.753 76.193 100.932 76.409 100.981 76.1816ZM100.954 77.5349C100.933 77.4852 100.913 77.4355 100.892 77.3858C100.753 77.2922 100.617 77.1843 100.456 77.0854C100.495 77.2134 100.535 77.3371 100.578 77.4638C100.737 77.521 100.868 77.5655 100.977 77.5861C100.97 77.5672 100.962 77.5525 100.954 77.5349ZM99.4297 74.921C99.2874 75.0353 99.1819 75.1383 99.0974 75.235C99.1301 75.522 99.1549 75.7526 99.174 75.907L99.2087 75.854L99.2071 75.831C99.2082 75.8353 99.2079 75.8425 99.2087 75.854L99.2115 75.8498C99.1899 75.4873 99.1743 75.1351 99.2919 75.7285L99.3766 75.5988C99.3741 75.5657 99.3724 75.547 99.3688 75.5095C99.372 75.5269 99.3752 75.5715 99.3793 75.5961L99.4071 75.5528C99.4054 75.5326 99.4004 75.498 99.3984 75.485C99.3984 75.485 99.4056 75.5269 99.4111 75.5501L99.5014 75.4106C99.4758 75.2272 99.4506 75.0626 99.4297 74.921ZM99.4941 74.8693C99.4738 74.8885 99.4512 74.9033 99.431 74.9197C99.478 75.1757 99.481 74.9907 99.4941 74.8693ZM97.2627 73.9433C97.26 73.9447 97.2574 73.946 97.2547 73.9487C97.2559 73.9502 97.2585 73.9503 97.2627 73.9433ZM97.161 73.2817C97.1677 73.2763 97.1811 73.2654 97.1891 73.2614C97.1827 73.2597 97.1749 73.2594 97.1698 73.2577C97.1683 73.2634 97.164 73.2718 97.161 73.2817ZM97.1892 73.26L97.1582 73.2859C97.1201 73.3875 97.0819 73.4906 97.0394 73.6035L97.2312 73.4527C97.2496 73.3574 97.2577 73.2917 97.238 73.298C97.2424 73.2867 97.2453 73.2797 97.2495 73.2713C97.2305 73.2633 97.2083 73.2651 97.1892 73.26ZM97.365 73.5604C97.3702 73.5592 97.3754 73.5595 97.3806 73.5583L97.3607 73.5703C97.3575 73.5831 97.3531 73.5958 97.35 73.6071C97.365 73.5891 97.3919 73.5673 97.4042 73.5507C97.4199 73.5471 97.4343 73.5448 97.4499 73.5427C97.4577 73.5114 97.4655 73.4816 97.4749 73.4462C97.4562 73.4281 97.4428 73.4089 97.4254 73.3923C97.4035 73.4502 97.3813 73.5124 97.365 73.5604ZM96.7701 74.3995C96.7793 74.3956 96.7926 74.389 96.8005 74.3851C96.8443 74.3023 96.8718 74.2361 96.8872 74.1794C96.8673 74.19 96.85 74.2021 96.8313 74.2157C96.8049 74.2848 96.7882 74.3415 96.7701 74.3995ZM96.873 74.3553C96.8942 74.3447 96.918 74.3343 96.939 74.3266C96.9737 74.2435 97.0056 74.1659 97.0364 74.0855C96.9978 74.1096 96.9618 74.1324 96.9231 74.158L96.873 74.3553ZM96.8106 74.5979L96.795 74.6589C96.8064 74.635 96.8165 74.6096 96.8266 74.5857C96.8212 74.5912 96.8172 74.5953 96.8106 74.5979ZM96.9545 73.9743C96.9661 73.9461 96.9722 73.9248 96.9893 73.8897L96.9719 73.9607C97.023 73.9185 97.078 73.875 97.1224 73.8367C97.1361 73.7886 97.1524 73.7419 97.166 73.6995L96.9581 73.8338C96.9331 73.9016 96.9149 73.9625 96.8927 74.0247C96.9155 74.0084 96.9317 73.9934 96.9545 73.9743ZM100.823 77.7199L100.611 77.5643C100.62 77.5962 100.632 77.6284 100.641 77.6617C100.703 77.6817 100.754 77.6997 100.823 77.7199ZM99.3028 75.805C99.3112 75.8786 99.3235 76.0111 99.3407 76.1798C99.371 76.1682 99.3975 76.1536 99.4251 76.1433C99.4151 76.0195 99.4014 75.8596 99.3878 75.6969L99.3028 75.805ZM99.2177 75.9132L99.2202 75.9449L99.2176 75.9161L99.1833 75.9605C99.2016 76.1048 99.2155 76.2001 99.2217 76.2348C99.2244 76.2335 99.2283 76.2322 99.231 76.2309C99.2329 76.1865 99.23 76.0759 99.2202 75.9449L99.2469 76.223C99.2508 76.2217 99.2561 76.2191 99.2627 76.2165C99.2473 76.0953 99.2324 75.9928 99.2177 75.9132ZM99.431 76.2167C99.4058 76.2286 99.374 76.2472 99.3474 76.2633C99.3775 76.5502 99.4147 76.9105 99.4562 77.2926C99.4769 77.2935 99.5028 77.2917 99.5222 77.294C99.5004 77.0233 99.4829 76.8317 99.431 76.2167ZM98.4009 80.4488L98.4161 80.4552C98.4189 80.451 98.421 80.4324 98.424 80.4225C98.412 80.4019 98.4025 80.3828 98.3803 80.3575C98.3873 80.4051 98.3937 80.4355 98.4009 80.4488ZM98.3059 81.6671C98.2961 81.6552 98.2848 81.6461 98.2762 81.6356C98.2732 81.6742 98.2702 81.7129 98.2658 81.7543C98.2836 81.7622 98.2884 81.7696 98.3074 81.7805C98.3053 81.7402 98.3056 81.7044 98.3059 81.6671ZM98.2092 81.7174C98.2087 81.67 98.2094 81.6241 98.2102 81.5768C98.1863 81.5901 98.1662 81.6064 98.1411 81.6182C98.1415 81.6383 98.1421 81.6541 98.1425 81.6742C98.1575 81.6864 98.1891 81.7036 98.2092 81.7174ZM99.6155 78.3814C99.5962 78.3476 99.581 78.3125 99.5657 78.2774C99.5836 78.4288 99.5997 78.5644 99.6152 78.6813C99.6258 78.6775 99.6299 78.6719 99.6417 78.6681C99.6329 78.5745 99.6236 78.4607 99.6155 78.3814ZM98.6903 77.3393C98.6705 77.3484 98.6512 77.3447 98.6329 77.3496C98.6153 77.3661 98.5937 77.3867 98.5854 77.3992C98.5856 77.425 98.5869 77.4538 98.587 77.4796C98.6098 77.4921 98.6356 77.4947 98.588 77.517C98.5973 77.8933 98.6074 78.2826 98.621 78.6807C98.6544 78.6577 98.7004 78.6411 98.7388 78.6227C98.7111 78.28 98.6846 78.0292 98.6695 78.1361C98.6889 78.0494 98.6936 77.7067 98.6903 77.3393ZM98.4448 77.3285C98.445 77.3227 98.4467 77.3156 98.4469 77.3113C98.4381 77.3038 98.4294 77.2962 98.4208 77.2858L98.4196 77.3417C98.4276 77.3363 98.4354 77.3352 98.4448 77.3285ZM98.2254 79.2573C98.2367 79.2348 98.248 79.2138 98.2593 79.1914C98.2684 78.8962 98.2799 78.6054 98.2919 78.3319C98.2893 78.5972 98.2967 78.8415 98.3092 78.9998C98.3189 78.6315 98.3253 78.3104 98.3311 78.0882C98.3433 77.8707 98.3368 78.3712 98.3389 78.971L98.3818 77.9068C98.3352 77.9363 98.2926 77.9631 98.2406 77.9982C98.2088 78.3971 98.1849 78.8236 98.17 79.2807C98.1871 79.2743 98.2043 79.265 98.2254 79.2573ZM98.3876 77.7765L98.3956 77.5932C98.3575 77.6073 98.3179 77.6228 98.2653 77.642C98.2608 77.6848 98.2598 77.7379 98.2552 77.7836C98.2967 77.7811 98.3395 77.7801 98.3876 77.7765ZM98.2613 77.6447C98.2481 77.6498 98.2416 77.651 98.2284 77.6561C98.159 77.7636 98.1892 77.7821 98.2423 77.7816L98.2613 77.6447ZM98.405 77.3497L98.4078 77.2867C98.3484 77.3415 98.2824 77.4002 98.2567 77.4264C98.2975 77.4109 98.3506 77.3803 98.405 77.3497ZM98.7318 77.3095L98.8154 78.5873C98.822 78.5848 98.826 78.5821 98.8313 78.5794C98.8063 77.5581 98.8181 77.4353 98.8274 77.2248C98.7972 77.2636 98.7651 77.2866 98.7318 77.3095ZM99.4187 78.7057L99.4337 78.7164C99.4506 78.7157 99.4573 78.7117 99.4729 78.7081L99.3312 77.3975C99.3135 77.3867 99.2905 77.38 99.2702 77.3719C99.309 77.7538 99.3603 78.2081 99.4187 78.7057ZM99.4834 78.7056C99.5159 78.7028 99.5433 78.6982 99.5656 78.6906C99.5154 78.2436 99.4653 77.8224 99.4197 77.4445C99.4009 77.4322 99.3806 77.4213 99.3605 77.4089L99.4834 78.7056ZM99.4018 77.293C99.3543 76.9007 99.3106 76.5687 99.2756 76.3046C99.269 76.3086 99.2623 76.3141 99.2544 76.3166L99.3475 77.2907C99.3695 77.2916 99.3837 77.2922 99.4018 77.293ZM99.4785 77.4916C99.5044 77.7266 99.5295 77.9515 99.5526 78.1634C99.5576 78.1364 99.5717 78.1112 99.591 78.0848C99.5724 77.8587 99.557 77.6787 99.546 77.5462C99.5236 77.5265 99.501 77.5098 99.4785 77.4916ZM98.2446 84.4164C98.2383 84.4118 98.2307 84.4086 98.2244 84.4055C98.2258 84.4629 98.2294 84.5277 98.2308 84.5837C98.2353 84.5408 98.2385 84.4664 98.2446 84.4164ZM98.1421 80.5034C98.1803 80.5194 98.1988 80.5116 98.2258 80.5157C98.2268 80.4928 98.2251 80.4712 98.2261 80.4497L98.143 80.3944C98.1428 80.4302 98.1424 80.4675 98.1421 80.5034ZM98.144 80.3442L98.2266 80.378C98.229 80.3235 98.23 80.2719 98.231 80.2189C98.201 80.1946 98.1762 80.1706 98.1448 80.1477C98.142 80.2121 98.143 80.2782 98.144 80.3442ZM98.1084 78.7672L98.2099 78.0183C98.1806 78.0386 98.1499 78.0588 98.1217 78.0805C98.1168 78.2826 98.1123 78.5019 98.1084 78.7672ZM98.1344 77.4095C98.2188 77.3458 98.3001 77.292 98.3816 77.2338C98.3279 77.1612 98.2843 77.0617 98.2685 76.9204C98.2272 76.9473 98.1833 76.9755 98.1419 77.0024C98.1393 77.1213 98.1361 77.2532 98.1344 77.4095ZM98.5428 76.4532C98.5446 76.4432 98.5449 76.4346 98.5452 76.4275C98.5409 76.4373 98.5392 76.4473 98.5428 76.4532ZM98.4323 76.8171C98.4546 76.841 98.4774 76.8521 98.4998 76.8732C98.5039 76.8375 98.5067 76.8032 98.5122 76.7675C98.4829 76.7849 98.4602 76.8011 98.4323 76.8171ZM98.5761 76.9339C98.61 76.9569 98.649 76.9543 98.6852 76.9545C98.6824 76.8424 98.6823 76.7564 98.6785 76.6644C98.6425 76.6886 98.6094 76.7058 98.5707 76.7313C98.5716 76.7988 98.5726 76.8663 98.5761 76.9339ZM98.6892 76.6576L98.7072 76.954C98.7475 76.9515 98.7898 76.9304 98.8354 76.8951C98.8353 76.8678 98.836 76.8521 98.836 76.8234C98.8361 76.8492 98.8366 76.8679 98.8368 76.8923C98.8879 76.85 98.9388 76.8107 98.9999 76.7172C98.9921 76.7771 98.9785 76.8196 98.9673 76.8693C99.0494 76.827 99.1232 76.7987 99.1663 76.8192C99.1023 76.8322 99.0294 76.8692 98.9582 76.8991C98.9405 76.9786 98.9181 77.0451 98.8897 77.1041C98.8958 77.1115 98.9183 77.101 98.9147 77.1224C98.888 77.1413 98.8786 77.1495 98.8572 77.1658C98.8517 77.1727 98.8499 77.1841 98.8445 77.1896C98.8602 77.7456 98.8762 78.2055 98.8927 78.5663C98.9202 78.5589 98.9527 78.5561 98.984 78.5503C98.96 78.1546 98.9398 77.9672 98.9311 78.1935C98.8881 76.8142 98.9366 77.5682 98.9944 78.5493C99.0322 78.5438 99.0676 78.5338 99.1092 78.5314C99.103 78.4364 99.0968 78.3414 99.0893 78.2464L99.0794 78.266C99.0955 77.9281 99.1326 77.7332 99.194 77.8966C99.2323 77.9987 99.2824 78.242 99.342 78.6535L99.3759 78.678C99.3759 78.678 99.3759 78.678 99.3772 78.678C99.3355 78.2414 99.2936 77.7819 99.2536 77.3669C99.2053 77.3461 99.1639 77.3156 99.1086 77.306C99.1632 77.3012 99.2021 77.3 99.2475 77.2977C99.2109 76.8929 99.1789 76.5615 99.1614 76.3713C99.0205 76.4541 98.8634 76.5519 98.6892 76.6576ZM99.1627 76.37C99.1783 76.5156 99.2128 76.85 99.2606 77.2954C99.2787 77.2948 99.3008 77.2929 99.319 77.2923L99.2171 76.3408C99.1986 76.35 99.1826 76.3594 99.1627 76.37ZM99.4476 76.1328C99.4634 76.1264 99.4793 76.1184 99.4952 76.1105C99.4637 75.914 99.4405 75.7652 99.4223 75.6482L99.3907 75.6898C99.4037 75.8066 99.4232 75.9524 99.4476 76.1328ZM99.4563 76.2006C99.5014 76.5298 99.5581 76.9182 99.6173 77.3083C99.6392 77.3121 99.6598 77.3144 99.679 77.3196C99.6166 76.9122 99.5541 76.5077 99.5041 76.1726C99.4908 76.1806 99.4695 76.1941 99.4563 76.2006ZM99.671 77.6492C99.6901 77.7735 99.7107 77.8949 99.7302 78.0091C99.7495 78.0128 99.7689 78.0137 99.7869 78.0159C99.772 77.9134 99.7568 77.8166 99.7409 77.7068C99.7159 77.6871 99.6934 77.6689 99.671 77.6492ZM99.9233 78.0348C99.9131 77.9712 99.8997 77.8946 99.8848 77.8208C99.8823 77.8178 99.8785 77.8176 99.8759 77.8161C99.8954 77.9044 99.9081 77.9681 99.9233 78.0348ZM99.0631 84.8828C99.0642 84.8872 99.0651 84.8958 99.0661 84.9016C99.0664 84.8959 99.0654 84.8887 99.0656 84.8829C99.0643 84.8829 99.0643 84.8829 99.0631 84.8828ZM98.2093 84.3962C98.1738 84.3789 98.1383 84.3615 98.1029 84.3427C98.1704 84.3672 98.1177 84.418 98.014 84.4795L98.0682 84.9855C98.113 84.9674 98.1644 84.9467 98.2092 84.9286C98.2101 84.7607 98.21 84.5857 98.2093 84.3962ZM96.2562 81.8812C96.2109 81.9681 96.1628 82.0607 96.1127 82.1418C96.2264 82.0865 96.3401 82.0341 96.449 81.9714C96.5249 81.3635 96.4159 81.5754 96.2562 81.8812ZM95.7976 82.27C95.7908 82.2194 95.7882 82.1591 95.7905 82.0774L95.8193 82.0112C95.6237 82.1906 95.5632 82.3013 95.7976 82.27ZM97.6681 77.3847C97.6901 77.3857 97.7132 77.3896 97.7302 77.3874C97.7412 77.342 97.7523 77.2966 97.7637 77.2426C97.7358 77.26 97.7064 77.2802 97.6784 77.2977C97.6747 77.3248 97.6717 77.3619 97.6681 77.3847ZM98.3376 76.0553C98.3523 76.0459 98.3697 76.0324 98.3831 76.0215C98.3488 76.0357 98.3186 76.0473 98.2725 76.064C98.3105 76.0541 98.3181 76.0588 98.3376 76.0553ZM98.5905 75.8699C98.6506 75.8266 98.7283 75.7669 98.7643 75.7441C98.7078 75.7918 98.6575 75.847 98.6137 75.901C98.6122 75.9053 98.6054 75.9121 98.5974 75.9175C98.4426 76.113 98.3875 76.3043 98.5519 76.2169L98.9449 75.8166C99.2011 75.7618 98.6807 76.2024 98.5651 76.3882C98.5667 76.4098 98.5668 76.437 98.5672 76.4586C98.599 76.4715 98.668 76.4616 98.8344 76.3885C98.8652 76.3942 99.0342 76.3184 99.2086 76.2385L99.1793 75.9632L98.9171 76.3018L99.1751 75.9114L99.1013 75.2337C98.916 75.4437 98.8031 75.6267 98.5165 75.8451C98.5445 75.8549 98.5727 75.8619 98.5905 75.8699ZM99.4291 75.6413C99.449 75.7483 99.4819 75.9119 99.5177 76.1C99.5571 76.086 99.5822 76.0742 99.6019 76.0693C99.5727 75.8786 99.5457 75.6981 99.5184 75.5233L99.4291 75.6413ZM99.5282 76.155C99.5737 76.3851 99.6235 76.6384 99.6764 76.9076C99.7099 77.0583 99.7409 77.2061 99.7735 77.3481C99.7837 77.3514 99.7953 77.3534 99.8054 77.3581C99.7421 76.9722 99.6724 76.5272 99.6071 76.0968C99.5911 76.109 99.5629 76.1307 99.5282 76.155ZM100.219 77.5183C100.275 77.5395 100.336 77.5608 100.404 77.5853C100.358 77.3953 100.308 77.2009 100.258 76.9935C100.194 76.9649 100.131 76.9362 100.056 76.9186C100.111 77.119 100.167 77.3238 100.219 77.5183ZM100.309 85.6091C100.335 85.8011 100.354 85.9354 100.354 85.9354C100.343 85.8359 100.331 85.722 100.318 85.6138C100.317 85.6109 100.311 85.6106 100.309 85.6091ZM96.741 83.841C96.7135 83.8771 96.7015 83.8852 96.6797 83.9086C96.7821 83.8772 96.8985 83.8493 97.0255 83.819C97.0085 83.3505 96.8477 84.0351 96.7664 83.6168L96.741 83.841ZM95.1147 83.5227L95.0924 83.5275L95.1253 83.516C95.1629 83.4861 95.1709 83.4807 95.1372 83.5108C95.2645 83.4719 95.4108 83.4123 95.5591 83.3371C96.1271 82.9316 96.0209 82.7561 96.2997 82.5101C96.1442 82.5148 96.0162 82.7172 95.7245 82.8435L96.1394 82.4758C95.8338 82.6532 95.5615 82.7532 95.3339 82.8637C95.2266 83.1259 95.1196 83.3809 95.0221 83.5961C95.0518 83.5687 95.0919 83.5403 95.1147 83.5227ZM94.7048 83.5104C94.7063 83.5062 94.7063 83.5062 94.7064 83.5033C94.6891 83.514 94.6889 83.5183 94.7048 83.5104ZM93.3766 79.4144C93.3791 79.3858 93.3802 79.36 93.3814 79.3328C93.3192 79.3946 93.3233 79.4192 93.3766 79.4144ZM94.5164 68.0904C94.6152 67.9642 94.9467 67.6086 94.5883 67.8382C93.9509 68.3798 94.2875 68.1722 94.5164 68.0904ZM93.7482 65.9805C93.7386 65.9929 93.7265 66.0025 93.7168 66.0164C93.7379 66.0087 93.7456 66.009 93.764 66.0027C93.7578 65.9967 93.753 65.9893 93.7482 65.9805ZM91.2775 63.5488L91.2772 63.4082C91.234 63.4465 91.1882 63.4875 91.1411 63.5285C91.0629 63.6585 90.9713 63.798 90.8809 63.9404L91.2775 63.5488ZM90.6501 62.0922C90.6106 62.1091 90.5794 62.1106 90.5456 62.1148C90.4946 62.1843 90.4556 62.2472 90.4757 62.2624L90.6501 62.0922ZM90.4421 62.1131C90.4191 62.1064 90.3986 62.1012 90.3809 62.0904C90.3368 62.153 90.2781 62.2222 90.1803 62.3255L90.4421 62.1131ZM90.0872 61.9698C89.8548 62.073 89.6678 62.2929 89.564 62.5036C89.5849 62.5002 89.5897 62.5076 89.6347 62.4866C90.0052 62.1858 90.0833 62.0586 90.0872 61.9698ZM91.3888 64.0502C91.3833 64.0571 91.3817 64.0628 91.3775 64.0698C91.3736 64.0711 91.371 64.0709 91.3683 64.0737C91.1925 64.2453 91.0679 64.3991 91.0936 64.4619C91.1147 64.4528 91.1256 64.4418 91.1441 64.4326C91.2378 64.3033 91.3226 64.1721 91.3788 64.0713C91.5319 64.0349 91.5314 64.1038 91.5203 64.1794C91.5898 64.1293 91.6252 64.1208 91.6361 64.2261C91.8346 64.0382 92.0601 63.8272 92.0943 63.7555C92.0934 63.7468 92.0899 63.7381 92.0889 63.7308C92.0659 63.7241 91.9908 63.7552 91.8207 63.8539C91.9043 63.7787 91.9839 63.7062 92.0648 63.6322C92.052 63.6001 92.0418 63.5666 92.0304 63.5317C91.8183 63.6745 91.5767 63.869 91.3888 64.0502ZM94.2884 65.7072C94.2939 65.7002 94.2967 65.6961 94.3034 65.6906C94.1355 65.7392 93.9458 65.7854 93.8108 65.91L94.2884 65.7072ZM95.2806 67.4927C94.9534 67.6907 94.6606 67.9016 94.5296 68.0853C94.661 68.0408 94.7301 68.0582 94.5599 68.2789C94.5634 68.2862 94.5691 68.3051 94.574 68.3125C94.7919 68.1556 94.9086 68.0919 94.9549 68.0997C95.1351 67.9153 95.1845 67.7941 94.7661 67.9178C94.9491 67.7881 95.1013 67.6254 95.2806 67.4927ZM96.4345 71.5782C96.5005 71.5495 96.6254 71.4474 96.7682 71.3202L96.4345 71.5782ZM97.3753 71.588C97.2865 71.7233 97.1853 71.8738 97.0404 72.0783L97.3552 71.7492C97.3346 71.7483 97.4121 71.6326 97.3915 71.6317C97.3983 71.6234 97.3982 71.6263 97.4063 71.618C97.3952 71.6061 97.3838 71.5998 97.3753 71.588ZM97.8034 72.3041C97.8704 72.1335 97.9256 71.9981 97.9749 71.8769C97.8642 71.862 97.6998 71.8332 97.5497 71.7434L97.2266 72.2314L97.5433 71.7417C97.5144 71.7218 97.4897 71.6949 97.4622 71.6721C97.2111 72.1131 96.5671 73.1265 96.766 73.108C96.9002 73.0306 97.1009 72.7654 97.2282 72.4611L96.9965 73.1654C97.0416 73.1717 97.242 72.7644 97.2005 72.7655L97.2023 73.1673L97.2353 73.0942C97.2178 73.1379 97.1973 73.1915 97.1772 73.2379C97.2044 73.2377 97.234 73.2404 97.2636 73.2446C98.3262 70.9238 97.0251 74.0463 97.7124 72.7248L97.8034 72.3041ZM97.4749 73.2381C97.4734 73.2438 97.472 73.2466 97.4704 73.2537C97.473 73.2538 97.4755 73.2539 97.4794 73.2541L97.5358 73.2092C97.5842 73.0205 97.6043 72.9152 97.4749 73.2381ZM97.5279 73.2405C97.5212 73.2459 97.5144 73.2528 97.509 73.2583C97.5128 73.2599 97.5167 73.26 97.5219 73.2603C97.5234 73.2546 97.5264 73.2461 97.5279 73.2405ZM97.4551 73.5429C97.4603 73.5417 97.4668 73.5405 97.4708 73.5393C97.4931 73.5015 97.5082 73.4821 97.5155 73.4924C97.5045 73.479 97.4934 73.4671 97.4822 73.4551C97.4732 73.4848 97.4628 73.5145 97.4551 73.5429ZM97.5177 73.5327C97.5307 73.5304 97.5409 73.5352 97.5525 73.5357C97.5439 73.5238 97.5302 73.5118 97.5204 73.4998C97.5214 73.5056 97.518 73.5241 97.5177 73.5327ZM97.8149 73.4855L97.7214 73.6407C97.7007 73.7273 97.6815 73.8111 97.6608 73.8991C97.69 73.8818 97.7449 73.7235 97.8149 73.4855ZM97.4843 73.8211C97.4777 73.8237 97.4671 73.8289 97.4618 73.8316C97.4501 73.8913 97.442 73.9297 97.423 74.0078C97.4469 73.9357 97.4634 73.8833 97.4843 73.8211ZM97.9714 74.2543C97.8264 74.3441 97.8802 74.3866 97.9454 74.434C97.9521 74.3711 97.9636 74.3156 97.9714 74.2543ZM97.9198 74.6036L97.8343 74.6342C97.8183 74.8229 97.7995 75.0431 97.7838 75.282C97.7878 75.2808 97.7931 75.2781 97.7984 75.274C97.8495 75.0553 97.8891 74.8304 97.9198 74.6036ZM97.8577 75.3096C97.8564 75.311 97.855 75.3124 97.8537 75.3138L97.8498 75.3437C97.8498 75.3423 97.8546 75.321 97.8577 75.3096ZM97.7785 75.3736C97.7772 75.375 97.7759 75.3749 97.7758 75.3778C97.774 75.3878 97.7737 75.3949 97.7733 75.4035C97.7764 75.3936 97.7756 75.3821 97.7785 75.3736ZM97.7955 75.9899C97.7723 76.1639 97.7503 76.3409 97.734 76.5037C97.8089 76.4496 97.8784 76.3996 97.9534 76.3441C97.9983 76.1466 98.0277 76.0661 98.031 76.2872C98.0431 76.2763 98.0552 76.2668 98.0698 76.2574C98.084 76.0815 98.1022 75.9029 98.1184 75.7128C98.0069 75.804 97.8993 75.8955 97.7955 75.9899ZM98.1682 75.6691C98.1644 75.8741 98.1607 76.0447 98.1582 76.1909C98.1676 76.1827 98.1783 76.1746 98.189 76.1679L98.3715 75.8158C98.3919 75.8224 98.415 75.8263 98.4368 75.8316L99.0026 75.0357C98.7544 75.2027 98.4571 75.4293 98.1682 75.6691ZM99.7306 74.7018C99.7066 74.7165 99.6905 74.7302 99.6677 74.7478C99.6699 74.7565 99.6709 74.7638 99.6731 74.7725C99.6696 74.7637 99.6685 74.7593 99.6638 74.7491C99.6197 74.7787 99.5782 74.8099 99.5394 74.8398L99.5942 75.2712L99.6387 75.2014L99.6403 75.3708L99.6103 75.4068L99.6344 75.5943C99.6312 75.3431 99.7577 75.7921 99.9245 76.4164C99.9821 76.4031 100.05 76.3989 100.117 76.3975C100.079 76.2395 100.045 76.0874 100.011 75.941C99.974 75.9092 99.9426 75.8863 99.8975 75.8527C99.9407 75.8704 99.9647 75.8844 100.003 75.9018C99.8954 75.4293 99.8133 75.0297 99.8003 74.8828C99.8687 75.124 99.9797 75.5134 100.108 75.9524C100.196 75.9921 100.286 76.0333 100.35 76.0692C100.104 75.4299 99.8939 74.8439 99.7616 74.4377C99.6945 74.0804 99.6356 73.8582 99.6044 73.7148C99.5614 73.7201 99.5166 73.7382 99.4734 73.7492C99.5666 74.1321 99.5683 74.3302 99.6504 74.671L99.7306 74.7018ZM99.4603 73.7515C99.4551 73.7527 99.4499 73.7539 99.4434 73.7551C99.4612 73.8204 99.4677 73.8193 99.4603 73.7515ZM99.5317 73.1305C99.5551 73.2148 99.586 73.308 99.6119 73.3966C99.625 73.3915 99.6383 73.3834 99.6515 73.3783C99.5797 73.2445 99.5286 73.1404 99.5317 73.1305ZM99.8241 73.6929C99.7864 73.697 99.746 73.7024 99.7058 73.7049C99.8804 74.2377 100.094 74.7995 100.299 75.2677C100.435 75.2522 100.634 75.271 100.347 74.9872C100.442 75.033 100.512 75.0604 100.57 75.083C100.546 75.0261 100.523 74.9691 100.498 74.9135C100.436 74.9064 100.36 74.8916 100.261 74.86C100.074 74.6954 100.28 74.7131 100.41 74.7116C100.389 74.6647 100.37 74.6194 100.35 74.5726C100.274 74.5277 100.172 74.4744 100.018 74.3974C100.154 74.4621 100.246 74.4992 100.335 74.5361C100.179 74.1806 100.043 73.8647 99.9654 73.6604C99.951 73.664 99.935 73.6734 99.9207 73.6756C99.9844 73.8176 100.055 73.98 100.142 74.2105C100.137 74.2304 99.9792 73.9637 99.8241 73.6929ZM101.16 74.3959L100.823 74.2017C100.842 74.2413 100.864 74.2781 100.883 74.3162C100.953 74.3308 101.034 74.3516 101.16 74.3959ZM100.108 73.6049C100.064 73.6245 100.023 73.6443 99.9812 73.6539C100.149 73.9841 100.338 74.1072 100.234 73.8243L100.194 73.758L100.164 73.7437C100.176 73.7486 100.178 73.7458 100.189 73.7491L100.108 73.6049ZM100.188 73.1651C100.17 73.2361 100.196 73.3018 100.257 73.3618C100.254 73.3344 100.226 73.2572 100.188 73.1651ZM100.768 74.1003C100.881 74.1253 100.989 74.1416 100.999 74.1004L100.701 73.9725C100.725 74.0152 100.747 74.0592 100.768 74.1003ZM101.496 75.2113C101.238 74.956 101.766 75.1758 101.501 74.9131C101.313 74.8058 101.192 74.756 101.098 74.7303C101.247 75.0152 101.4 75.3075 101.553 75.5983C101.674 75.6295 101.796 75.6621 101.908 75.6842L101.842 75.5809L101.877 75.5308L101.972 75.6928C102.148 75.7206 102.274 75.7118 102.273 75.6156C102.231 75.5449 102.189 75.4742 102.144 75.4062C101.934 75.3166 101.66 75.2443 101.496 75.2113ZM101.27 73.7536C101.314 73.767 101.321 73.7515 101.339 73.7423C101.301 73.7061 101.257 73.6669 101.209 73.6232C101.23 73.6686 101.243 73.6964 101.27 73.7536ZM101.313 72.8315C101.308 72.8384 101.302 72.8482 101.295 72.8551C101.33 72.8695 101.36 72.898 101.397 72.9068C101.357 72.8735 101.342 72.8571 101.313 72.8315ZM102.694 72.047C102.4 71.7242 102.379 71.904 102.226 71.9145C102.433 72.0154 102.598 72.0643 102.694 72.047ZM110.236 68.9607L110.239 68.9594L110.233 68.9548C110.185 68.8996 110.161 68.877 110.168 68.896C110.185 68.9125 110.199 68.9275 110.215 68.9439L110.233 68.9548L110.236 68.9607L110.234 68.962C110.241 68.9666 110.246 68.974 110.252 68.9786L110.236 68.9607ZM108.048 72.1905C107.9 72.1352 107.742 72.068 107.577 71.9933C107.674 72.1267 107.851 72.2048 107.955 72.2653C107.951 72.235 107.97 72.21 108.048 72.1905ZM107.581 72.83C107.569 72.8252 107.561 72.8234 107.546 72.817C107.692 73.1233 107.632 73.0087 107.581 72.83ZM103.406 82.4594C103.387 82.4471 103.365 82.4375 103.345 82.4237C103.337 82.4994 103.317 82.5574 103.304 82.6228L103.424 82.7171C103.423 82.641 103.418 82.5532 103.406 82.4594ZM103.418 82.8502C103.372 82.8324 103.325 82.8131 103.279 82.7953C103.358 82.9581 103.401 82.9514 103.418 82.8502ZM102.03 86.6002C102.013 86.4932 101.995 86.3863 101.978 86.2794C101.923 86.1952 101.862 86.0662 101.801 85.9129C101.78 85.9062 101.753 85.8964 101.735 85.8913C101.772 86.1369 101.802 86.3448 101.82 86.4962L102.03 86.6002ZM100.839 85.829C100.835 85.8274 100.83 85.8243 100.826 85.8241C100.854 86.0736 100.871 86.2049 100.893 86.1628C100.876 86.0602 100.859 85.9432 100.839 85.829Z" fill="#8396B4"/>
<path d="M96.7651 70.0431C96.7574 70.0413 96.7575 70.0384 96.7511 70.0367L96.8593 69.9611L96.7651 70.0431Z" fill="#8396B4"/>
<path d="M109.071 71.2124C109.203 71.3158 109.378 71.4956 109.425 71.4403L109.157 71.5261C109.239 71.4536 109.136 71.3271 109.071 71.2124Z" fill="#8396B4"/>
<path d="M78.5299 57.1158L78.9393 56.7865L78.8641 56.9941L78.5299 57.1158Z" fill="#8396B4"/>
<path d="M79.313 55.7971L78.6748 56.5625L79.1414 55.7537C79.145 55.8213 79.1534 55.9522 79.313 55.7971Z" fill="#8396B4"/>
<path d="M98.1348 71.7462L98.3837 70.9737L98.2843 71.3194C98.1697 71.6875 98.1599 71.7042 98.1348 71.7462Z" fill="#8396B4"/>
<path d="M98.3308 69.8852C98.3651 69.8723 98.221 70.0281 98.259 70.0183C98.3686 69.8811 97.4739 70.6195 98.3308 69.8852Z" fill="#8396B4"/>
<path d="M95.8272 86.9632C95.7827 86.9728 95.7566 86.9788 95.7251 86.9874C95.727 86.9746 95.7224 86.9615 95.688 86.9485C96.074 86.8249 95.9985 86.7756 95.8272 86.9632Z" fill="#8396B4"/>
<path d="M95.7251 86.986C95.7149 87.0429 95.3939 87.069 95.7251 86.986V86.986Z" fill="#8396B4"/>
<path d="M95.0995 86.9944C95.2659 86.8611 95.4908 86.7805 95.8709 86.6753L95.5527 86.8737C95.3231 86.9439 95.2559 86.9108 95.0995 86.9944Z" fill="#8396B4"/>
<path d="M96.5609 86.324L96.4298 86.4201C96.3339 86.4503 96.2975 86.4544 96.5609 86.324Z" fill="#8396B4"/>
<path d="M96.3317 86.499C96.618 86.3781 96.3458 86.5039 96.1518 86.6159L96.4298 86.4186C96.5887 86.3668 96.9074 86.2445 96.3317 86.499Z" fill="#8396B4"/>
<path d="M97.0058 86.3664C96.9194 86.565 96.2183 86.7867 96.3131 86.6043C96.5402 86.5627 96.6926 86.5708 97.0058 86.3664Z" fill="#8396B4"/>
<path d="M95.8213 86.2699C95.6698 86.2991 95.5207 86.3041 95.2159 86.4356C95.4195 86.3384 95.7692 86.216 96.033 86.1056L95.8213 86.2699Z" fill="#8396B4"/>
<path d="M96.0319 86.1056L96.3484 85.8554C96.4207 85.9189 96.26 86.0094 96.0319 86.1056Z" fill="#8396B4"/>
<path d="M95.0716 86.1251L94.6233 86.3995L95.2948 85.967L95.0716 86.1251Z" fill="#8396B4"/>
<path d="M95.0593 85.849C94.6879 86.0795 94.3844 86.1235 94.165 86.2832C94.2093 86.189 94.5181 85.9673 94.7937 85.7656C94.649 85.9042 94.7112 85.9342 95.0593 85.849Z" fill="#8396B4"/>
<path d="M95.1888 85.4601C95.1078 85.5355 94.9553 85.6478 94.7934 85.7656C94.8691 85.6928 94.9871 85.6005 95.1888 85.4601Z" fill="#8396B4"/>
<path d="M96.1695 85.7113L96.1914 85.7424C96.0649 85.7942 95.7403 85.932 95.5868 85.9482L96.1695 85.7113Z" fill="#8396B4"/>
<path d="M96.1867 85.7034L96.1695 85.7113C96.1412 85.6785 96.1201 85.6574 96.1089 85.6483C96.1189 85.656 96.1415 85.6727 96.1867 85.7034Z" fill="#8396B4"/>
<path d="M96.1963 85.7512L96.1915 85.7424C96.2481 85.7205 96.2665 85.7141 96.1963 85.7512Z" fill="#8396B4"/>
<path d="M95.7859 85.3644C96.0147 85.1951 96.0147 85.1363 96.0298 85.0595C96.1643 85.0611 96.2496 85.095 96.2728 85.1548C96.0989 85.2533 95.7917 85.4393 95.7859 85.3644Z" fill="#8396B4"/>
<path d="M96.0338 85.5059L96.0621 85.4813C96.1134 85.462 96.1304 85.4599 96.0338 85.5059Z" fill="#8396B4"/>
<path d="M95.7865 84.5006C95.8169 84.4876 95.8591 84.4694 95.8922 84.4536L95.7965 84.5097L95.7865 84.5006Z" fill="#8396B4"/>
<path d="M96.3836 85.1109C96.511 85.1007 96.3837 85.1984 96.222 85.3118C96.2623 85.2505 96.2854 85.1955 96.273 85.1548C96.3526 85.1095 96.4056 85.0831 96.3836 85.1109Z" fill="#8396B4"/>
<path d="M95.3904 85.1763C95.5165 85.1359 95.6264 85.1092 95.7295 85.0907C95.5426 85.16 95.2495 85.2605 95.3904 85.1763Z" fill="#8396B4"/>
<path d="M95.8998 85.5445L95.8769 85.5635C95.7508 85.6068 95.8102 85.5807 95.8998 85.5445Z" fill="#8396B4"/>
<path d="M95.8998 85.5445C95.9712 85.4802 96.1032 85.3927 96.222 85.3118C96.1874 85.3634 96.1358 85.4171 96.0618 85.4813C96.0197 85.4966 95.9564 85.5226 95.8998 85.5445Z" fill="#8396B4"/>
<path d="M96.0333 84.6306L95.9884 84.7089C95.8771 84.7069 95.6538 84.7818 95.2223 84.9364C95.4412 84.7294 95.6264 84.6084 95.7965 84.5097L95.9635 84.6878L96.0333 84.6306Z" fill="#8396B4"/>
<path d="M94.9162 84.9818L95.7086 84.4212L95.4973 84.6343L94.9162 84.9818Z" fill="#8396B4"/>
<path d="M95.47 84.372L94.9612 84.6653L95.2445 84.4352L95.47 84.372Z" fill="#8396B4"/>
<path d="M92.6276 78.6942C92.1304 78.932 91.3772 79.3366 91.9308 78.9663L92.4768 78.6201C92.4107 78.7392 92.4935 78.7399 92.6276 78.6942Z" fill="#8396B4"/>
<path d="M81.7 59.3399C81.6823 59.3879 81.7028 59.4218 81.7193 59.4598C81.6734 59.4722 81.6592 59.4429 81.7 59.3399Z" fill="#8396B4"/>
<path d="M97.4046 73.5521L97.381 73.5583L97.4262 73.5301L97.4046 73.5521Z" fill="#8396B4"/>
<path d="M93.3309 64.5473C93.3243 64.5485 93.3258 64.5443 93.3193 64.5468L93.4214 64.4609L93.3309 64.5473Z" fill="#8396B4"/>
<path d="M94.7588 84.2618L94.8724 84.0645C94.8655 84.133 95.008 84.0719 95.1206 84.0424C94.9747 84.122 94.754 84.2243 94.7588 84.2618Z" fill="#8396B4"/>
<path d="M98.051 74.9236C98.3095 74.6092 98.1057 74.6806 98.9548 74.154C99.3464 74.1095 98.202 74.7279 98.6587 74.616C98.3853 74.8565 98.287 74.7072 98.051 74.9236Z" fill="#8396B4"/>
<path d="M80.5164 59.6136L80.9565 59.3503L80.8278 59.5082L80.5164 59.6136Z" fill="#8396B4"/>
<path d="M81.5911 58.6048L80.8155 59.1977L81.464 58.582C81.4462 58.6328 81.4084 58.7273 81.5911 58.6048Z" fill="#8396B4"/>
<path d="M95.7723 67.4411L96.2584 67.1913L96.0758 67.3397C95.8613 67.4766 95.8334 67.4639 95.7723 67.4411Z" fill="#8396B4"/>
<path d="M94.8428 66.2639L94.8721 66.2752L94.1425 66.764L94.8428 66.2639Z" fill="#8396B4"/>
<path d="M95.0343 64.44C95.0928 64.4641 94.9699 64.6394 95.0297 64.6622C95.0928 64.4641 94.1524 65.0957 95.0343 64.44Z" fill="#8396B4"/>
<path d="M124.621 53.468C124.638 53.3855 124.928 53.9736 124.989 54.0725C124.853 53.9976 124.545 53.3183 124.621 53.468Z" fill="#8396B4"/>
<path d="M123.175 52.7071L123.32 52.9273L122.882 52.446L123.175 52.7071Z" fill="#8396B4"/>
<path d="M122.476 53.2274C121.96 52.2405 122.827 53.194 122.747 52.7687L122.639 52.5358L123.151 53.2599C122.931 53.246 122.423 52.8864 122.476 53.2274Z" fill="#8396B4"/>
<path d="M123.41 55.3332C123.43 55.3786 123.441 55.4034 123.455 55.437C123.438 55.4435 123.42 55.4613 123.405 55.5123C123.192 55.1357 123.132 55.2665 123.41 55.3332Z" fill="#8396B4"/>
<path d="M123.455 55.4356C123.537 55.4048 123.607 55.7766 123.455 55.4356V55.4356Z" fill="#8396B4"/>
<path d="M123.016 55.4952L123.313 55.7393C123.435 55.9657 123.39 56.0784 123.521 56.2076C123.318 56.1083 123.196 55.8834 123.016 55.4952Z" fill="#8396B4"/>
<path d="M122.485 54.8994L122.621 54.9929C122.673 55.0884 122.681 55.1304 122.485 54.8994Z" fill="#8396B4"/>
<path d="M122.735 55.0567C122.546 54.793 122.74 55.0368 122.909 55.1935L122.621 54.9929C122.536 54.8342 122.341 54.5372 122.735 55.0567Z" fill="#8396B4"/>
<path d="M122.474 54.3407C122.731 54.3176 123.124 54.9906 122.873 55.0068C122.789 54.7635 122.774 54.5806 122.474 54.3407Z" fill="#8396B4"/>
<path d="M121.833 52.2851L121.738 51.9553L122.001 52.2237C121.871 52.0902 122.012 52.5814 121.833 52.2851Z" fill="#8396B4"/>
<path d="M122.522 55.8064C122.58 55.9668 122.602 56.1414 122.795 56.4268C122.654 56.2398 122.468 55.8915 122.303 55.6404L122.522 55.8064Z" fill="#8396B4"/>
<path d="M122.303 55.6418L121.974 55.3978C122.036 55.2828 122.161 55.4261 122.303 55.6418Z" fill="#8396B4"/>
<path d="M121.789 53.8989L122.423 54.4576L121.748 53.9172L121.789 53.8989Z" fill="#8396B4"/>
<path d="M122.449 56.7603L122.819 57.151L122.243 56.5733L122.449 56.7603Z" fill="#8396B4"/>
<path d="M122.151 56.8892C122.458 57.214 122.548 57.5409 122.755 57.7279C122.644 57.7173 122.361 57.4681 122.106 57.2402C122.272 57.3436 122.294 57.2442 122.151 56.8892Z" fill="#8396B4"/>
<path d="M122.104 57.2387C122.015 57.1831 121.897 57.0918 121.72 56.9205C121.81 56.979 121.952 57.1057 122.104 57.2387Z" fill="#8396B4"/>
<path d="M122.183 56.2435L121.838 55.6773L121.872 55.6358C121.947 55.7582 122.145 56.0696 122.183 56.2435Z" fill="#8396B4"/>
<path d="M121.828 55.6597L121.838 55.6773C121.808 55.7277 121.786 55.764 121.776 55.7779C121.782 55.7638 121.798 55.7272 121.828 55.6597Z" fill="#8396B4"/>
<path d="M121.88 55.6261L121.873 55.6359C121.838 55.5798 121.827 55.5607 121.88 55.6261Z" fill="#8396B4"/>
<path d="M121.038 53.5875C121.339 53.9207 121.45 54.2427 121.856 54.6221C121.588 54.3678 121.235 54.1557 121.038 53.5875Z" fill="#8396B4"/>
<path d="M121.474 54.7C121.574 54.8436 121.699 55.0672 121.833 55.1907L121.453 54.9143L121.474 54.7Z" fill="#8396B4"/>
<path d="M121.278 54.7904L121.451 54.9157L121.444 54.9943L121.278 54.7904Z" fill="#8396B4"/>
<path d="M121.522 56.2618C121.309 56.0759 121.245 56.1047 121.163 56.1226C121.143 55.961 121.162 55.8457 121.222 55.7923C121.352 55.9473 121.598 56.2206 121.522 56.2618Z" fill="#8396B4"/>
<path d="M121.635 55.921L121.603 55.8994C121.575 55.848 121.571 55.8306 121.635 55.921Z" fill="#8396B4"/>
<path d="M120.564 56.5497L120.637 56.6361L120.629 56.6501C120.611 56.6206 120.585 56.5822 120.564 56.5497Z" fill="#8396B4"/>
<path d="M121.158 55.6833C121.128 55.54 121.253 55.6473 121.397 55.7856C121.325 55.7638 121.262 55.7553 121.222 55.7909C121.161 55.7208 121.123 55.6718 121.158 55.6833Z" fill="#8396B4"/>
<path d="M121.389 56.8198C121.327 56.6894 121.283 56.5713 121.245 56.4606C121.348 56.6473 121.498 56.948 121.389 56.8198Z" fill="#8396B4"/>
<path d="M121.694 56.0584L121.719 56.0753C121.787 56.2003 121.748 56.144 121.694 56.0584Z" fill="#8396B4"/>
<path d="M121.694 56.0584C121.615 56.0018 121.501 55.8863 121.395 55.7856C121.456 55.804 121.524 55.84 121.601 55.8994C121.626 55.9392 121.663 56.0025 121.694 56.0584Z" fill="#8396B4"/>
<path d="M119.246 54.7943C118.911 54.6892 119.263 55.0778 119.394 55.3935C118.985 54.7456 118.529 54.7141 117.863 53.821L118.236 53.9981C118.131 53.86 117.913 53.6926 117.85 53.5349C118.237 53.9982 118.709 54.3159 118.416 53.6975C118.805 53.9514 119.958 55.5918 120.563 56.5496C120.396 56.3443 120.246 56.1512 119.92 55.9733C119.752 55.6804 119.675 55.1389 119.246 54.7943Z" fill="#8396B4"/>
<path d="M120.637 56.6361L120.79 56.3702L120.72 56.3112L120.807 56.3294C120.825 56.4593 120.939 56.6853 121.17 57.1187C120.92 56.9513 120.765 56.7895 120.637 56.6361Z" fill="#8396B4"/>
<path d="M121.225 56.4238L121.22 56.4178C121.178 56.3442 121.15 56.3 121.17 56.3467C121.164 56.3422 121.161 56.342 121.156 56.3404C121.1 56.2719 121.048 56.2108 120.999 56.1527C121.024 56.3159 121.093 56.296 121.156 56.3404L121.22 56.4178L121.225 56.4238L120.807 56.3293C120.791 56.2153 120.858 56.178 120.995 56.1482C120.564 55.6543 120.288 55.5332 119.918 54.9057C120.073 54.8178 120.342 55.2557 120.589 55.41C120.289 55.4772 120.868 55.6476 120.952 56.0861C121.059 56.1367 121.114 56.1305 121.164 56.1212C121.178 56.218 121.203 56.331 121.247 56.4591L121.225 56.4238Z" fill="#8396B4"/>
<path d="M120.242 52.924C120.312 52.9859 120.477 53.1912 120.489 53.0913C120.422 52.8889 120.309 52.8309 120.186 52.6504C120.32 52.7668 120.57 52.9456 120.655 53.2952L120.588 53.2348C120.628 53.4978 120.996 54.2672 121.064 54.329C120.744 53.8199 120.52 53.4542 120.242 52.924Z" fill="#8396B4"/>
<path d="M119.863 53.7654L120.064 54.0455C120.089 53.8485 120.316 54.2086 120.486 54.4112L120.114 54.3073L119.863 53.7654Z" fill="#8396B4"/>
<path d="M120.812 56.9265L121.265 57.4529L120.562 56.772L120.812 56.9265Z" fill="#8396B4"/>
<path d="M120.652 57.3025L120.551 57.0685L120.935 57.5317L120.652 57.3025Z" fill="#8396B4"/>
<path d="M104.595 66.6781C104.453 66.6073 104.351 66.5483 104.352 66.5197L104.595 66.6781Z" fill="#8396B4"/>
<path d="M115.595 62.7207C115.941 63.1793 116.508 63.8513 116.021 63.3908L115.559 62.9243C115.69 62.9458 115.67 62.8531 115.595 62.7207Z" fill="#8396B4"/>
<path d="M109.512 64.6874L109.376 64.5379C109.562 64.6538 109.737 64.7619 109.901 64.8624C109.778 64.8082 109.649 64.7494 109.512 64.6874Z" fill="#8396B4"/>
<path d="M102.004 69.3737L101.417 69.0939C101.486 68.9664 101.732 69.2053 102.004 69.3737Z" fill="#8396B4"/>
<path d="M118.267 59.1333C118.384 59.3853 118.412 59.5156 118.392 59.5822C118.204 59.231 117.876 58.7517 118.267 59.1333Z" fill="#8396B4"/>
<path d="M118.391 59.5821C118.53 59.8408 118.596 60.0374 118.227 59.7715C118.195 59.7098 118.177 59.676 118.151 59.6232C118.267 59.6542 118.368 59.6672 118.391 59.5821Z" fill="#8396B4"/>
<path d="M114.968 57.3397L114.966 57.3454C114.891 57.2387 114.906 57.258 114.968 57.3397Z" fill="#8396B4"/>
<path d="M119.953 58.084C119.952 58.0438 119.951 58.0193 119.95 57.9935C120.026 58.07 120.066 58.1291 119.953 58.084Z" fill="#8396B4"/>
<path d="M119.832 58.0442C119.853 58.0882 119.873 58.1206 119.89 58.1357C119.87 58.142 119.844 58.1509 119.807 58.1737C119.839 58.155 119.841 58.1063 119.832 58.0442Z" fill="#8396B4"/>
<path d="M101.496 75.2113C101.512 75.2263 101.521 75.2382 101.541 75.2563C101.282 75.1875 101.332 75.1797 101.496 75.2113Z" fill="#8396B4"/>
<path d="M109.473 59.6709C109.48 59.6755 109.494 59.6818 109.5 59.6836L109.513 59.7085L109.473 59.6709Z" fill="#8396B4"/>
<path d="M108.956 59.5707C109.632 60.0093 109.593 59.8928 109.513 59.71L110.877 61.0154L108.956 59.5707Z" fill="#8396B4"/>
<path d="M102.113 69.4244C102.117 69.4317 102.113 69.433 102.116 69.4375L102.004 69.3722L102.113 69.4244Z" fill="#8396B4"/>
<path d="M112.329 56.04C112.371 56.1552 112.447 56.2705 112.533 56.3819C112.405 56.2586 112.312 56.134 112.329 56.04Z" fill="#8396B4"/>
<path d="M120.272 57.6015C120.381 57.7369 120.521 57.9453 120.558 57.9254L120.339 57.8714C120.409 57.8543 120.323 57.7142 120.272 57.6015Z" fill="#8396B4"/>
<path d="M118.592 53.5015C118.662 53.5576 118.63 53.4759 118.702 53.5336L118.907 53.8095C118.827 53.8562 118.61 53.6845 118.592 53.5015Z" fill="#8396B4"/>
<path d="M119.041 55.5917C119.607 56.2436 119.352 56.0961 119.094 55.9485C118.71 55.461 118.908 55.5601 119.052 55.5793C119.047 55.5819 119.04 55.5817 119.041 55.5917Z" fill="#8396B4"/>
<path d="M119.083 55.5807C119.123 55.581 119.156 55.5695 119.159 55.5266C119.385 55.789 119.178 55.6092 119.083 55.5807Z" fill="#8396B4"/>
<path d="M119.417 57.9069C119.345 57.753 119.953 58.4843 119.806 58.2755C120.355 58.8306 118.977 57.7828 119.417 57.9069Z" fill="#8396B4"/>
<path d="M118.318 54.93L117.884 54.4934L117.86 54.313L118.318 54.93Z" fill="#8396B4"/>
<path d="M117.635 55.329L117.612 55.0425C117.693 55.1422 117.757 55.1837 117.811 55.2105C117.755 55.3028 117.779 55.5032 117.635 55.329Z" fill="#8396B4"/>
<path d="M117.987 55.2154C117.962 55.2301 117.901 55.2532 117.81 55.2105C117.84 55.1616 117.885 55.1392 117.987 55.2154Z" fill="#8396B4"/>
<path d="M117.615 54.4544L117.566 54.5799L117.551 54.298L117.615 54.4544Z" fill="#8396B4"/>
<path d="M116.25 56.7403C116.061 56.5627 115.986 56.4088 116.103 56.434C116.255 56.5339 116.369 56.559 116.52 56.7651L116.25 56.7403Z" fill="#8396B4"/>
<path d="M115.502 54.8063C115.573 54.9615 115.684 55.0898 115.832 55.2986L115.197 54.602L115.502 54.8063Z" fill="#8396B4"/>
<path d="M114.489 54.5695C114.678 54.7442 114.954 54.765 114.979 55.053C114.791 54.8726 114.285 54.7069 114.489 54.5695Z" fill="#8396B4"/>
<path d="M113.967 58.0792L114.006 58.0522L115.093 59.1388L113.967 58.0792Z" fill="#8396B4"/>
<path d="M110.258 57.6909C110.557 57.8934 110.43 58.0815 110.693 58.2495C110.328 58.1014 110.442 58.3059 109.738 57.5733C109.609 57.1372 110.469 58.1679 110.258 57.6909Z" fill="#8396B4"/>
<path d="M104.069 64.893L103.693 64.4718L103.887 64.6009C104.077 64.77 104.074 64.81 104.069 64.893Z" fill="#8396B4"/>
<path d="M103.237 66.6557L103.239 66.6142L103.918 67.1735L103.237 66.6557Z" fill="#8396B4"/>
<path d="M101.467 67.5149C101.472 67.4333 101.673 67.4709 101.677 67.3878C101.47 67.4332 102.353 68.1421 101.467 67.5149Z" fill="#8396B4"/>
</svg>
