<svg width="40" height="41" viewBox="0 0 40 41" fill="none" xmlns="http://www.w3.org/2000/svg">
<path fill-rule="evenodd" clip-rule="evenodd" d="M19.7731 17.0828C20.2232 14.9245 20.4936 13.0299 21.0222 11.2099C22.0755 7.58873 23.7857 4.29674 26.8085 1.91844C30.8315 -1.24734 35.1974 -0.476942 37.4267 4.0955C38.59 6.4837 39.3866 9.32327 39.3889 11.9579C39.3914 20.6704 37.5114 29.1298 34.9569 37.4298C34.3357 39.451 32.7024 40.5531 30.5227 40.0612C20.651 37.8395 11.0549 34.9267 4.24513 26.7141C2.77686 24.9444 1.54485 22.8855 0.624554 20.7751C-0.83531 17.4289 0.31728 14.6083 3.52205 12.7794C6.90926 10.846 10.369 10.7948 13.7071 12.7644C15.7015 13.944 17.5019 15.4495 19.7731 17.0828ZM31.7965 37.3943C34.3434 28.3368 36.7166 19.6162 36.3911 10.4366C36.3318 8.73179 35.6042 6.93053 34.7705 5.3981C33.2461 2.59582 31.0659 2.29623 28.7335 4.4609C24.9706 7.9531 23.5418 12.4636 23.4801 17.4691C23.4665 18.5609 23.8631 19.6665 23.7814 20.7437C23.7179 21.6038 23.419 22.8977 22.8519 23.146C22.2451 23.4112 21.0093 22.8917 20.3858 22.3355C18.6476 20.7824 17.2363 18.8365 15.4062 17.418C13.7099 16.1029 11.744 14.911 9.70613 14.3208C7.54718 13.6959 5.25721 14.2846 3.7724 16.2553C2.20492 18.3345 3.53671 20.1447 4.57043 21.9321C4.70803 22.1683 4.88789 22.3819 5.04152 22.61C11.3786 31.9323 21.3069 34.6383 31.7965 37.3943Z" fill="#8396B4"/>
</svg>
