<svg width="52" height="49" viewBox="0 0 52 49" fill="none" xmlns="http://www.w3.org/2000/svg">
<path fill-rule="evenodd" clip-rule="evenodd" d="M24.4559 48.7092C19.4217 44.3877 14.5832 40.4836 10.8675 35.474C5.19586 27.8265 1.83659 19.1504 0.14745 9.81613C-0.0426084 8.76606 -0.0402213 7.63759 0.104698 6.57643C0.766734 1.72519 4.50373 -0.906327 9.23618 0.284705C14.5649 1.62541 18.629 4.77881 21.2724 9.60312C22.3122 11.4997 23.0495 13.5666 23.881 15.5741C24.4171 16.8689 24.874 18.1961 25.483 19.818C26.035 19.1322 26.4824 18.6998 26.7857 18.1834C30.3723 12.0691 35.5957 7.7437 41.8074 4.54755C43.1347 3.86492 44.6456 3.3684 46.1217 3.17597C49.4406 2.74438 51.8916 4.80175 51.993 8.16499C52.0413 9.7488 51.8496 11.5259 51.1543 12.907C49.5491 16.0984 47.7887 19.2612 45.6933 22.1477C42.1131 27.0766 38.209 31.7694 34.4783 36.5906C32.4138 39.2585 30.4855 42.0334 28.3766 44.6649C27.2624 46.0578 25.8924 47.2449 24.4559 48.7092ZM21.1623 16.2235L21.2787 16.3415C20.9644 12.9418 19.2348 10.178 17.1323 7.66845C14.9878 5.109 12.2352 3.31851 8.93765 2.59629C4.8807 1.70619 2.21116 3.80235 2.37588 7.96305C2.55643 12.5308 4.13234 16.7731 5.96086 21.0351C9.96 17.4216 10.9982 17.5974 12.5226 22.2911C11.1368 23.4876 9.62739 24.7895 8.12435 26.0867C11.1019 33.1062 17.3992 40.5208 24.992 45.8448C25.8243 44.7433 26.6503 43.6172 27.5087 42.518C32.8755 35.6514 38.3404 28.8592 43.5765 21.8951C45.7226 19.0419 47.5401 15.9051 49.188 12.7327C49.8944 11.3722 50.0575 9.57697 49.9815 8.00186C49.8841 5.96665 48.3359 4.89916 46.3229 5.29195C45.0637 5.53823 43.788 6.01258 42.6777 6.6564C36.0479 10.5011 30.3287 15.2359 27.5546 22.725C27.4414 23.0307 27.3171 23.338 27.1524 23.6183C26.2211 25.2014 25.1282 25.2362 24.2524 23.6334C23.7883 22.7836 23.5737 21.8009 23.1952 20.8997C22.5395 19.3317 21.8426 17.7812 21.1623 16.2235Z" fill="#8396B4"/>
</svg>
