<svg width="18" height="22" viewBox="0 0 18 22" fill="none" xmlns="http://www.w3.org/2000/svg">
<path d="M9 11C7.7625 11 6.75 10.01 6.75 8.8C6.75 7.59 7.7625 6.6 9 6.6C10.2375 6.6 11.25 7.59 11.25 8.8C11.25 10.01 10.2375 11 9 11ZM15.75 9.02C15.75 5.027 12.7688 2.2 9 2.2C5.23125 2.2 2.25 5.027 2.25 9.02C2.25 11.594 4.44375 15.004 9 19.074C13.5563 15.004 15.75 11.594 15.75 9.02ZM9 0C13.725 0 18 3.542 18 9.02C18 12.672 14.9963 16.995 9 22C3.00375 16.995 0 12.672 0 9.02C0 3.542 4.275 0 9 0Z" fill="#A2BFE4"/>
</svg>
