<svg width="101" height="74" viewBox="0 0 101 74" fill="none" xmlns="http://www.w3.org/2000/svg">
<path fill-rule="evenodd" clip-rule="evenodd" d="M90.6763 18.058C92.5186 18.1674 94.3608 18.2768 96.2038 18.3862C93.3764 19.5929 90.0965 19.5492 87.6337 22.1185C88.8984 22.0606 90.1644 21.9234 91.4248 21.9677C92.6451 22.012 93.9583 21.9756 95.0786 23.2867C93.0404 24.6657 90.943 24.4076 89.1286 23.8386C86.8195 23.113 85.1917 23.86 83.2122 25.3391C84.9336 26.6216 86.5107 26.7289 88.275 26.182C89.456 25.8145 90.7378 25.3399 91.9667 27.1306C89.9021 27.4473 88.0891 27.7261 85.7243 28.0893C86.6987 28.9858 87.2098 29.4562 87.8947 30.0853C86.3276 31.2963 85.3332 32.7861 86.2712 34.8449C84.5826 33.353 85.7028 31.8482 86.1425 30.7272C85.6907 29.3418 85.3504 28.2937 85.1581 27.7054C83.8463 26.6952 82.8354 25.9175 81.7545 25.0846C81.3213 25.4743 80.8273 25.9168 80.3719 26.3264C82.3886 30.4284 84.3431 34.4024 86.6265 39.0463C86.6265 37.6852 86.6265 36.9253 86.6265 36.1654C87.9776 36.3784 88.1284 35.1495 88.7025 34.4332C91.8373 30.5292 94.9542 26.6116 98.1197 22.7319C98.5786 22.1686 99.2599 21.7876 100.314 21.6589C100.07 22.1872 99.9276 22.802 99.5652 23.2302C97.2847 25.9354 94.8105 28.4896 92.678 31.3041C90.1466 34.6448 87.7903 38.1284 86.6522 42.2798C86.4949 42.8538 85.6364 43.2349 85.3182 43.5151C83.812 42.3556 82.7432 41.2075 81.4278 40.5812C77.097 38.5209 72.6769 36.6508 67.8943 34.5311C67.8243 38.7361 66.9814 42.2969 65.4015 45.6891C61.1179 54.8839 55.0757 62.5854 46.6265 68.3438C38.9664 73.566 30.5358 74.8457 21.5618 73.5067C18.6587 73.0742 15.7076 72.7046 12.9124 71.8596C10.2216 71.0454 7.51003 69.9602 5.15377 68.4517C0.680729 65.5886 -0.783351 61.3115 0.384773 56.1471C0.507733 55.6031 0.665724 55.0219 0.591376 54.4879C0.25109 52.0459 0.81298 49.751 1.88102 47.6285C9.20145 33.0871 20.1356 22.6268 36.0154 17.9629C42.2871 16.1207 48.7175 15.2092 55.2501 16.3709C57.5528 16.7798 59.7911 17.549 62.3096 18.2196C62.4548 17.8936 62.7664 17.3338 62.9587 16.7362C64.4114 12.2531 65.9091 7.78082 67.2459 3.26203C67.8078 1.36043 69.1354 0.386041 70.8211 0.313123C76.5165 0.0664872 82.2221 -0.0171695 87.924 0.00284731C89.2587 0.00713662 90.5212 0.73131 91.2425 2.08816C93.1334 5.64615 95.1129 9.15695 96.9587 12.7371C97.7194 14.2141 98.3284 15.7911 98.821 17.3803C99.2678 18.8215 98.9704 20.1655 97.3633 21.5174C97.264 18.359 96.983 15.6824 95.1536 13.2268C94.0084 14.1368 92.9468 14.9819 91.9459 15.7761C91.908 15.9713 91.848 16.1135 91.8809 16.14C92.0918 16.3101 92.3227 16.4552 92.8159 16.7919C91.9059 17.0107 90.6827 16.837 90.7635 18.1531C89.8992 18.4419 89.0078 18.6706 88.1771 19.0374C87.5122 19.3305 86.9217 19.7923 86.2998 20.1791C85.5141 21.1921 84.7284 22.2044 83.7197 23.504C86.61 22.5754 86.61 22.5754 86.2905 20.1783C87.7524 19.8381 89.2201 19.5171 90.6634 19.1139C90.7607 19.0881 90.6763 18.4254 90.6763 18.058ZM74.4727 31.3006C74.4226 31.8024 74.3719 32.3043 74.3219 32.8054C74.5049 32.8662 74.6879 32.9262 74.8702 32.987C75.2133 32.3686 75.5558 31.7509 75.8982 31.1318C75.5908 31.1361 75.2841 31.1397 74.9767 31.1433C75.2398 30.4034 75.5021 29.6635 75.7652 28.9243C75.5636 28.807 75.3613 28.6891 75.1583 28.5725C74.2704 29.5126 73.3811 30.4527 72.4932 31.3921C72.6147 31.5415 72.7362 31.6909 72.8578 31.8403C73.3961 31.6601 73.9337 31.4807 74.4727 31.3006ZM74.7508 23.627C75.1583 24.5849 75.5672 25.5422 76.0161 26.5945C76.7853 26.4572 77.4187 26.3436 78.2037 26.2034C77.1342 23.0536 75.7909 20.2191 74.1589 17.1658C73.2531 18.176 72.624 18.878 71.6961 19.9131C73.7178 19.956 74.1724 21.2092 74.5628 22.5182C74.0123 22.0013 73.4626 21.4852 72.5925 20.6666C71.897 22.8921 71.295 24.8201 70.6924 26.7496C70.4486 26.676 70.2048 26.6023 69.961 26.5287C70.4064 24.72 70.8518 22.9107 71.3665 20.8196C70.8253 21.1456 70.475 21.2307 70.3928 21.4287C69.8681 22.6798 69.4013 23.9558 68.9137 25.2276C68.7822 24.9917 68.6507 24.7551 68.5191 24.5192C68.0645 25.0639 67.5626 25.5786 67.1916 26.1748C67.1094 26.3092 67.4825 26.726 67.7542 27.2028C68.2611 26.3471 68.6213 25.7402 68.9817 25.1332C68.9817 25.9475 68.9817 26.7603 68.9817 27.7719C71.157 27.4237 73.0179 27.1249 74.9381 26.8161C74.8623 25.5372 74.8065 24.5821 74.7508 23.627ZM22.5434 70.6243C24.8832 71.9754 26.8885 70.9024 29.1432 69.9258C28.6814 69.5391 28.4448 69.3718 28.2496 69.1659C28.1195 69.0294 28.0494 68.8371 27.7642 68.3467C31.7697 70.7594 33.9715 67.5639 37.0899 66.4622C32.5596 64.1853 31.9627 63.1709 34.2904 60.7281C33.015 62.9193 33.9537 63.8143 35.2004 64.5857C38.1043 66.3836 40.3455 64.833 42.7217 63.2674C42.3042 62.7648 42.0147 62.4167 41.3492 61.6167C43.7226 62.9193 45.2918 62.2759 46.7837 60.8196C41.7309 58.5227 41.8324 58.6871 42.024 56.4024C42.7496 59.3856 45.1545 59.6436 47.3135 59.8095C49.8956 60.0068 51.2811 57.9186 53.1705 56.2879C49.8013 55.275 49.8013 55.275 49.0449 53.7823C50.0908 54.1969 51.1481 54.6866 52.2512 55.0334C53.4579 55.4123 54.556 55.1577 55.5018 54.232C61.0943 48.7624 64.0554 42.0917 64.5744 34.3217C64.6116 33.7676 64.2255 33.1843 63.8624 32.0898C62.9895 33.3265 62.449 34.1036 61.8979 34.8728C61.3252 35.6721 60.7755 36.4906 60.1592 37.2548C54.1678 44.6825 46.7537 50.5052 38.9936 55.9226C35.1497 58.6056 30.8296 60.252 26.2608 61.1542C22.6978 61.8576 19.0955 62.416 15.4867 62.8306C11.058 63.3389 6.87522 62.4796 3.09562 59.9861C2.5137 59.6022 1.8653 59.3169 1.03746 58.8737C0.854449 62.4631 1.85958 65.0739 4.81849 66.6231C7.24911 67.8956 9.71045 69.1281 12.2376 70.1911C13.4321 70.6937 14.8112 70.7594 16.1873 71.0389C16.3818 70.279 16.5483 69.6285 16.7149 68.9794C16.7664 69.2567 16.7228 69.69 16.8836 69.7872C18.6615 70.8652 20.5774 71.4021 22.6764 71.0761C22.6335 70.9231 22.5899 70.7694 22.547 70.6157L22.5434 70.6243ZM8.68173 41.823L8.62955 41.7608C8.84115 43.0733 9.68686 42.8281 10.6262 42.6723C11.853 42.4671 13.1812 41.9288 14.5281 43.0776C12.1747 44.7619 9.09566 42.3891 7.17977 45.0578C9.41736 46.4526 12.1954 44.6432 14.4273 46.2066C12.1582 48.3877 8.84903 46.7671 6.42199 48.6387C8.83259 50.012 11.9638 47.7029 13.558 50.7211C13.0926 51.4682 11.7965 51.564 12.5121 52.8908C12.8009 53.427 12.3241 54.3749 12.1761 55.2542C12.7316 55.5616 13.8611 56.0585 13.821 56.1836C13.317 57.767 14.7776 58.2868 15.5017 59.402C13.9269 59.856 12.4642 60.5601 10.9744 60.6259C9.50028 60.691 7.99831 60.1104 5.90941 59.6929C9.93422 61.3665 10.143 61.4852 13.5401 61.3808C19.5695 61.1949 25.4651 60.1434 31.1806 58.2168C32.7541 57.6863 34.3111 56.985 35.7216 56.1142C44.2273 50.8584 51.8516 44.5381 58.3992 36.9603C59.2964 35.923 59.9991 34.7198 60.847 33.6368C62.3404 31.7288 62.9144 29.6892 61.8628 27.2329C50.9286 25.1933 41.0167 28.1837 32.1 34.3481C27.6098 37.4529 23.7908 41.547 19.7625 45.2952C17.8537 47.0717 16.7585 49.3757 16.1938 51.9557C15.3194 55.9498 15.8249 56.9714 19.568 58.5463C20.2336 58.8265 21.3345 58.7443 21.466 60.3628C20.1056 59.936 18.9854 59.6737 17.9367 59.239C15.1765 58.0959 14.2478 56.4967 14.4981 53.4613C14.7747 50.1135 15.9278 47.0874 18.3334 44.7283C21.5618 41.5627 24.8682 38.4666 28.2803 35.5012C34.9524 29.7042 42.9877 26.9491 51.5399 25.4571C53.1777 25.1719 54.8298 24.9324 56.4847 24.7837C57.7294 24.6721 59.3286 23.1816 60.0971 25.5786C60.1585 25.7702 61.0243 25.8088 61.4897 25.7409C62.3289 25.6194 63.1475 25.3634 63.9653 25.1654C64.2784 24.0466 64.0296 23.4189 62.7557 23.4418C62.4376 23.4475 62.1137 23.1415 61.7442 22.9542C61.7442 21.9763 61.7442 21.1134 61.7442 19.9353C59.9963 19.3319 58.2948 18.5256 56.504 18.1645C48.5688 16.5639 40.8087 17.6341 33.2881 20.3013C20.2643 24.9216 10.8407 33.7748 4.1508 45.7084C2.28923 49.0297 1.06462 52.354 2.17127 56.3723C2.63809 58.0688 3.39731 58.4383 4.68124 58.9295C5.32393 56.9113 3.00269 57.4625 2.74891 56.0135C3.41589 54.8453 4.19798 53.4749 5.17666 51.7606C4.92645 51.6384 4.31807 51.3409 3.95277 51.1622C4.6841 49.7982 5.76785 48.7152 5.60271 47.8788C5.30818 46.3854 6.24755 45.5075 6.65861 44.4259C7.02964 43.445 7.98329 42.6823 8.68173 41.823ZM70.4765 6.93153C70.6888 6.89007 70.9011 6.8493 71.1134 6.80783C71.9663 8.85026 72.8213 10.8934 73.7371 13.0881C80.244 11.5962 86.7308 11.2594 93.1162 9.19841C91.7572 6.54261 90.5226 4.1306 89.5203 2.17181C87.899 1.77362 86.7316 1.2446 85.5627 1.24103C80.4727 1.22816 75.3813 1.369 70.0232 1.45836C68.3576 6.87291 66.9249 12.1666 65.0691 17.3059C64.0783 20.0504 65.0884 22.155 66.0049 24.6264C68.938 21.8233 70.079 17.8042 73.6062 15.9362C72.5025 12.7629 71.4902 9.84684 70.4765 6.93153ZM79.3539 24.6635C83.9549 20.683 88.2743 16.9771 92.5457 13.2168C93.2649 12.5834 94.907 12.1223 94.0234 10.8205C93.2399 9.6674 92.0224 10.7218 91.0988 11.1115C88.8319 12.0665 86.5757 12.75 84.0557 12.9223C80.8666 13.1403 77.7161 13.9295 74.2361 14.5265C76.0533 18.1266 77.6425 21.2728 79.3539 24.6635ZM70.6488 29.3017C68.2703 29.4747 68.0795 30.941 67.539 32.448C68.4369 32.8697 69.1933 33.2579 69.9739 33.5868C72.589 34.6877 75.2519 35.685 77.8198 36.8845C79.4333 37.6387 80.8788 37.8282 82.4551 36.5972C82.3393 36.1396 82.2099 35.6263 82.0641 35.0487C81.2041 35.2975 80.4713 35.7793 79.9294 35.6178C77.9678 35.0309 75.8524 34.5426 74.2132 33.4109C72.8056 32.4387 71.5016 32.0991 69.931 32.1255C69.8152 32.1277 69.6958 31.8496 69.4678 31.5636C69.773 30.9789 70.1112 30.3312 70.6488 29.3017ZM79.0744 27.8634C78.1987 28.1086 77.4595 28.2852 76.7632 28.5654C76.7031 28.5897 76.9226 29.3067 77.012 29.7021C78.5854 28.9128 78.5504 30.6822 79.4933 30.9088C78.8149 31.9575 78.2995 32.7539 77.7833 33.5503C78.0772 33.7891 78.3717 34.0278 78.6655 34.2659C79.0415 33.4809 79.419 32.696 79.7957 31.9104C79.9409 32.0183 80.0867 32.1262 80.2325 32.2342C80.1224 33.0127 80.0116 33.7912 79.8329 35.0508C80.8774 34.3553 81.4643 33.9642 82.127 33.5224C81.0983 31.6158 80.1768 29.9058 79.0744 27.8634ZM41.9046 67.0306C41.806 66.8032 41.7088 66.5745 41.6108 66.3471C39.3432 66.7096 37.4588 67.9671 35.5629 69.1988C35.6401 69.379 35.7187 69.5591 35.7967 69.7393C37.8319 68.8364 39.8686 67.9327 41.9046 67.0306ZM43.2515 68.3309C43.16 68.1429 43.0692 67.9564 42.9784 67.7691C41.7173 68.4096 40.4584 69.0501 39.1974 69.6921C39.291 69.8772 39.3847 70.0624 39.4776 70.2476C40.7358 69.6084 41.994 68.97 43.2515 68.3309ZM7.20121 55.8891C7.19121 55.6967 7.1812 55.5038 7.17047 55.3107C6.15248 55.2342 5.07586 54.8868 4.40029 56.4846C5.33393 56.2858 6.26829 56.0878 7.20121 55.8891ZM43.328 65.011C44.7828 65.5071 45.5341 64.7444 46.0202 63.5083C45.1231 64.0087 44.2252 64.5099 43.328 65.011ZM5.54625 50.3358C6.62001 51.2401 7.29986 51.1172 7.97972 50.6539C8.07122 50.5917 8.05407 50.3701 8.12556 50.0527C7.35777 50.1371 6.66505 50.2129 5.54625 50.3358Z" fill="#8396B4"/>
</svg>
