<svg width="43" height="52" viewBox="0 0 43 52" fill="none" xmlns="http://www.w3.org/2000/svg">
<path fill-rule="evenodd" clip-rule="evenodd" d="M6.57827 51.6628C4.73639 48.5625 3.51985 45.264 2.61634 41.8497C-0.330998 30.7156 -0.736933 19.4574 1.14 8.11638C1.40014 6.54553 1.92599 4.98451 2.55677 3.51725C3.96904 0.232506 6.53088 -0.732744 9.88469 0.542694C12.5818 1.56963 14.2068 3.65859 15.4096 6.12023C17.0742 9.5275 17.9788 13.1671 18.4607 16.9181C18.5555 17.6556 18.6584 18.3918 18.8098 19.5152C19.4948 18.6886 19.9748 18.1425 20.4185 17.5687C23.2105 13.9568 26.4093 10.7626 30.4109 8.52661C32.1261 7.56794 34.0202 6.78217 35.9305 6.35132C39.0984 5.63718 41.0718 6.90405 42.1355 9.98456C42.9353 12.3026 42.8141 14.6663 42.2222 17.0108C41.4953 19.8898 40.0091 22.3771 38.2094 24.702C33.9259 30.2354 29.0477 35.2146 23.9026 39.9327C20.6832 42.8852 17.3749 45.742 14.0517 48.5776C11.9187 50.3968 9.52873 51.707 6.57827 51.6628ZM13.3133 45.8927C13.5128 45.7931 13.7407 45.7285 13.9079 45.5901C20.408 40.2188 26.7067 34.6181 32.3119 28.3095C34.7901 25.5203 37.0328 22.4894 39.1115 19.3862C40.6962 17.0205 40.9745 14.2012 40.3988 11.4089C39.7735 8.3781 38.1465 7.65643 35.2694 8.96867C38.5258 9.78204 39.9105 12.0827 38.8252 15.3152C38.2732 16.9591 37.4478 18.5769 36.4426 19.9907C33.8437 23.6468 31.1017 27.2032 28.3563 30.7525C27.759 31.5258 26.919 32.1141 26.1735 32.7688C25.5469 33.3197 24.8475 33.7944 24.2647 34.3865C20.9973 37.7012 18.2621 41.5399 14.4209 44.2966C13.9225 44.6544 13.7022 45.3993 13.3507 45.9635C12.2493 46.2204 11.1583 46.5627 10.0415 46.7022C9.42051 46.7807 8.49206 46.7527 8.16129 46.3722C7.06971 45.1197 5.31129 44.1995 5.61165 42.0762C5.64167 41.8633 5.20418 41.5843 4.98349 41.3361C5.49335 44.2712 6.24818 47.0276 7.85842 49.5083C10.0715 48.6313 11.9543 47.6604 13.3133 45.8927ZM6.41968 33.3529C4.26643 31.9021 3.68354 29.909 4.26869 27.5189C4.35923 27.1484 4.65317 26.7517 4.57767 26.4318C4.39236 25.6513 4.14576 24.8454 3.72166 24.1783C3.51754 23.8573 2.85701 23.8264 2.18239 23.5851C2.32988 28.9656 2.84204 34.0364 4.23128 39.4706C5.0502 37.1813 5.68784 35.3988 6.41968 33.3529ZM2.60086 16.2419C3.33473 14.2648 5.59807 12.5543 3.7406 10.1212C3.70446 10.0733 3.73963 9.97173 3.74094 9.89528C3.78892 7.28819 4.94397 5.21379 6.91943 3.60506C8.20236 2.56103 8.84859 2.69811 9.98876 3.96868C10.6035 4.65367 11.0975 5.58361 12.4292 5.25347C11.5729 3.76492 10.3986 2.86439 8.9118 2.36095C6.94569 1.69552 5.64015 2.15929 4.75204 4.04159C2.92887 7.90598 2.5996 12.0521 2.60086 16.2419ZM13.318 11.759C13.0794 11.4783 12.9672 11.2542 12.7858 11.1479C10.9426 10.0661 7.02233 11.13 5.87093 13.0205C5.43212 13.741 5.76113 14.3398 6.47237 14.3564C7.75131 14.3855 9.03547 14.1667 10.318 14.0634C11.7471 13.9473 12.7575 13.278 13.318 11.759ZM13.4304 15.8962C11.9266 15.0104 11.9199 14.9778 7.67683 15.8144C6.17654 16.1097 4.8685 16.8418 3.91013 18.0984C5.38505 19.5183 5.5184 19.5772 6.76031 18.5883C8.41916 17.2675 10.2455 16.4445 12.3766 16.3062C12.6925 16.2849 12.9955 16.0714 13.4304 15.8962ZM31.2211 15.1726C32.736 15.4701 34.1861 15.7551 35.7324 16.0592C36.1199 14.7327 37.1397 13.3839 36.5872 11.5673C33.9144 11.7609 32.6681 13.7281 31.2211 15.1726ZM34.2471 18.2065C33.8098 16.4897 33.462 16.2245 31.9284 16.9091C30.5888 17.5062 29.2574 18.1796 28.0874 19.3262C29.0169 19.8824 29.7082 20.2971 30.2311 20.6102C31.627 19.7746 32.8294 19.055 34.2471 18.2065ZM13.664 23.4082C11.2807 22.0562 9.50258 22.5841 7.12659 25.243C9.59404 25.6748 11.652 25.147 13.664 23.4082ZM13.3915 17.8427C11.4833 19.4536 9.44437 20.2887 7.08599 20.4321C5.8453 20.5078 5.48369 21.5997 5.21012 22.6788C6.31485 23.1089 6.9812 22.5975 7.77726 22.061C9.02205 21.2228 10.3732 20.4795 11.7773 19.9617C12.7773 19.5928 13.3403 19.1439 13.3915 17.8427ZM9.12074 32.5096C12.0564 32.926 13.6194 31.8815 14.7175 28.6495C12.2757 29.3287 10.5166 30.5379 9.12074 32.5096ZM18.5645 25.1038C20.1427 24.5014 21.0603 23.8569 21.5626 22.8182C22.5618 20.7526 23.4552 18.6355 24.4448 16.4232C22.0455 18.8992 20.1359 21.5712 18.5645 25.1038ZM21.5218 30.1989C23.6231 29.1565 24.0488 30.4874 24.519 32.2018C25.1179 30.7823 25.5452 29.7695 25.9771 28.7458C24.5444 28.2334 23.3258 27.7975 21.9855 27.318C21.8542 28.1349 21.7368 28.8651 21.5218 30.1989ZM15.0016 24.9091C12.5084 25.2475 10.0335 27.2154 9.29829 29.3252C11.8406 28.6991 13.667 27.3152 15.0016 24.9091ZM7.55116 40.4753C9.16832 39.9526 12.5537 37.5719 13.0984 36.6147C13.2362 36.3717 13.0862 35.9642 13.0568 35.4111C10.5509 36.4993 8.87755 38.0593 7.55116 40.4753ZM9.44978 35.8657C8.49756 35.6263 7.73885 35.4348 7.01589 35.2525C5.53462 38.1611 5.47389 38.5542 6.21568 39.9675C7.22335 38.6889 8.24114 37.3985 9.44978 35.8657ZM6.00916 26.4397C5.78173 27.0755 5.38883 27.6942 5.3968 28.3071C5.40316 28.7756 5.8253 29.387 6.24162 29.6424C6.459 29.7758 7.17577 29.3766 7.47043 29.0441C8.09321 28.3403 8.58773 27.5219 9.2666 26.5653C8.07225 26.5198 7.12267 26.483 6.00916 26.4397ZM29.8109 14.2634C27.3774 15.3379 25.574 17.0165 24.7733 19.9283C27.3309 18.6124 28.157 16.0848 29.8109 14.2634ZM17.6926 34.8362C16.2039 36.6226 16.0604 37.2802 16.7021 38.9203C17.5213 38.0394 18.3779 37.1186 19.2652 36.165C18.8283 35.704 18.4778 35.3141 18.1005 34.9513C18.0106 34.8653 17.8312 34.8722 17.6926 34.8362ZM2.96783 19.1512C1.78982 21.7133 1.92016 22.1777 3.88511 22.6859C4.1899 21.9612 4.50089 21.2192 4.83432 20.426C4.18037 19.9797 3.63114 19.6045 2.96783 19.1512ZM20.6902 32.3103C20.136 32.7612 19.6032 33.1936 19.0801 33.6189C20.4827 35.5289 20.5552 35.5312 22.1976 33.8246C21.743 33.3685 21.286 32.9092 20.6902 32.3103ZM11.0825 44.5066C13.491 43.0966 14.3399 41.931 14.0991 40.1046C13.3001 41.8768 11.2931 42.3032 11.0825 44.5066ZM29.1773 21.8723C28.5237 20.9882 27.8054 20.533 27.1615 21.2547C26.1633 22.3728 27.2882 23.1865 27.7271 24.2937C28.2883 23.3566 28.7071 22.6573 29.1773 21.8723ZM18.6853 31.4109C18.8985 31.5013 19.1121 31.5925 19.326 31.6826C20.937 30.5701 20.12 28.9205 20.2849 27.4884C20.1386 27.4508 19.9913 27.4141 19.8448 27.3771C19.4585 28.7217 19.0722 30.0664 18.6853 31.4109ZM10.7826 9.24788C11.7457 9.59241 12.5908 9.89472 13.4879 10.2156C13.7921 9.25105 13.7321 8.43788 12.754 8.07381C11.862 7.74229 11.0809 7.93093 10.7826 9.24788ZM5.44478 10.4089C6.98115 9.25848 8.51699 8.10788 10.0528 6.95727C8.49246 7.18727 5.55516 9.3543 5.44478 10.4089ZM7.79329 34.0353C10.4426 34.8138 11.0246 34.6971 12.2685 33.4545C11.0017 33.6197 9.66391 33.7932 7.79329 34.0353ZM12.4931 21.3071C13.3591 21.8571 13.8838 22.2478 14.4634 22.5249C14.6383 22.6082 15.0775 22.444 15.1877 22.265C15.2916 22.0969 15.207 21.685 15.0557 21.5108C14.4534 20.8142 13.7137 20.7283 12.4931 21.3071ZM11.4855 18.0828C11.4023 17.9086 11.3185 17.7342 11.2354 17.5596C10.2183 17.8176 9.18114 18.0371 8.66718 19.287C9.60676 18.8852 10.546 18.4845 11.4855 18.0828ZM13.9685 19.5893C14.6279 19.8252 15.1934 20.0275 16.2804 20.4163C15.6884 19.4045 15.3525 18.8317 14.8617 17.9922C14.4612 18.7081 14.2533 19.0793 13.9685 19.5893ZM31.0404 22.5245C31.894 21.9263 32.6997 21.2968 32.9427 20.2601C32.0964 20.8561 30.9095 21.1552 31.0404 22.5245ZM23.4056 25.042C23.5589 27.0335 23.6478 27.1108 25.0715 26.7799C24.4874 26.1697 23.9465 25.6059 23.4056 25.042ZM7.53282 43.7043C7.72235 43.1744 7.91188 42.6446 8.14645 41.9889C6.93724 42.132 6.8591 42.7177 7.53282 43.7043ZM15.1911 33.2573C15.4675 33.0538 15.6278 32.9911 15.6982 32.8737C15.8885 32.5566 16.041 32.2164 16.2086 31.8852C16.1335 31.8619 16.0092 31.7991 15.9918 31.8213C15.7134 32.1679 15.4443 32.5231 15.1853 32.8849C15.1522 32.931 15.1846 33.0242 15.1911 33.2573ZM9.81719 44.5155C9.70414 44.4709 9.59076 44.4256 9.47752 44.3816C9.28676 44.6849 9.09671 44.9879 8.90594 45.2913C9.14605 45.3843 9.38582 45.4766 9.62612 45.569C9.69034 45.2175 9.75386 44.8662 9.81719 44.5155ZM15.7298 13.759C15.3798 15.5314 15.4659 15.9261 16.15 15.704C16.0322 15.1583 15.9117 14.6004 15.7298 13.759ZM17.452 40.6566C16.2229 40.6667 15.6629 40.8131 15.824 41.9938C16.3434 41.5672 16.7039 41.2707 17.452 40.6566ZM3.90067 15.7577C4.00913 15.8995 4.11778 16.0407 4.22677 16.1827C4.5388 15.8943 4.85084 15.6059 5.16268 15.318C5.06143 15.2173 4.89172 15.0152 4.869 15.0307C4.53455 15.2561 4.21991 15.5104 3.90067 15.7577Z" fill="#8396B4"/>
</svg>
