<svg width="87" height="72" viewBox="0 0 87 72" fill="none" xmlns="http://www.w3.org/2000/svg">
<path d="M78.8796 53.2296C80.4966 49.2885 82.1136 45.3474 83.7306 41.4064C84.9691 38.3867 86.7747 35.1471 86.9227 31.8172C87.0304 29.3942 86.0916 27.4768 84.0054 26.2075C80.7019 24.1972 76.5045 23.09 72.9041 21.6695C53.9712 14.1996 34.9296 7.00589 15.7933 0.0747094C14.9962 -0.214079 14.3612 0.383513 14.2499 1.0233C13.5767 1.05777 13.1479 1.27794 12.9171 1.64133C12.7966 1.70737 12.6929 1.80581 12.639 1.96255C9.72449 10.4751 7.16019 19.0655 4.60476 27.6938C3.3849 31.8128 2.16445 35.9314 0.945411 40.05C0.215854 42.5146 -0.832932 45.0605 1.111 47.2316C3.16068 49.5212 6.93702 50.1818 9.71181 51.1581C14.1642 52.7241 18.6167 54.29 23.0691 55.8559L48.042 64.6398C52.1073 66.0696 56.1726 67.4995 60.2379 68.9294C62.8292 69.841 66.2323 71.7244 69.1096 71.0416C71.5314 70.4666 72.6545 68.2942 73.5667 66.1795C75.4141 61.898 77.1098 57.5431 78.8796 53.2296ZM84.0998 34.4626C82.9984 37.8603 81.4074 41.1555 80.0521 44.4589C77.2055 51.3975 74.5016 58.4161 71.5052 65.291C71.4551 65.4057 71.4052 65.5199 71.3551 65.6332C70.9367 64.5472 70.0896 63.4803 69.6142 62.5981C68.204 59.9807 66.7524 57.385 65.2579 54.8145C62.0966 49.3771 58.7807 43.9426 54.9144 38.9697C55.7731 38.6961 56.6202 38.4319 57.4483 38.201C66.4756 35.6855 75.6116 33.3321 84.5278 30.4368C84.8684 31.7285 84.5324 33.129 84.0998 34.4626ZM14.8102 2.08999C14.8427 2.10468 14.8698 2.12247 14.9056 2.13585C29.3557 7.36974 43.7524 12.7511 58.0876 18.2913C65.0614 20.9867 72.021 23.7184 78.9667 26.487C80.368 27.0455 82.1227 27.5007 83.2992 28.507C76.7447 30.2438 70.2552 32.2778 63.7304 34.1215C60.1765 35.125 56.6196 36.1197 53.0602 37.1045C48.6346 38.3296 44.3974 40.3072 40.6033 36.6699C38.4282 34.5847 36.4091 32.2619 34.4667 29.8577C34.3839 29.6939 34.2672 29.5489 34.1267 29.4366C31.6988 26.4048 29.3908 23.2542 27.077 20.2661C24.9969 17.5803 22.9525 14.8671 20.9431 12.1279C20.0433 10.9 13.6545 3.44548 14.8102 2.08999ZM2.52462 42.4587C2.80616 40.8855 3.50002 39.265 3.87539 37.9947C5.03375 34.0708 6.19178 30.1461 7.35014 26.2222C9.4516 19.1036 11.4918 11.9976 13.3416 4.81769C15.0412 8.63386 19.6064 14.0652 20.2193 14.8956C23.9742 19.9848 27.826 25.0455 31.8438 29.9563C26.2846 32.7311 20.7821 35.5433 15.0244 37.9163C12.0222 39.1534 8.99218 40.3191 5.9388 41.425C5.13275 41.7172 3.69399 41.9781 2.52462 42.4587ZM67.2671 68.8754C65.6152 68.7371 63.8182 67.8153 62.287 67.2764C58.6089 65.9826 54.9308 64.6889 51.2526 63.3951L8.85714 48.4836C7.47965 47.9993 4.07696 47.3367 3.10597 46.0543C2.81215 45.6667 2.6293 45.2383 2.52079 44.786C2.70731 44.777 3.00288 44.6494 3.42115 44.3872C4.15482 44.1682 4.88685 43.945 5.61749 43.7171C7.07248 43.2492 8.51398 42.7365 9.9509 42.2172C12.8259 41.1789 15.6666 40.0523 18.4785 38.8519C23.4984 36.7091 28.5258 34.4113 33.2688 31.6912C34.735 33.4507 36.2239 35.1893 37.7405 36.8983C39.8447 39.2699 42.1633 41.2691 45.5203 41.1514C48.1162 41.0603 50.8027 40.2762 53.4118 39.4499C56.0921 44.0702 59.0233 48.5415 61.7371 53.1427C63.2494 55.7066 64.7348 58.2855 66.1685 60.8945C66.7229 61.9035 67.2702 62.9163 67.8113 63.9325C68.0324 64.348 69.0092 65.742 69.3331 66.544C69.3027 66.6161 69.2778 66.6947 69.2594 66.7801C69.2464 66.8386 69.2338 66.8979 69.2215 66.9567C69.136 67.3547 69.4324 67.9452 69.8445 68.0613C69.8476 68.062 69.8499 68.063 69.853 68.0636C69.2391 68.6376 68.4336 68.9729 67.2671 68.8754Z" fill="#8396B4"/>
</svg>
